<?xml version="1.0" encoding="UTF-8"?>
<svg id="Layer_1" xmlns="http://www.w3.org/2000/svg" viewBox="0 0 630 72">
  <defs>
    <style>
      .cls-1 {
        fill: #e17fd2;
      }

      .cls-2, .cls-3 {
        fill: #0033a1;
      }

      .cls-3 {
        font-family: Poppins-Regular, Poppins;
        font-size: 29.5px;
      }

      .cls-4 {
        fill: #0071ce;
      }

      .cls-5 {
        fill: #cc27b0;
      }
    </style>
  </defs>
  <g>
    <path class="cls-2" d="M86.2,37.1c-3.1-.9-4.7-2.4-4.7-4.5,0-2.6,2.4-4.4,5.6-4.4,3.4,0,5.5,1.8,5.6,4.7h8.2c-.1-7.3-5.6-12.1-13.8-12.1s-14,5.1-14,12.1c0,5.6,3.5,9.5,10.5,11.7l5,1.4c3.7,1.1,5.3,2.5,5.2,5-.1,2.8-2.5,4.7-6.4,4.7-4.2,0-6.2-2.5-6.5-5h-8.3c.2,7.3,6.2,12.3,14.8,12.3,7,0,14.5-3.7,14.7-11.9.2-5.9-3.6-10.1-11.2-12.3l-4.7-1.7Z"/>
    <path class="cls-2" d="M118.5,34c-7.9.2-14.2,6.8-14,14.7.2,7.6,6.3,13.8,14,14,2.3,0,6.3-1.1,8-3.6l.5-.8v3.8h7.8v-27.5h-7.8v3.7l-.5-.7c-2.4-3.5-7.4-3.6-8-3.6ZM119.4,55.3c-3.5,0-7.3-2.7-7.3-7s3.8-7,7.3-7,7.1,2.4,7.1,7-3.7,7-7.1,7h0Z"/>
    <path class="cls-2" d="M147.2,34.6h-7.8v27.6h7.8v-27.6Z"/>
    <path class="cls-2" d="M159.6,21.2h-7.8v40.9h7.8V21.2Z"/>
    <path class="cls-2" d="M180.9,21.2h-16.8v40.9h8.3v-14.3h8.5c9.9,0,13.4-7.1,13.4-13.3-.1-9.2-6.8-13.3-13.4-13.3ZM180.4,40.7h-8v-12.3h8.3c3.6,0,5.3,3.6,5.3,6.1,0,3-2.1,6.2-5.6,6.2h0Z"/>
    <path class="cls-2" d="M208,34c-8.3,0-14.3,6-14.3,14.3s6,14.4,14.3,14.4,14.3-6,14.3-14.4-6-14.3-14.3-14.3ZM208,55c-3.7,0-6.7-3-6.7-6.7s3-6.7,6.7-6.7,6.7,3,6.7,6.6c.2,3.6-2.6,6.6-6.2,6.7-.2.1-.3.1-.5.1Z"/>
    <path class="cls-2" d="M233.1,34.6h-7.8v27.6h7.8v-27.6Z"/>
    <path class="cls-2" d="M246,38.5l-.5,1v-4.9h-7.8v27.6h7.8v-14.7c0-3.9,1.9-6,5.5-6,3.2,0,5.2,2.3,5.2,5.9v14.7h7.8v-16.5c0-7.5-3.5-11.7-10-11.7-3.4,0-6.4,1.8-8,4.6h0Z"/>
    <path class="cls-2" d="M143.3,30.6c2.7,0,4.8-2.2,4.8-4.8s-2.2-4.8-4.8-4.8-4.8,2.2-4.8,4.8h0c0,.6.1,1.3.4,1.8.7,1.9,2.4,3,4.4,3h0Z"/>
    <path class="cls-2" d="M229.2,30.6c2.7,0,4.8-2.2,4.8-4.8s-2.2-4.8-4.8-4.8-4.8,2.2-4.8,4.8h0c0,.6.1,1.3.4,1.8.7,1.9,2.4,3,4.4,3h0Z"/>
    <path class="cls-2" d="M284.1,34.5h-5.4v-10.7h-7.8v10.8h-5.2v6.6h5.2v21h7.8v-21h5.4v-6.7Z"/>
    <polygon class="cls-2" points="40.7 5.9 48.2 50.5 4.9 50.5 40.7 5.9"/>
    <polygon class="cls-5" points="40.7 5.9 67.2 50.5 48.2 50.5 40.7 5.9"/>
    <polygon class="cls-4" points="4.9 50.5 48.2 50.5 50.9 66.7 4.9 50.5"/>
    <polygon class="cls-1" points="48.2 50.5 67.2 50.5 50.9 66.7 48.2 50.5"/>
    <path class="cls-2" d="M286.1,56.9c.5.3.8.6,1.1,1.1.3.5.4,1,.4,1.6s-.1,1.1-.4,1.6-.6.8-1.1,1.1c-.5.3-1,.4-1.5.4-.6,0-1.1-.1-1.6-.4s-.8-.6-1.1-1.1c-.3-.5-.4-1-.4-1.6s.1-1.1.4-1.6.6-.8,1.1-1.1,1-.4,1.6-.4,1.1.1,1.5.4ZM286.4,61.4c.5-.5.7-1.1.7-1.8s-.2-1.4-.7-1.8c-.5-.5-1-.7-1.8-.7-.7,0-1.3.2-1.8.7s-.7,1.1-.7,1.8.2,1.4.7,1.8c.5.5,1.1.7,1.8.7s1.3-.3,1.8-.7ZM285.7,59.5c-.1.2-.3.3-.6.3l.9,1.3h-.8l-.8-1.3h-.4v1.3h-.7v-3.3h1.4c.3,0,.6.1.8.3.2.2.3.4.3.7.1.3,0,.5-.1.7ZM284,59.3h.7c.1,0,.3,0,.4-.1s.1-.2.1-.3,0-.2-.1-.3-.2-.1-.4-.1h-.7v.8Z"/>
  </g>
  <text class="cls-3" transform="translate(315.05 52.09)"><tspan x="0" y="0">Platform Community</tspan></text>
</svg>