<svg viewBox="0 0 1000 1000" xmlns="http://www.w3.org/2000/svg"><path d="m945.55 584a137.73 137.73 0 0 1 -32.55 142.86q-4.18 4.18-8.72 8a137.15 137.15 0 0 1 -84.28 32.24c-1.42 0-2.84.06-4.27.06h-90.38a27 27 0 0 0 -10 1.89 27.3 27.3 0 0 0 -17.35 25.43v63.52a38.44 38.44 0 0 1 -38.44 38.44h-418.28v-101.96a27.32 27.32 0 0 0 -27.28-27.32h-53.7a132.35 132.35 0 0 1 -132.4-132.4v-10.41a137.49 137.49 0 0 1 5.68-40.35 112.89 112.89 0 0 1 13.13-28.38 115.86 115.86 0 0 1 18.47-22q4.3-4 8.87-7.57a139.72 139.72 0 0 1 14.69-10q2.58-1.54 5.17-3c.18-.11.39-.22.58-.32a183.7 183.7 0 0 1 33.81-14l.73-.22a43.54 43.54 0 0 0 14.25-7.34 44 44 0 0 0 16.65-29.32 42.61 42.61 0 0 0 .33-5.44v-43c0-1.11 0-2.21.09-3.3a63 63 0 0 1 29.59-50.11 56.76 56.76 0 0 1 6-3.29 59.12 59.12 0 0 1 8.46-3.36 62.9 62.9 0 0 1 16-2.83h.27c.88 0 1.77-.06 2.65-.06.93 0 1.86 0 2.77-.08s1.57-.1 2.33-.19a48.63 48.63 0 0 0 38.66-27.21c.57-1.14 1.07-2.3 1.52-3.48a48.35 48.35 0 0 0 3.3-17.61 48.57 48.57 0 0 0 -38.71-47.58c-1.58-.32-3.17-.57-4.78-.74-.77-.08-1.55-.15-2.33-.18s-1.84-.09-2.77-.09h-68a83.42 83.42 0 0 1 -27-4.47 81.18 81.18 0 0 1 -12.05-5.22q-2.75-1.46-5.36-3.1l-.13-.08a84.07 84.07 0 0 1 -18.77-16.22c-1.73-2-3.38-4.12-4.93-6.3a83.24 83.24 0 0 1 -8-13.92 79.1 79.1 0 0 1 -3.29-8.53 81.44 81.44 0 0 1 -3.23-13.92 82.6 82.6 0 0 1 -.75-8.54c0-1.11-.07-2.23-.07-3.36a85.5 85.5 0 0 1 .66-10.55 83.32 83.32 0 0 1 1.53-8.54c.38-1.68.84-3.33 1.33-5a85.28 85.28 0 0 1 4.86-12.49 79.87 79.87 0 0 1 4.59-8.19 81.57 81.57 0 0 1 5.73-8c.52-.64 1-1.27 1.58-1.9s1.09-1.25 1.66-1.85a83.32 83.32 0 0 1 61.05-27.12h566.6a97.93 97.93 0 0 1 97.92 97.92c0 38.2 30.92 69.36 69.12 69.29a83.61 83.61 0 1 1 .17 167.22h-178.87a35.77 35.77 0 0 0 -35.76 35.75c0 .65 0 1.3.06 1.94a35.71 35.71 0 0 0 35.7 33.88h106a137 137 0 0 1 87 31 138.58 138.58 0 0 1 21.84 22.4c2.55 3.31 5 6.73 7.24 10.27a136.78 136.78 0 0 1 13.81 28.33z" fill="#f0f3f9"/><rect fill="#34629b" height="17.61" rx="8.8" width="74.06" x="880.75" y="896.38"/><rect fill="#34629b" height="17.61" rx="8.8" width="809.94" x="63.64" y="896.38"/><path d="m558.76 86v439.22a8.34 8.34 0 0 1 -8.34 8.35h-485.24q4.3-4 8.87-7.57a139.72 139.72 0 0 1 14.69-10q2.58-1.54 5.17-3c.18-.11.39-.22.58-.32a183.7 183.7 0 0 1 33.81-14l.73-.22a43.54 43.54 0 0 0 14.25-7.34 44 44 0 0 0 16.65-29.32 42.61 42.61 0 0 0 .33-5.44v-43c0-1.11 0-2.21.09-3.3a63 63 0 0 1 29.59-50.06 56.76 56.76 0 0 1 6-3.29 59.12 59.12 0 0 1 8.46-3.36 62.9 62.9 0 0 1 16-2.83h.27c.88 0 1.77-.06 2.65-.06.93 0 1.86 0 2.77-.08s1.57-.1 2.33-.19a48.63 48.63 0 0 0 38.66-27.21c.57-1.14 1.07-2.3 1.52-3.48a48.35 48.35 0 0 0 3.3-17.61 48.57 48.57 0 0 0 -38.71-47.58c-1.58-.32-3.17-.57-4.78-.74-.77-.08-1.55-.15-2.33-.18s-1.84-.09-2.77-.09h-68a83.42 83.42 0 0 1 -27-4.47 81.18 81.18 0 0 1 -12.05-5.22q-2.75-1.46-5.36-3.1l-.13-.08a84.07 84.07 0 0 1 -18.77-16.22c-1.73-2-3.38-4.12-4.93-6.3a83.24 83.24 0 0 1 -8-13.92 79.1 79.1 0 0 1 -3.29-8.53 81.44 81.44 0 0 1 -3.23-13.92 82.6 82.6 0 0 1 -.75-8.54c0-1.11-.07-2.23-.07-3.36a85.5 85.5 0 0 1 .66-10.55 83.32 83.32 0 0 1 1.53-8.54c.38-1.68.84-3.33 1.33-5a85.28 85.28 0 0 1 4.86-12.49 79.87 79.87 0 0 1 4.59-8.19 81.57 81.57 0 0 1 5.73-8c.52-.64 1-1.27 1.58-1.9s1.09-1.25 1.66-1.85a83.32 83.32 0 0 1 61.05-27.12h404z" fill="#6e8ec8"/><path d="m542.53 86v418.68.85a5.75 5.75 0 0 1 -.14.83c0 .21-.09.41-.14.61s-.13.39-.18.58a4.83 4.83 0 0 1 -.23.52 6.28 6.28 0 0 1 -.27.59 6.12 6.12 0 0 1 -.43.69 7 7 0 0 1 -.47.64 6.1 6.1 0 0 1 -.55.59 6 6 0 0 1 -.58.54c-.22.17-.43.33-.65.48a6.5 6.5 0 0 1 -.68.42 7 7 0 0 1 -.73.35c-.25.1-.51.2-.77.28s-.53.15-.81.21a8.37 8.37 0 0 1 -1.67.17h-440.32c.18-.11.39-.22.58-.32a183.7 183.7 0 0 1 33.81-14l.73-.22a43.54 43.54 0 0 0 14.25-7.34 44 44 0 0 0 16.65-29.32 42.61 42.61 0 0 0 .33-5.44v-43c0-1.11 0-2.21.09-3.3a63 63 0 0 1 29.59-50.09 56.76 56.76 0 0 1 6-3.29 59.12 59.12 0 0 1 8.46-3.36 62.9 62.9 0 0 1 16-2.83h.27c.88 0 1.77-.06 2.65-.06.93 0 1.86 0 2.77-.08s1.57-.1 2.33-.19a48.63 48.63 0 0 0 38.66-27.21c.57-1.14 1.07-2.3 1.52-3.48a48.35 48.35 0 0 0 3.3-17.61 48.57 48.57 0 0 0 -38.71-47.58c-1.58-.32-3.17-.57-4.78-.74-.77-.08-1.55-.15-2.33-.18s-1.84-.09-2.77-.09h-68a83.42 83.42 0 0 1 -27-4.47 81.18 81.18 0 0 1 -12.05-5.22q-2.75-1.46-5.36-3.1l-.13-.08a84.07 84.07 0 0 1 -18.77-16.22c-1.73-2-3.38-4.12-4.93-6.3a83.24 83.24 0 0 1 -8-13.92 79.1 79.1 0 0 1 -3.29-8.53 81.44 81.44 0 0 1 -3.23-13.92 82.6 82.6 0 0 1 -.75-8.54c0-1.11-.07-2.23-.07-3.36a85.5 85.5 0 0 1 .66-10.55 83.32 83.32 0 0 1 1.53-8.54c.38-1.68.84-3.33 1.33-5a85.28 85.28 0 0 1 4.86-12.49 79.87 79.87 0 0 1 4.59-8.19 81.57 81.57 0 0 1 5.73-8c.52-.64 1-1.27 1.58-1.9s1.09-1.25 1.66-1.85a83.32 83.32 0 0 1 61.05-27.12z" fill="#e9f1ff"/><path d="m542.53 116.7v388a8.36 8.36 0 0 1 -8.34 8.35h-260.43v-348.67l.63-.43 10-6.76 34.61-23.46h55.45l11.33-6.07 5.18-2.77 2.85-1.53 12-6.44 28-15 28.7 6.47v34.61h14.89v-57h25.08l7.83 7.83v22.87z" fill="#b3c9eb"/><path d="m480 183.83v329.17h54.17a8.34 8.34 0 0 0 8.35-8.34v-343.66h-20.67z" fill="#819fcc"/><path d="m318.99 133.73h23.84v379.3h-23.84z" fill="#819fcc"/><path d="m128.3 115.24v133.51a81.18 81.18 0 0 1 -12.05-5.22q-2.75-1.46-5.36-3.1l-.13-.08a84.07 84.07 0 0 1 -18.76-16.14c-1.73-2-3.38-4.12-4.93-6.3a83.24 83.24 0 0 1 -8-13.92 79.1 79.1 0 0 1 -3.29-8.53 81.44 81.44 0 0 1 -3.23-13.92 82.6 82.6 0 0 1 -.75-8.54c0-1.11-.07-2.23-.07-3.36a85.5 85.5 0 0 1 .66-10.55 83.32 83.32 0 0 1 1.53-8.54c.38-1.68.84-3.33 1.33-5a85.28 85.28 0 0 1 4.86-12.49l22.14-8.19 21.51-8z" fill="#b3c9eb"/><path d="m94.49 512.71a183.7 183.7 0 0 1 33.81-14v14.29h-34.39c.18-.08.39-.19.58-.29z" fill="#b3c9eb"/><path d="m159.93 179.94v73.28h-4.6a83.42 83.42 0 0 1 -27-4.47v-87.75z" fill="#88a5d2"/><path d="m159.93 461.88v51.12h-31.63v-14.24l.73-.22a43.54 43.54 0 0 0 14.25-7.34 44 44 0 0 0 16.65-29.32z" fill="#88a5d2"/><path d="m226.07 149.3v104c-.91-.06-1.84-.09-2.77-.09h-27.38v-116.56l24.44 10.26z" fill="#b3c9eb"/><path d="m223.3 350.41c.93 0 1.86 0 2.77-.08v162.67h-30.15v-156.33a59.12 59.12 0 0 1 8.46-3.36 62.9 62.9 0 0 1 16-2.83h.27c.88 0 1.77-.06 2.65-.06z" fill="#b3c9eb"/><path d="m195.91 136.65v116.57h-22.37v-108.79l17.84-6.2z" fill="#819fcc"/><path d="m189.94 360a56.76 56.76 0 0 1 6-3.29v156.29h-22.39v-138.27a63.17 63.17 0 0 1 16.39-14.73z" fill="#819fcc"/><g fill="#d1def5"><path d="m375.97 148.8h78.71v8.42h-78.71z" transform="matrix(-1 0 0 -1 830.65 306.02)"/><path d="m280.19 197.07 33.6-1.09v-42.97l-33.6 22.59z"/><path d="m375.97 176.36h78.71v8.42h-78.71z" transform="matrix(-1 0 0 -1 830.65 361.14)"/><path d="m375.97 203.92h78.71v8.42h-78.71z" transform="matrix(-1 0 0 -1 830.65 416.25)"/><path d="m375.97 231.48h78.71v8.42h-78.71z" transform="matrix(-1 0 0 -1 830.65 471.37)"/><path d="m375.97 259.03h78.71v8.42h-78.71z" transform="matrix(-1 0 0 -1 830.65 526.49)"/><path d="m375.97 286.59h78.71v8.42h-78.71z" transform="matrix(-1 0 0 -1 830.65 581.61)"/><path d="m375.97 314.15h78.71v8.42h-78.71z" transform="matrix(-1 0 0 -1 830.65 636.73)"/><path d="m375.97 341.71h78.71v8.42h-78.71z" transform="matrix(-1 0 0 -1 830.65 691.84)"/><path d="m375.97 369.27h78.71v8.42h-78.71z" transform="matrix(-1 0 0 -1 830.65 746.96)"/><path d="m375.97 396.83h78.71v8.42h-78.71z" transform="matrix(-1 0 0 -1 830.65 802.08)"/><path d="m375.97 424.39h78.71v8.42h-78.71z" transform="matrix(-1 0 0 -1 830.65 857.2)"/><path d="m375.97 451.95h78.71v8.42h-78.71z" transform="matrix(-1 0 0 -1 830.65 912.32)"/><path d="m375.97 479.51h78.71v8.42h-78.71z" transform="matrix(-1 0 0 -1 830.65 967.44)"/><path d="m280.19 209.53h33.6v68.13h-33.6z" transform="matrix(-1 0 0 -1 593.99 487.19)"/><path d="m280.19 293.35h33.6v68.13h-33.6z" transform="matrix(-1 0 0 -1 593.99 654.82)"/><path d="m280.19 377.16h33.6v68.13h-33.6z" transform="matrix(-1 0 0 -1 593.99 822.44)"/><path d="m280.19 456.16h33.6v41.5h-33.6z" transform="matrix(-1 0 0 -1 593.99 953.82)"/><path d="m100.49 150.53h15.75v8.54h-15.75z" transform="matrix(-1 0 0 -1 216.73 309.59)"/><path d="m222.17 169.84h-21.91v-24.98l21.91 10.28z"/><path d="m87.08 150.53v8.54h-14.69a83.32 83.32 0 0 1 1.53-8.54z"/><path d="m100.49 172.98h15.75v8.54h-15.75z" transform="matrix(-1 0 0 -1 216.73 354.5)"/><path d="m87.08 173v8.54h-14.51a82.6 82.6 0 0 1 -.77-8.54z"/><path d="m100.49 195.43h15.75v8.54h-15.75z" transform="matrix(-1 0 0 -1 216.73 399.41)"/><path d="m87.08 195.44v8.56h-8a79.1 79.1 0 0 1 -3.29-8.53z"/><path d="m100.49 217.89h15.75v8.54h-15.75z" transform="matrix(-1 0 0 -1 216.73 444.32)"/><path d="m87.08 217.89s0 0 0 0z"/><path d="m116.25 240.35v3.18q-2.75-1.46-5.36-3.1l-.13-.08z"/><path d="m200.26 177.25h21.91v12.29h-21.91z" transform="matrix(-1 0 0 -1 422.42 366.78)"/><path d="m214.12 198.26h8.05v12.29h-8.05z" transform="matrix(-1 0 0 -1 436.29 408.81)"/><path d="m200.26 198.26h8.05v12.29h-8.05z" transform="matrix(-1 0 0 -1 408.56 408.81)"/><path d="m200.26 222.54h21.91v12.29h-21.91z" transform="matrix(-1 0 0 -1 422.42 457.36)"/><path d="m214.11 243.55h8.05v9.67h-8.05z"/><path d="m200.26 243.55h8.05v9.67h-8.05z"/><path d="m200.26 357.69h21.91v12.29h-21.91z" transform="matrix(-1 0 0 -1 422.42 727.66)"/><path d="m214.12 378.7h8.05v12.29h-8.05z" transform="matrix(-1 0 0 -1 436.29 769.69)"/><path d="m200.26 378.7h8.05v12.29h-8.05z" transform="matrix(-1 0 0 -1 408.56 769.69)"/><path d="m200.26 402.62h21.91v12.29h-21.91z" transform="matrix(-1 0 0 -1 422.42 817.52)"/><path d="m214.12 423.63h8.05v12.29h-8.05z" transform="matrix(-1 0 0 -1 436.29 859.55)"/><path d="m200.26 423.63h8.05v12.29h-8.05z" transform="matrix(-1 0 0 -1 408.56 859.55)"/><path d="m200.26 447.55h21.91v12.29h-21.91z" transform="matrix(-1 0 0 -1 422.42 907.38)"/><path d="m214.12 468.56h8.05v12.29h-8.05z" transform="matrix(-1 0 0 -1 436.29 949.41)"/><path d="m200.26 468.56h8.05v12.29h-8.05z" transform="matrix(-1 0 0 -1 408.56 949.41)"/></g><g fill="#fff"><path d="m542.53 413v91.71a8.36 8.36 0 0 1 -8.34 8.35l-54.19-77.2-25.32-36.07-2.09-3-13.43-19.14-5.91-8.42-13.45-19.14-5.9-8.42-13.43-19.13-5.93-8.43-.74-1.06-8-11.43-4.67-6.62-5.13-7.33-33.15-47.2-23.85-33.95-7.35-10.47-19.85-28.25-7.44-10.61-22.67-32.3-5.61-8-21.69-30.89h78.61l21.7 30.91 5.59 8 6.21 8.84 29.93 42.63 5.9 8.42 3.46 4.93 8 11.44 1.95 2.77 5.92 8.42 13.43 19.14 5.91 8.4 13.46 19.1 5.92 8.42 13.42 19.18.89 1.25 25.31 36.07z" opacity=".51"/><path d="m519.47 513.03h-37.62l-1.85-2.62-35.12-50.04-5.92-8.42-13.44-19.14-5.9-8.42-13.44-19.14-5.92-8.42-6.45-9.19-6.99-9.95-1.03-1.48-4.87-6.94-38.1-54.25-23.82-33.95-5.2-7.4-33.61-47.86-6.44-9.17-45.35-64.61-8.03-11.44-11.03-15.7-5.59-7.97-21.71-30.91h37.62l.71 1 8.03 11.43 12.97 18.48 5.6 7.97 27.41 39.06 7.43 10.57 15.44 22 9.13 13.01 7.42 10.55 5.2 7.41 23.82 33.94 37.01 52.72 5.92 8.43.04.04 8.02 11.44 5.38 7.65 5.91 8.42 13.44 19.14 5.9 8.42 13.44 19.14 5.92 8.42 36.2 51.58z" opacity=".51"/><path d="m454.51 513h-23.25l-17.61-25.1-5.91-8.42-13.44-19.11-.49-.68-5.42-7.69-2.61-3.7-43-61.19-23.78-33.99-5.2-7.41-33.6-47.85-6.44-9.18-45.36-64.6-2.33-3.31-5.71-8.13-1.46-2.09-4.79-6.81-10-14.2-3.85-5.54-4.34-6.19-22.37-31.81-14.79-21.06-5.59-8-19.68-28a83.47 83.47 0 0 1 21.23-2.94l21.7 30.9 5.59 8 9.37 13.34 4.54 6.47 4.34 6.18 13.3 19 5.2 7.41 1.6 2.28 1.81 2.56 3.9 5.57 2.33 3.3 45.36 64.61 6.44 9.18 9.06 12.91 11 15.69 13.52 19.26 5.22 7.34 23.82 34 33.18 47.16 2.86 4.09 6.95 9.9 6.5 9.24 1.53 2.19 4.38 6.23 13.41 19.19 5.9 8.42 13.47 19.09 5.91 8.42z" opacity=".51"/></g><g fill="#6e8ec8"><path d="m548.13 116.92v8h-463.43a81.57 81.57 0 0 1 5.73-8z"/><path d="m226.07 350.33c.78 0 1.57-.1 2.33-.19v162.86h-8v-162.52h.27c.88 0 1.77-.06 2.65-.06.91-.01 1.84-.04 2.75-.09z"/><path d="m228.4 86.16v167.33c-.77-.08-1.55-.15-2.33-.18s-1.84-.09-2.77-.09h-2.94v-167.22z"/><path d="m385.78 86.01h8.03v427.02h-8.03z"/></g><path d="m98.49 651.21q2.73 2.22 5.34 4.55a181.8 181.8 0 0 1 16.25 16.24 186.79 186.79 0 0 1 29 43.9 187 187 0 0 1 18 80.12v39.46a91.88 91.88 0 0 1 -16 51.88h60.77a91.74 91.74 0 0 1 -16-51.88v-39.48a187.08 187.08 0 0 1 47-124 181.8 181.8 0 0 1 16.15-16.24q2.61-2.32 5.34-4.55z" fill="#547dba"/><path d="m98.49 651.21q2.73 2.22 5.34 4.55h15.53q-2.62-2.32-5.34-4.55z" fill="#34629b"/><rect fill="#6e8ec8" height="9.12" rx="4.56" transform="matrix(-1 0 0 -1 362.81 1783.84)" width="97.58" x="132.62" y="887.36"/><path d="m132.62 891.92a4.56 4.56 0 0 0 4.55 4.56h30.73a4.56 4.56 0 0 1 0-9.12h-30.73a4.56 4.56 0 0 0 -4.55 4.56z" fill="#547dba"/><rect fill="#6e8ec8" height="19" rx="9.5" transform="matrix(-1 0 0 -1 362.81 1292.53)" width="210.07" x="76.37" y="636.77"/><path d="m76.37 646.27a9.49 9.49 0 0 0 9.5 9.49h48.95a9.5 9.5 0 0 1 0-19h-48.95a9.49 9.49 0 0 0 -9.5 9.5z" fill="#547dba"/><path d="m103.83 655.76a181.8 181.8 0 0 1 16.25 16.24 186.79 186.79 0 0 1 29 43.9 187 187 0 0 1 18 80.12v39.46a91.88 91.88 0 0 1 -16 51.88h15.53a91.88 91.88 0 0 0 16-51.88v-39.48a187 187 0 0 0 -18-80.12l-.23-.48c-9.61-20.14 4.86-43.42 27.18-43.42h51.19a181.8 181.8 0 0 1 16.25-16.22z" fill="#34629b"/><path d="m696.54 651.21q2.73 2.22 5.34 4.55a181.8 181.8 0 0 1 16.25 16.24 187.13 187.13 0 0 1 47 124v39.46a91.81 91.81 0 0 1 -16.06 51.88h60.77a91.95 91.95 0 0 1 -16.05-51.88v-39.46a187 187 0 0 1 47-124 183 183 0 0 1 16.21-16.24q2.63-2.32 5.34-4.55z" fill="#547dba"/><path d="m696.54 651.21q2.73 2.22 5.34 4.55h15.53q-2.61-2.32-5.34-4.55z" fill="#34629b"/><rect fill="#6e8ec8" height="9.12" rx="4.56" transform="matrix(-1 0 0 -1 1558.92 1783.84)" width="97.58" x="730.67" y="887.36"/><path d="m730.67 891.92a4.56 4.56 0 0 0 4.55 4.56h30.78a4.56 4.56 0 0 1 0-9.12h-30.78a4.58 4.58 0 0 0 -4.55 4.56z" fill="#547dba"/><rect fill="#6e8ec8" height="19" rx="9.5" transform="matrix(-1 0 0 -1 1558.92 1292.53)" width="210.07" x="674.43" y="636.77"/><path d="m674.42 646.27a9.5 9.5 0 0 0 9.51 9.49h48.94a9.5 9.5 0 0 1 0-19h-48.94a9.51 9.51 0 0 0 -9.51 9.5z" fill="#547dba"/><path d="m701.88 655.76a181.8 181.8 0 0 1 16.25 16.24 187.13 187.13 0 0 1 47 124v39.46a91.81 91.81 0 0 1 -16.06 51.88h15.53a91.89 91.89 0 0 0 16.06-51.88v-39.46a187 187 0 0 0 -18-80.12c-.07-.16-.15-.32-.23-.48-9.63-20.12 4.84-43.4 27.16-43.4h51.2a183 183 0 0 1 16.21-16.24z" fill="#34629b"/><path d="m380.84 535.51q4 3.27 7.86 6.7a269.54 269.54 0 0 1 23.91 23.89 275.48 275.48 0 0 1 69.17 182.53v58.08a135.25 135.25 0 0 1 -23.63 76.35h89.43a135.15 135.15 0 0 1 -23.58-76.35v-58.08a275.37 275.37 0 0 1 69.12-182.53 269.54 269.54 0 0 1 23.88-23.89q3.86-3.44 7.86-6.7z" fill="#547dba"/><path d="m380.84 535.51q4 3.27 7.86 6.7h22.85q-3.85-3.44-7.86-6.7z" fill="#34629b"/><rect fill="#6e8ec8" height="13.42" rx="6.71" transform="matrix(-1 0 0 -1 1005.73 1779.54)" width="143.61" x="431.06" y="883.06"/><path d="m431.06 889.76a6.72 6.72 0 0 0 6.71 6.72h45.23a6.71 6.71 0 0 1 0-13.42h-45.23a6.73 6.73 0 0 0 -6.71 6.7z" fill="#547dba"/><rect fill="#6e8ec8" height="20.01" rx="10" transform="matrix(-1 0 0 -1 1005.73 1064.42)" width="432.86" x="286.44" y="522.21"/><path d="m286.44 532.21a10 10 0 0 0 10 10h118.09a10 10 0 0 1 0-20h-118.09a10 10 0 0 0 -10 10z" fill="#547dba"/><path d="m388.7 542.21a269.54 269.54 0 0 1 23.91 23.89 275.48 275.48 0 0 1 69.17 182.53v58.08a135.25 135.25 0 0 1 -23.63 76.35h22.85a135.25 135.25 0 0 0 23.63-76.35v-58.08a275.21 275.21 0 0 0 -26.51-117.91l-.34-.7c-14.14-29.64 7.15-63.92 40-63.92h75.34a269.54 269.54 0 0 1 23.88-23.89z" fill="#34629b"/><g fill="#d7e2ff"><path d="m410.77 509.06h4.29a4.1 4.1 0 0 1 4.1 4.1v2.39a0 0 0 0 1 0 0h-12.49a0 0 0 0 1 0 0v-2.39a4.1 4.1 0 0 1 4.1-4.1z"/><path d="m398.28 509.06h4.29a4.1 4.1 0 0 1 4.1 4.1v2.39a0 0 0 0 1 0 0h-12.49a0 0 0 0 1 0 0v-2.39a4.1 4.1 0 0 1 4.1-4.1z"/><path d="m385.79 509.06h4.29a4.1 4.1 0 0 1 4.1 4.1v2.39a0 0 0 0 1 0 0h-12.49a0 0 0 0 1 0 0v-2.39a4.1 4.1 0 0 1 4.1-4.1z"/><path d="m373.3 509.06h4.29a4.1 4.1 0 0 1 4.1 4.1v2.39a0 0 0 0 1 0 0h-12.49a0 0 0 0 1 0 0v-2.39a4.1 4.1 0 0 1 4.1-4.1z"/><path d="m360.82 509.06h4.29a4.1 4.1 0 0 1 4.1 4.1v2.39a0 0 0 0 1 0 0h-12.5a0 0 0 0 1 0 0v-2.39a4.1 4.1 0 0 1 4.11-4.1z"/><path d="m348.33 509.06h4.29a4.1 4.1 0 0 1 4.1 4.1v2.39a0 0 0 0 1 0 0h-12.49a0 0 0 0 1 0 0v-2.39a4.1 4.1 0 0 1 4.1-4.1z"/><path d="m335.84 509.06h4.29a4.1 4.1 0 0 1 4.1 4.1v2.39a0 0 0 0 1 0 0h-12.49a0 0 0 0 1 0 0v-2.39a4.1 4.1 0 0 1 4.1-4.1z"/></g><rect fill="#4970db" height="10.18" rx="5.09" width="142.53" x="315.14" y="512.04"/><path d="m418.41 522.21h118.92a10.88 10.88 0 0 0 10.55-8.21l23.18-92.09a10.88 10.88 0 0 0 -10.55-13.54h-105a10.88 10.88 0 0 0 -10.51 8.21z" fill="#5476ef"/><path d="m571.06 421.9-23.18 92.1a10.89 10.89 0 0 1 -10.55 8.22h-118.92l2.59-10.22h94a10.89 10.89 0 0 0 10.55-8.23l23.18-92.09a11 11 0 0 0 .31-3.36h11.46a10.89 10.89 0 0 1 10.56 13.58z" fill="#4970db"/><circle cx="502.18" cy="468.33" fill="#d7e2ff" r="5.95"/><path d="m510.15 477.24a11.66 11.66 0 1 1 -16.15-16.11 11.68 11.68 0 0 0 9.84 17.94 11.58 11.58 0 0 0 6.31-1.83z" fill="#d7e2ff"/><circle cx="229.82" cy="345.32" fill="#f4ad18" r="21.3"/><rect fill="#faeede" height="132.64" rx="25.5" transform="matrix(-.60903832 .79314079 -.79314079 -.60903832 822.77 552.94)" width="51" x="249.61" y="412.93"/><circle cx="307.43" cy="502.23" fill="#f2e6d7" r="27.36"/><g fill="#ffb2bf"><rect height="132.64" rx="21.05" transform="matrix(-.88466236 -.46623224 .46623224 -.88466236 409.3 1023.15)" width="42.11" x="310.13" y="394.64"/><rect height="59.96" rx="20.86" transform="matrix(.39810874 .91733823 -.91733823 .39810874 598.42 -82.67)" width="41.71" x="341.35" y="384.73"/><rect height="57.33" rx="7.54" transform="matrix(.39810874 .91733823 -.91733823 .39810874 587.02 -102.49)" width="15.09" x="364.07" y="367.45"/></g><rect fill="#e1303e" height="132.64" rx="25.5" transform="matrix(-.60903832 .79314079 -.79314079 -.60903832 822.77 552.94)" width="51" x="249.61" y="412.93"/><circle cx="307.43" cy="502.23" fill="#f63e4a" r="27.36"/><rect fill="#ffb2bf" height="132.64" rx="21.05" transform="matrix(-.88466236 -.46623224 .46623224 -.88466236 409.3 1023.15)" width="42.11" x="310.13" y="394.64"/><rect fill="#ffb2bf" height="59.96" rx="20.86" transform="matrix(.39810874 .91733823 -.91733823 .39810874 598.42 -82.67)" width="41.71" x="341.35" y="384.73"/><path d="m389.71 402.77a20.77 20.77 0 0 0 -2.89-4.79 20.65 20.65 0 0 1 .9 6 20.88 20.88 0 0 1 -12.56 19.14l-2 .88-7.93 3.44-5.77 11-34.46 65.32a21.06 21.06 0 0 1 -35.05 3.36 21.05 21.05 0 0 0 38.77 3.7l40.2-76.29 10-4.32a20.84 20.84 0 0 0 10.83-27.44z" fill="#fc9aaf"/><rect fill="#ffb2bf" height="57.33" rx="7.54" transform="matrix(.39810874 .91733823 -.91733823 .39810874 587.02 -102.49)" width="15.09" x="364.07" y="367.45"/><circle cx="228.39" cy="461.19" fill="#e1303e" r="39.96"/><rect fill="#f63e4a" height="120.54" rx="41.83" transform="matrix(.02268733 -.99974261 .99974261 .02268733 -358.09 706.05)" width="211.02" x="76.57" y="475.91"/><path d="m198 393.39a44.63 44.63 0 0 1 44.67 44.61v67.16a44.63 44.63 0 0 1 -44.67 44.65 73.63 73.63 0 0 1 -73.63-73.63v-9.18a73.63 73.63 0 0 1 73.63-73.61z" fill="#f63e4a" transform="matrix(.02268733 -.99974261 .99974261 .02268733 -292.1 644.4)"/><path d="m207.41 380.66-.86 38a22.06 22.06 0 0 1 -.94 5.9 21.81 21.81 0 0 1 -20.85 15.44h-.49a21.79 21.79 0 0 1 -21.27-22.31l.29-13 .57-25a21.78 21.78 0 0 1 21.78-21.29h.5a21.79 21.79 0 0 1 21.27 22.26z" fill="#ffb2bf"/><rect fill="#252849" height="225.4" rx="32.54" transform="matrix(.02268733 -.99974261 .99974261 .02268733 -380.9 827.67)" width="68.42" x="198.67" y="495.95"/><path d="m188.43 609.35v238.95h-68.43v-238.95a34.22 34.22 0 0 1 68.43 0z" fill="#30335d"/><path d="m188.43 818.88v29.42h-68.43v-18.67z" fill="#252849"/><path d="m429.54 824.93-61 24.45-6.9-17.86-82-208.24a34.21 34.21 0 1 1 63.83-24.64l77.82 197.36 8.23 21.3z" fill="#252849"/><path d="m381.55 840.49h51.32v28.12h-51.32z" fill="#fc9aaf" transform="matrix(.93289069 -.36015963 .36015963 .93289069 -280.41 203.98)"/><path d="m128.55 853.64h51.32v26.28h-51.32z" fill="#ffb2bf"/><path d="m207.41 380.66-.86 38a22.06 22.06 0 0 1 -.94 5.9c-.54 0-1.08 0-1.63 0a51.46 51.46 0 0 1 -40.71-19.95l.57-25a21.78 21.78 0 0 1 21.78-21.29h.5a21.79 21.79 0 0 1 21.29 22.34z" fill="#fc9aaf"/><path d="m245.25 359.78c0 30.28-21.58 55-48.75 56.6-.92.06-1.84.08-2.77.08-28.45 0-51.53-25.37-51.53-56.68s23.08-56.69 51.53-56.69c.93 0 1.85 0 2.77.08 27.17 1.58 48.75 26.33 48.75 56.61z" fill="#ffb2bf"/><path d="m223.21 370.74a14.43 14.43 0 0 1 -3.87 10.33c-.33.33-.66.66-1 1a14.4 14.4 0 0 1 -9.05 3.59h-.58a14.41 14.41 0 0 1 -14.8-12.73c0-.39-.07-.79-.09-1.19a2.8 2.8 0 0 1 .75-2 2.83 2.83 0 0 1 2-.89l23.8-.8a2.8 2.8 0 0 1 2.84 2.69z" fill="#962f4a"/><path d="m208.92 383.42a11 11 0 0 1 -.14 2.23h-.08a14.4 14.4 0 0 1 -14.79-12.73 11.17 11.17 0 0 1 3.18-.56 11.45 11.45 0 0 1 11.83 11.06z" fill="#e1617f"/><path d="m219.79 368.06c0 2.83-4.29 5.24-9.65 5.42s-9.79-1.94-10-4.76z" fill="#fff"/><path d="m245.25 359.78c0 30.28-21.58 55-48.75 56.6-.92.06-1.84.08-2.78.08a47.84 47.84 0 0 1 -5.1-.27c26.08-2.8 46.45-27 46.45-56.41s-20.37-53.61-46.45-56.41a47.83 47.83 0 0 1 5.1-.28c.94 0 1.86 0 2.78.08 27.17 1.58 48.75 26.33 48.75 56.61z" fill="#fc9aaf"/><path d="m151.17 454.49v.53c-.5 17-11.85 30.52-25.71 30.72h-.89c-14.42-.38-25.87-15-25.58-32.64.16-9.77 2.23-17.67 8-23.38a32.2 32.2 0 0 1 11.94-7 21.45 21.45 0 0 1 6.71-.88 21.11 21.11 0 0 1 4.51.6c12.17 2.95 21.27 16.29 21.02 32.05z" fill="#e1303e"/><path d="m152.2 453.83v.54c-.44 12.29-6.49 22.79-15.08 27.94a36.33 36.33 0 0 0 7.16-20.75c0-.19 0-.37 0-.55.35-16-9-29.51-21.55-32.44a21.77 21.77 0 0 0 -4.65-.59 22.86 22.86 0 0 0 -6.92.93 24.19 24.19 0 0 0 -5.58 2.48 26.68 26.68 0 0 1 13.5-9.66 22.55 22.55 0 0 1 6.92-.93 22.25 22.25 0 0 1 4.65.58c12.58 2.93 21.9 16.44 21.55 32.45z" fill="#e1303e"/><rect fill="#f63e4a" height="132.64" rx="25.5" transform="matrix(-.90682344 -.42151068 .42151068 -.90682344 -14.9 982.72)" width="51" x="75.66" y="426.69"/><path d="m142.46 447.66a25.5 25.5 0 0 0 -44.66 2.9l-34.41 74a25.42 25.42 0 0 0 -1 19.06 25.45 25.45 0 0 1 -1.58-24.38l34.41-74a25.49 25.49 0 0 1 47.22 2.41z" fill="#f56"/><circle cx="85.44" cy="529.89" fill="#e1303e" r="27.36"/><rect fill="#ffc535" height="49.37" rx="24.68" width="126.26" x="132.02" y="293.44"/><circle cx="146.43" cy="345.32" fill="#ffc535" r="21.3"/><circle cx="142.77" cy="359.78" fill="#ffb2bf" r="17.07"/><path d="m188.42 893h-65.21a32.61 32.61 0 0 1 65.21 0z" fill="#e1303e"/><path d="m188.42 893h-15.06a33.91 33.91 0 0 0 -23.08-32.13 32.62 32.62 0 0 1 38.14 32.13z" fill="#f63e4a"/><path d="m197.45 887.08a9.85 9.85 0 0 1 -.19 1.89c-.07.31-.14.61-.23.9s-.21.58-.32.86a9.35 9.35 0 0 1 -1.41 2.33q-.28.35-.6.66-.31.32-.66.6a9.41 9.41 0 0 1 -6 2.15h-69.58a7.08 7.08 0 0 1 -.35-14.16l52.17-3.48 17.31-1.15a9.38 9.38 0 0 1 4.52.9 9.65 9.65 0 0 1 1.17.68 11 11 0 0 1 1.07.84 7.22 7.22 0 0 1 .93 1c.19.23.38.47.55.72a9.45 9.45 0 0 1 1.5 3.83 9.76 9.76 0 0 1 .12 1.43z" fill="#e1303e"/><path d="m197.45 887.08a9.85 9.85 0 0 1 -.19 1.89 8.46 8.46 0 0 1 -.23.9c-.1.3-.2.58-.32.86a9.35 9.35 0 0 1 -1.41 2.33q-.28.35-.6.66-.31.32-.66.6a9.41 9.41 0 0 1 -6 2.15h-22.31a9.41 9.41 0 0 0 4.55-17.64l17.31-1.15a9.38 9.38 0 0 1 4.52.9 8.49 8.49 0 0 1 1.17.68 7.75 7.75 0 0 1 1.07.84 7.22 7.22 0 0 1 .93 1 7.61 7.61 0 0 1 .55.72 9.45 9.45 0 0 1 1.5 3.83 9.76 9.76 0 0 1 .12 1.43z" fill="#f63e4a"/><path d="m388.48 853.53h47.59a0 0 0 0 1 0 0v21.47a0 0 0 0 1 0 0h-56.82a0 0 0 0 1 0 0v-12.24a9.23 9.23 0 0 1 9.23-9.23z" fill="#f63e4a" transform="matrix(.92186315 -.38751559 .38751559 .92186315 -303.06 225.51)"/><path d="m477.6 853.5-60.11 25.27a32.6 32.6 0 1 1 60.11-25.27z" fill="#e1303e"/><path d="m477.6 853.49-16.89 7.1a32.62 32.62 0 0 0 -33.71-19.76 32.61 32.61 0 0 1 50.63 12.66z" fill="#f63e4a"/><path d="m381.64 882.27 86.36-41.33a9.4 9.4 0 0 1 12.72 4.84 9.39 9.39 0 0 1 -5 12.31l-88.25 37.1a7.09 7.09 0 0 1 -9.28-3.78 7.09 7.09 0 0 1 3.45-9.14z" fill="#e1303e"/><path d="m480.72 845.79a9.4 9.4 0 0 1 -5 12.31l-20.57 8.64a9.28 9.28 0 0 0 5.06-5.11 9.39 9.39 0 0 0 -8.35-13l16.14-7.69a9.4 9.4 0 0 1 12.72 4.85z" fill="#f63e4a"/><rect fill="#fc9aaf" height="38.58" rx="7.54" transform="matrix(-.09115401 .99583681 -.99583681 -.09115401 732.91 374.72)" width="15.09" x="187.92" y="502.5"/><circle cx="181.53" cy="527.07" fill="#fc9aaf" r="14.86"/><g fill="#ffb2bf"><rect height="132.64" rx="21.05" transform="matrix(-.00994821 -.99995052 .99995052 -.00994821 -404.16 667.06)" width="42.11" x="107.12" y="467.31"/><rect height="59.96" rx="20.86" transform="matrix(-.61813404 .78607271 -.78607271 -.61813404 720.74 727.83)" width="41.71" x="162.75" y="508.98"/><rect height="57.33" rx="7.54" transform="matrix(-.61813404 .78607271 -.78607271 -.61813404 754.01 710.56)" width="15.09" x="196.89" y="509.74"/></g><rect fill="#fc9aaf" height="38.58" rx="7.54" transform="matrix(-.09115401 .99583681 -.99583681 -.09115401 732.91 374.72)" width="15.09" x="187.92" y="502.5"/><circle cx="181.53" cy="527.07" fill="#fc9aaf" r="14.86"/><rect fill="#ffb2bf" height="132.64" rx="21.05" transform="matrix(-.00994821 -.99995052 .99995052 -.00994821 -404.16 667.06)" width="42.11" x="107.12" y="467.31"/><rect fill="#ffb2bf" height="59.96" rx="20.86" transform="matrix(-.61813404 .78607271 -.78607271 -.61813404 720.74 727.83)" width="41.71" x="162.75" y="508.98"/><path d="m209.25 552.22a20.87 20.87 0 0 1 -29.29 3.5l-2.41-1.89-6.13-4.83-8.65.08-77.57.76a21 21 0 0 1 -21.26-20.84v-.21a21.06 21.06 0 0 1 .61-5.06 20.88 20.88 0 0 0 -2.71 10.33v.21a21.05 21.05 0 0 0 21.26 20.86l86.22-.86 8.55 6.72a20.86 20.86 0 0 0 33.13-11.4 20.44 20.44 0 0 1 -1.75 2.63z" fill="#fdc3cd"/><rect fill="#ffb2bf" height="57.33" rx="7.54" transform="matrix(-.61813404 .78607271 -.78607271 -.61813404 754.01 710.56)" width="15.09" x="196.89" y="509.74"/><path d="m429.54 824.93-60.99 24.45-6.9-17.86 59.64-35.51 8.22 21.3z" fill="#171a33"/><path d="m188.42 853.79h-68.42l-6.98-17.59 87.86-13.79z" fill="#30335d"/><circle cx="125.68" cy="846.46" fill="#141334" r="4.27"/><circle cx="125.43" cy="847.62" fill="#666da2" r="3.12"/><path d="m125.43 849.65a1.84 1.84 0 0 1 -.41.05 2.08 2.08 0 1 1 0-4.16 1.84 1.84 0 0 1 .41 0 2.08 2.08 0 0 0 0 4.07z" fill="#332d52"/><path d="m125 845a2.35 2.35 0 0 1 .54-.06 2.66 2.66 0 0 1 0 5.31 3.1 3.1 0 0 1 -.54 0 2.66 2.66 0 0 0 0-5.2z" fill="#9da5d1"/><path d="m434.65 829.09-63.51 25.46-13.02-13.73 76.42-45.49z" fill="#252849"/><circle cx="373.35" cy="843.06" fill="#141334" r="4.27"/><circle cx="373.1" cy="844.21" fill="#666da2" r="3.12"/><path d="m373.1 846.25a2.71 2.71 0 0 1 -.41 0 2.08 2.08 0 1 1 0-4.16 2.71 2.71 0 0 1 .41 0 2.09 2.09 0 0 0 0 4.08z" fill="#332d52"/><path d="m372.62 841.61a2.35 2.35 0 0 1 .54-.06 2.66 2.66 0 0 1 0 5.32 2.35 2.35 0 0 1 -.54-.06 2.66 2.66 0 0 0 0-5.2z" fill="#9da5d1"/><path d="m137.13 359.24a8.25 8.25 0 0 0 5.05 7.61 2.37 2.37 0 0 0 3.21-2.24v-10.74a2.41 2.41 0 0 0 -3.43-2.16 8.27 8.27 0 0 0 -4.83 7.53z" fill="#f9a0b4"/><rect fill="#ffb2bf" height="38.58" rx="7.54" transform="matrix(.83301781 .55324617 -.55324617 .83301781 278.01 -129)" width="15.09" x="345.18" y="376.82"/><circle cx="350.76" cy="410.88" fill="#ffb2bf" r="14.86"/><ellipse cx="185.18" cy="542.33" fill="#f9e0e5" rx="9.14" ry="11.47" transform="matrix(.70710678 -.70710678 .70710678 .70710678 -329.24 289.78)"/><rect fill="#ffc535" height="27.61" rx="13.8" transform="matrix(-1 0 0 -1 421.4 594.35)" width="69.11" x="176.15" y="283.37"/><path d="m180.14 287.47h39.7a13.77 13.77 0 0 1 9.76 4 14.83 14.83 0 0 1 1.62 1.92 13.79 13.79 0 0 1 2.4 7 24.76 24.76 0 0 1 5.83 4.33 22.84 22.84 0 0 1 1.85 2.09 24.4 24.4 0 0 1 5.38 15.35 24.68 24.68 0 0 1 -10.93 20.51 24.69 24.69 0 0 0 9.48-46.37 13.8 13.8 0 0 0 -13.78-13h-41.45a13.76 13.76 0 0 0 -9.86 4.17z" fill="#fcd277"/><circle cx="191.66" cy="356.77" fill="#252849" r="4.32"/><circle cx="235.18" cy="356.77" fill="#252849" r="4.32"/><g fill="none" stroke="#252849" stroke-miterlimit="10" stroke-width="2.27"><circle cx="240.59" cy="356.77" r="22.03"/><circle cx="188.62" cy="356.77" r="22.03"/><path d="m218.58 357.63h-7.95"/></g><rect fill="#fcd277" height="24.82" rx="12.41" width="63.47" x="158.02" y="305.71"/><circle cx="826.72" cy="431.31" fill="#e1303e" r="34.59"/><path d="m718.64 465.07a28.1 28.1 0 0 0 1.41 3.79 29.46 29.46 0 0 0 35.19 16.14l75-22.12a29.47 29.47 0 1 0 -16.67-56.54l-75 22.12a29.46 29.46 0 0 0 -19.93 36.61z" fill="#fff"/><path d="m720.05 468.86a29.46 29.46 0 0 0 35.19 16.14l75-22.12a29.47 29.47 0 0 0 19.54-18.69 34.41 34.41 0 0 1 -16.21 9.33l-51.83 13.52-11.85 3.1c-.76.21-1.49.36-2.25.52s-1.54.61-2.34.89a47.28 47.28 0 0 1 -30.53 0 46.62 46.62 0 0 1 -14.72-2.69z" fill="#e9fffe"/><g fill="#f5b5a9"><rect height="35.14" rx="17.57" transform="matrix(-.87 -.49 .49 -.87 986.55 1052.22)" width="53.75" x="605.43" y="378.19"/><rect height="27.82" rx="13.91" transform="matrix(-.31448953 -.94926094 .94926094 -.31448953 551.21 1132.94)" width="53.75" x="657.84" y="353.52"/><rect height="49.17" rx="24.58" transform="matrix(-.86940871 -.49409361 .49409361 -.86940871 1022.76 1015.26)" width="68.61" x="611.22" y="347.91"/><rect height="163.99" rx="36.69" transform="matrix(.63594354 -.77173559 .77173559 .63594354 -70.76 692.48)" width="73.38" x="661.86" y="339.23"/><rect height="35.14" rx="17.57" transform="matrix(-.87 -.49 .49 -.87 986.55 1052.22)" width="53.75" x="605.43" y="378.19"/></g><path d="m761.83 473.38a36.53 36.53 0 0 0 8.22-19.93 36.74 36.74 0 0 1 -58.5 17.83l-65.78-54.2-4.16-3.42a35.58 35.58 0 0 1 -3.4-3.19 17.28 17.28 0 0 1 -5.14-1.92l-3.3-1.88-12.86-7.31a17.33 17.33 0 0 1 -6.47-6.36 17.66 17.66 0 0 1 -2.43-8.58 17.54 17.54 0 0 0 7.53 22l16.18 9.2a17.83 17.83 0 0 0 5.16 1.95 37.44 37.44 0 0 0 3.37 3.15l69.93 57.63a36.7 36.7 0 0 0 51.65-4.97z" fill="#f8cdc5"/><path d="m819.43 352.69h45.32v38.85h-45.32z" fill="#f5b5a9" transform="matrix(.04588604 -.99894668 .99894668 .04588604 431.66 1196.22)"/><ellipse cx="801.23" cy="299.28" fill="#f4ad18" rx="23.87" ry="11.89" transform="matrix(.04588604 -.99894668 .99894668 .04588604 465.43 1085.91)"/><path d="m862.54 350.38-.62 13.54a55.08 55.08 0 0 1 -30.66 18.08 53.5 53.5 0 0 1 -9.12 1.09l1.59-34.5z" fill="#f29495"/><path d="m885.47 300.91-2.47 23.95a55.07 55.07 0 0 1 -60.54 49 33.13 33.13 0 0 1 -29.48-36.41l3.58-34 .6-5.75.23-2.11.65-6.27a27.58 27.58 0 0 1 30.33-24.55l5.94.62 24.48 2.61a30 30 0 0 1 26.68 33z" fill="#f5b5a9"/><path d="m877.94 301.77c-6.74 15.32-33.47 18.39-59.72 6.86a82.81 82.81 0 0 1 -20.88-13.05l.65-6.27a27.58 27.58 0 0 1 30.33-24.55l5.94.62 24.53 2.62a30 30 0 0 1 9.16 2.46c9.84 10.29 14.05 21.99 9.99 31.31z" fill="#f29495"/><circle cx="841.29" cy="317.2" fill="#252849" r="3.81"/><circle cx="814.37" cy="315.96" fill="#252849" r="3.81"/><path d="m814 331a11.32 11.32 0 0 0 3.53 7.91c.27.25.55.49.83.71a11.3 11.3 0 0 0 7.27 2.39h.46a11.32 11.32 0 0 0 11-10.69c0-.31 0-.62 0-.94a2.17 2.17 0 0 0 -.69-1.53 2.13 2.13 0 0 0 -1.56-.6l-18.71.52a2.19 2.19 0 0 0 -2.13 2.23z" fill="#962f4a"/><path d="m825.77 340.24a9 9 0 0 0 .23 1.76h.06a11.3 11.3 0 0 0 11-10.69 9 9 0 0 0 -11.26 9z" fill="#e1617f"/><path d="m816.51 328.72c.15 2.21 3.62 3.9 7.83 3.78s7.58-2 7.61-4.21z" fill="#fff"/><path d="m865.3 293.62h23.23a0 0 0 0 1 0 0v46.05a0 0 0 0 1 0 0h-2a21.22 21.22 0 0 1 -21.22-21.22v-24.83a0 0 0 0 1 -.01 0z" fill="#ffc535" transform="matrix(1 .05 -.05 1 15.48 -39.97)"/><circle cx="878.74" cy="329.22" fill="#f5b5a9" r="14.01"/><path d="m883 327.82a6.06 6.06 0 0 1 -3.2 5.88 1.73 1.73 0 0 1 -2.48-1.43l-.68-7.84a1.76 1.76 0 0 1 2.36-1.79 6 6 0 0 1 4 5.18z" fill="#f29495"/><circle cx="878.63" cy="281.55" fill="#ffc535" r="25.28"/><path d="m903.88 282.71a25.19 25.19 0 0 1 -9.71 18.76 25.27 25.27 0 0 0 -34-37.18 25.28 25.28 0 0 1 43.73 18.42z" fill="#f4ad18"/><ellipse cx="834.78" cy="269.61" fill="#ffc535" rx="31.71" ry="55.29" transform="matrix(.33660226 -.94164692 .94164692 .33660226 299.97 964.98)"/><ellipse cx="834.78" cy="269.61" fill="#fcd277" rx="19.44" ry="33.89" transform="matrix(.33660226 -.94164692 .94164692 .33660226 299.97 964.98)"/><path d="m794.19 281.57c-5.57-7.8-7.66-16-5.08-23.22 5.89-16.49 34-21.54 62.74-11.25 12.16 4.34 22.5 10.73 29.92 17.9-7.18-10.06-20.13-19.47-36.32-25.25-28.76-10.28-56.84-5.24-62.74 11.25-3.4 9.52 1.29 20.78 11.48 30.57z" fill="#fcd277"/><path d="m767.21 391.93h109.26a0 0 0 0 1 0 0v123.7a60 60 0 0 1 -60 60h-21.16a28.1 28.1 0 0 1 -28.1-28.1v-155.6a0 0 0 0 1 0 0z" fill="#f63e4a" transform="matrix(-.99894668 -.04588604 .04588604 -.99894668 1620.57 1004.86)"/><rect fill="#f63e4a" height="27.54" rx="13.77" transform="matrix(-.99894668 -.04588604 .04588604 -.99894668 1659.39 825.46)" width="85.8" x="796.29" y="379.88"/><path d="m665.73 841.14h22.39v45.67h-22.39z" fill="#f9a0b4" transform="matrix(-.03210854 .99948439 -.99948439 -.03210854 1562.21 215.15)"/><path d="m671.51 835.55h11.2v45.67h-11.2z" fill="#f492ac" transform="matrix(-.03 1 -1 -.03 1556.8 209.2)"/><path d="m679.87 879.9-44.87 2.44a22.49 22.49 0 1 1 44.91-2.44z" fill="#30335d"/><path d="m630.4 887.82-.07-6.9a5.64 5.64 0 0 1 5.24-5.69l59-4.31a7.06 7.06 0 0 1 7.58 7l.13 12.77z" fill="#fdbf48"/><path d="m702.26 886.84v4.14a4.76 4.76 0 0 1 -4.72 4.82l-63.86.68a7.79 7.79 0 0 1 -7.88-7.72 7.81 7.81 0 0 1 7.72-7.89l17.88-.19a6.7 6.7 0 0 1 6.77 6.63z" fill="#30335d"/><path d="m707.88 850.69-3.07-247.8a30.85 30.85 0 0 0 -31-30.74h-.81a30.85 30.85 0 0 0 -30.74 31l3.07 247.8a4.69 4.69 0 0 0 4.72 4.68l53.12-.19a4.7 4.7 0 0 0 4.71-4.75z" fill="#252849"/><path d="m677.5 571.72h113.77a12.43 12.43 0 0 1 12.43 12.43v10.5a43.05 43.05 0 0 1 -43.05 43.05h-83.15a33 33 0 0 1 -33-33 33 33 0 0 1 33-33z" fill="#252849" transform="matrix(.99991884 -.01274056 .01274056 .99991884 -7.65 9.28)"/><path d="m873.22 592.74a43.62 43.62 0 0 1 -12.46 31.26 40.77 40.77 0 0 1 -26.08 12.21h-.45c-.7 0-1.4.07-2.11.08l-80.42 1a31.29 31.29 0 0 1 -22.7-9.29 33.23 33.23 0 0 1 -8.58-15.15 33.94 33.94 0 0 1 -1-7.54c-.51-18.42 14.25-33.69 32.08-33.92l121.46-1.55z" fill="#30335d"/><path d="m533.05 830.94h28.97v46.13h-28.97z" fill="#ffb2bf" transform="matrix(-.62796306 .77824315 -.77824315 -.62796306 1555.99 964.26)"/><path d="m548.88 823.37h9.52v46.13h-9.52z" fill="#f9a0b4" transform="matrix(-.62796306 .77824315 -.77824315 -.62796306 1560.04 947.18)"/><path d="m539.49 871.8-37.19-25.3a22.49 22.49 0 0 1 37.19 25.3z" fill="#30335d"/><path d="m495.36 848.1 4.12-5.53a5.65 5.65 0 0 1 7.62-1.35l49.55 32.36a7.06 7.06 0 0 1 1.8 10.13l-7.64 10.29z" fill="#fdbf48"/><path d="m553.09 890.9-2.46 3.3a4.79 4.79 0 0 1 -6.71 1l-51.18-38.2a7.8 7.8 0 0 1 -1.58-10.92 7.79 7.79 0 0 1 10.92-1.59l14.33 10.69a6.69 6.69 0 0 1 1.37 9.37z" fill="#30335d"/><path d="m774.29 622.08-1 1.23-11.21 13.9-57.33 71-121 150.22a6.82 6.82 0 0 1 -9.59 1l-38-30.69a6.82 6.82 0 0 1 -1-9.59l88.51-109.93 80.48-99.72 21.58-26.73a31.15 31.15 0 0 1 23.94-11.63 30.09 30.09 0 0 1 3.42.14 31.26 31.26 0 0 1 21.28 50.74z" fill="#30335d"/><circle cx="841.18" cy="441.55" fill="#e1303e" r="34.59"/><path d="m809.84 550.36a29.5 29.5 0 0 0 36.8-19.57l22.84-74.79a29.47 29.47 0 1 0 -56.37-17.21l-22.85 74.78a29.48 29.48 0 0 0 19.58 36.79z" fill="#fff"/><path d="m813.78 551.27a29.48 29.48 0 0 0 32.86-20.48l22.84-74.79a29.47 29.47 0 0 0 -4.84-26.6 34.46 34.46 0 0 1 -1.13 18.67l-17.27 50.71-4 11.61c-.24.74-.52 1.44-.8 2.16s-.33 1.62-.54 2.44a47.35 47.35 0 0 1 -16.81 25.49 46.81 46.81 0 0 1 -10.31 10.79z" fill="#f9e8ea"/><circle cx="809.16" cy="527.07" fill="#e1303e" r="42.11"/><g fill="#f5b5a9"><rect height="35.14" rx="17.57" transform="matrix(-1 -.04 .04 -1 1368.39 1078.01)" width="53.75" x="668.01" y="507.87"/><rect height="27.82" rx="13.91" transform="matrix(-.71520497 -.69891476 .69891476 -.71520497 916.56 1325.9)" width="53.75" x="701.56" y="462.29"/><rect height="49.17" rx="24.58" transform="matrix(-.99921527 -.03960861 .03960861 -.99921527 1371.57 1024.59)" width="68.61" x="661.64" y="474.11"/><rect height="163.99" rx="36.69" transform="matrix(.21064238 -.97756319 .97756319 .21064238 98.22 1156.92)" width="73.38" x="728.74" y="435.65"/><rect height="35.14" rx="17.57" transform="matrix(-1 -.04 .04 -1 1368.39 1078.01)" width="53.75" x="668.01" y="507.87"/></g><path d="m845.58 534.91a36.47 36.47 0 0 0 -1.84-21.47 36.75 36.75 0 0 1 -43.74 42.7l-83.33-17.95-5.26-1.13a34 34 0 0 1 -4.48-1.27 16.68 16.68 0 0 1 -5.45.65l-3.8-.15-14.78-.59a17.39 17.39 0 0 1 -8.67-2.67 17.64 17.64 0 0 1 -6.1-6.51 17.56 17.56 0 0 0 16.8 16.1l18.6.74a18 18 0 0 0 5.47-.64 40 40 0 0 0 4.45 1.25l88.55 19.08a36.67 36.67 0 0 0 43.58-28.14z" fill="#f8cdc5"/></svg>