<svg viewBox="0 0 1000 1000" xmlns="http://www.w3.org/2000/svg"><path d="m972.14 652.74v10.41a132.5 132.5 0 0 1 -77.88 120.68 128.46 128.46 0 0 1 -15 5.71 132.52 132.52 0 0 1 -39.55 6h-53.71a27.32 27.32 0 0 0 -27.31 27.32v101.92h-456.69v-101.91a27.26 27.26 0 0 0 -17.36-25.43c-.77-.3-1.55-.57-2.35-.81a27.18 27.18 0 0 0 -3-.68 26 26 0 0 0 -4.61-.4h-90.38c-1.43 0-2.84 0-4.26-.06a137.22 137.22 0 0 1 -84.32-32.24q-4.53-3.81-8.71-8a137.56 137.56 0 0 1 97.29-234.91h106.05a35.76 35.76 0 1 0 0-71.51h-178.88a83.6 83.6 0 0 1 -59.11-142.73c.29-.29.58-.58.88-.86a83.21 83.21 0 0 1 58.23-23.63 69.19 69.19 0 0 0 46.53-17.93c1.07-1 2.1-2 3.11-3a69 69 0 0 0 19.53-43.82c.1-1.5.15-3 .15-4.54v-70.6a27.31 27.31 0 0 1 27.31-27.32h636.57a83.62 83.62 0 0 1 80.09 59.6 84.59 84.59 0 0 1 3.52 24c0 2.9-.15 5.76-.43 8.58a84.6 84.6 0 0 1 -1.7 10.27 83.64 83.64 0 0 1 -81.48 64.75h-68a48.59 48.59 0 0 0 -48.6 48.59 48.6 48.6 0 0 0 48.6 48.59c.89 0 1.77 0 2.65.06a63 63 0 0 1 60.36 63v43a43.92 43.92 0 0 0 31.32 42.09 189.31 189.31 0 0 1 23.28 8.62c21 9.42 43.61 24.48 59 48.42a112.89 112.89 0 0 1 13.13 28.38 137.49 137.49 0 0 1 5.73 40.39z" fill="#f3f4fe"/><g fill="#d2d6fa"><rect height="17.61" rx="8.8" transform="matrix(-1 0 0 -1 221.75 1867.16)" width="74.06" x="73.85" y="924.77"/><rect height="17.61" rx="8.8" transform="matrix(-1 0 0 -1 1120.09 1867.16)" width="809.94" x="155.08" y="924.77"/><path d="m521.49 251.12v673.66h-219.49v-101.91a27.26 27.26 0 0 0 -17.36-25.43c-.77-.3-1.55-.57-2.35-.81a27.18 27.18 0 0 0 -3-.68 26 26 0 0 0 -4.61-.4h-9.68v-275.21h25.36a35.76 35.76 0 1 0 0-71.51h-25.36v-197.71a12.41 12.41 0 0 1 12.41-12.4h231.67a12.41 12.41 0 0 1 12.41 12.4z"/></g><g fill="#b7bfed"><path d="m279.26 520.34v275.66a27.18 27.18 0 0 1 3 .68v-276.34zm0-254.48v183h3v-180a5.18 5.18 0 0 1 5.19-5.18h211.55a5.18 5.18 0 0 1 5.19 5.18v654.42h-202.19v1.5h205.23v-658.92a5.18 5.18 0 0 0 -5.19-5.18h-217.59a5.18 5.18 0 0 0 -5.19 5.18z"/><path d="m324.5 305.24h138.29v11.3h-138.29z"/><path d="m324.5 341.03h138.29v11.3h-138.29z"/><path d="m324.5 376.82h138.29v11.3h-138.29z"/><path d="m276.43 597.02h71.47v11.3h-71.47z" transform="matrix(0 1 -1 0 914.83 290.5)"/></g><path d="m239.13 520.34v275.21h-54.83c-1.43 0-2.84 0-4.26-.06a137.22 137.22 0 0 1 -84.32-32.24q-4.53-3.81-8.71-8a137.56 137.56 0 0 1 97.29-234.91z" fill="#d2d6fa"/><path d="m239.13 251.12v197.71h-127.66a83.6 83.6 0 0 1 -59.11-142.73c.29-.29.58-.58.88-.86a83.21 83.21 0 0 1 58.23-23.63 69.19 69.19 0 0 0 46.53-17.93c1.07-1 2.1-2 3.11-3a69.28 69.28 0 0 0 14.47-22h51.16a12.41 12.41 0 0 1 12.39 12.44z" fill="#d2d6fa"/><g fill="#b7bfed"><path d="m161.09 260.68c-1 1-2 2-3.11 3h58.69a5.18 5.18 0 0 1 5.19 5.18v180h3v-183a5.18 5.18 0 0 0 -5.19-5.18zm60.77 259.66v275.21h3v-275.21z"/><path d="m180.42 305.24v11.3h-136.92a83.29 83.29 0 0 1 8.86-10.44c.29-.29.58-.58.88-.86z"/><path d="m42.13 341.03h138.29v11.3h-138.29z"/><path d="m42.13 376.82h138.29v11.3h-138.29z"/><path d="m927.85 206.59a84.6 84.6 0 0 1 -1.7 10.27h-745.53c.1-1.5.15-3 .15-4.54v-5.73z"/><path d="m927.51 186.72h-746.74v-29.17h737.08a83.77 83.77 0 0 1 6.91 16.45 81.76 81.76 0 0 1 2.75 12.72z"/></g><path d="m486 447.79h13.51v80.32h-13.51z" fill="#604970"/><circle cx="492.75" cy="525" fill="#836b96" r="13.2"/><path d="m382.77 810.04h45.93v55.95h-45.93z" fill="#f29495" transform="matrix(.65934582 -.75183981 .75183981 .65934582 -491.84 590.53)"/><path d="m398.47 802.93h27.01v55.95h-27.01z" fill="#e5888c" transform="matrix(.65934582 -.75183981 .75183981 .65934582 -484.37 592.79)"/><path d="m375.05 832.78 26.55 19.87a35.56 35.56 0 0 1 36.4 57.67l-53.48-46.9-26.65-23.42 5.26-6a8.82 8.82 0 0 1 11.92-1.22z" fill="#604970"/><path d="m431.86 857.85a35.58 35.58 0 0 1 .65 47.63l5.53 4.84a35.57 35.57 0 0 0 -3.3-50.2 32.61 32.61 0 0 0 -2.88-2.27z" fill="#836b96"/><path d="m349.43 839.55a5.47 5.47 0 0 0 0 7.25 4.89 4.89 0 0 0 .5.52l79.75 69.94a6.9 6.9 0 0 0 .7.54 8.35 8.35 0 0 0 10.95-12.48 7.64 7.64 0 0 0 -1-.9l-3.21-2.53-9.12-7.19-4.27-3.36-9.15-7.19-4.26-3.35-9.16-7.2-4.26-3.35-9.15-7.2-4.27-3.35-9.15-7.2-4.26-3.35-9.17-7.15-3.9-3.14a3.64 3.64 0 0 0 -.35-.24 5.47 5.47 0 0 0 -7.19.93z" fill="#3c1c39"/><g fill="#604970"><path d="m437.15 901.89-10.86 12.38 4.07 3.57 11-12.52a7.64 7.64 0 0 0 -1-.9z"/><path d="m423.72 891.34-10.25 11.69 4.08 3.58 10.44-11.91z"/><path d="m410.31 880.8-9.65 11 4.08 3.57 9.83-11.22z"/><path d="m396.89 870.25-9.04 10.31 4.07 3.57 9.23-10.53z"/><path d="m383.47 859.7-8.44 9.62 4.08 3.57 8.63-9.84z"/><path d="m370.06 849.15-7.84 8.94 4.07 3.57 8.03-9.16z"/><path d="m356.62 838.62-7.22 8.23 4.08 3.57 7.42-8.42-3.9-3.14a3.64 3.64 0 0 0 -.38-.24z"/></g><path d="m510.06 567.78a36.21 36.21 0 0 1 36.21 36.22v260.72a3.91 3.91 0 0 1 -3.91 3.91h-64.61a3.91 3.91 0 0 1 -3.91-3.91v-260.72a36.21 36.21 0 0 1 36.21-36.21z" fill="#3c1c39" transform="matrix(.75 .66 -.66 .75 600.12 -158.07)"/><path d="m565.17 415.23h72.43a0 0 0 0 1 0 0v220.48a36.21 36.21 0 0 1 -36.21 36.21 36.21 36.21 0 0 1 -36.21-36.21v-220.48a0 0 0 0 1 0 0z" fill="#3c1c39" transform="matrix(.98702441 .1605703 -.1605703 .98702441 95.08 -89.51)"/><path d="m596 412.67-30.51 187.41-1.93 11.81a26.06 26.06 0 0 1 -6.14 13l-7.31 8.34-158.7 181-4.82-4.23a3.9 3.9 0 0 1 -.36-5.52l167-190.43 33-203z" fill="#efcbd1"/><path d="m459.47 362.43h46.53a0 0 0 0 1 0 0v82.57a0 0 0 0 1 0 0h-46.53a25.31 25.31 0 0 1 -25.31-25.31v-32a25.31 25.31 0 0 1 25.31-25.26z" fill="#836b96"/><path d="m466.67 445h-7.2a25.31 25.31 0 0 1 -25.31-25.31v-32a25.31 25.31 0 0 1 25.31-25.31h7.2a25.31 25.31 0 0 0 -25.31 25.31v32a25.31 25.31 0 0 0 25.31 25.31z" fill="#c8b3dd"/><path d="m498.65 245.8h14.5a0 0 0 0 1 0 0v82.6a0 0 0 0 1 0 0h-46.48a25.31 25.31 0 0 1 -25.31-25.31 57.3 57.3 0 0 1 57.29-57.29z" fill="#836b96" transform="matrix(.97595482 .21797291 -.21797291 .97595482 74.04 -97.11)"/><path d="m447.82 296.54a25.31 25.31 0 0 0 19.18 30.22l36.36 8.12-.07.35-45.37-10.13a25.29 25.29 0 0 1 -19.18-30.21 57.29 57.29 0 0 1 68.4-43.44l2.79.62a57.29 57.29 0 0 0 -62.11 44.47z" fill="#c8b3dd"/><path d="m553 222.91h22.74a27.1 27.1 0 0 1 27.1 27.1v188.9a27.1 27.1 0 0 1 -27.1 27.1h-99.16a27.1 27.1 0 0 1 -27.1-27.1v-112.47a103.52 103.52 0 0 1 103.52-103.53z" fill="#604970"/><path d="m564.23 222.91h13.07a25.54 25.54 0 0 1 25.54 25.54v192a25.54 25.54 0 0 1 -25.54 25.55h-85.07a25.54 25.54 0 0 1 -25.54-25.54v-120a97.54 97.54 0 0 1 97.54-97.55z" fill="#503b60"/><path d="m369 827.28-9.88 11.27 47.11 41.32 16.22-18.49-42.28-37.08c-2.67-2.3-7.67-1.01-11.17 2.98z" fill="#604970"/><path d="m557.71 421.18h72.43a0 0 0 0 1 0 0v220.48a36.21 36.21 0 0 1 -36.21 36.21 36.21 36.21 0 0 1 -36.21-36.21v-220.48a0 0 0 0 1 -.01 0z" fill="#915e8c" transform="matrix(.98176015 -.19012364 .19012364 .98176015 -93.66 122.97)"/><g fill="#f29495"><rect height="39.25" rx="19.62" transform="matrix(1 -.04 .04 1 -12.15 32.81)" width="60.03" x="801.75" y="306.95"/><rect height="31.07" rx="15.53" transform="matrix(.5162344 -.85644734 .85644734 .5162344 151.67 811.66)" width="60.03" x="764.31" y="256.03"/><rect height="54.92" rx="27.46" transform="matrix(.99923587 -.03908542 .03908542 .99923587 -10.98 32.74)" width="76.64" x="792.28" y="269.25"/><rect height="144.51" rx="32.92" transform="matrix(.74279437 -.66951962 .66951962 .74279437 -28.5 522.93)" width="65.83" x="633.38" y="226.31"/><rect height="183.18" rx="40.98" transform="matrix(-.2101305 -.97767335 .97767335 -.2101305 600.41 1120.79)" width="81.96" x="712" y="226.25"/></g><path d="m861.78 326.18a19.62 19.62 0 0 1 -18.85 19.6l-20.78.81a19.63 19.63 0 0 1 -6.07-.72 41.31 41.31 0 0 1 -5 1.41l-98.95 21.25a41 41 0 0 1 -43-17.73c-.33-.32-.64-.65-.94-1l-52.68-58.43a32.9 32.9 0 0 1 -7.26-30.87 32.81 32.81 0 0 0 7.33 13.39l47 52.15 5.67 6.28c.32.35.64.69 1 1a41 41 0 0 0 42.94 17.71l4.7-1 85.46-18.36 8.8-1.9a41 41 0 0 0 5-1.41 18.83 18.83 0 0 0 6.08.72l15.25-.59 5.52-.22a19.61 19.61 0 0 0 16.78-10.79 19.53 19.53 0 0 1 2 7.9z" fill="#e58389"/><circle cx="644.15" cy="269.27" fill="#ffb41f" r="42.44"/><path d="m574.3 175.66h43.01v50.17h-43.01z" fill="#f5b5a9"/><path d="m595.81 415.23a59.76 59.76 0 0 1 59.76 59.77v21.4a0 0 0 0 1 0 0h-119.51a0 0 0 0 1 0 0v-21.4a59.76 59.76 0 0 1 59.75-59.77z" fill="#915e8c" transform="matrix(-1 0 0 -1 1191.62 911.63)"/><path d="m630.42 856.49h55.95v45.93h-55.95z" fill="#f29495" transform="matrix(.98176015 -.19012364 .19012364 .98176015 -155.22 141.25)"/><path d="m627.12 900.43 3.42 17.65 61.53-11.92-4.91-25.34-53.84 10.43a7.83 7.83 0 0 0 -6.2 9.18z" fill="#604970"/><path d="m628.63 856.66h55.95v27.01h-55.95z" fill="#e5888c" transform="matrix(.98176015 -.19012364 .19012364 .98176015 -153.49 140.74)"/><path d="m635.45 900.49 32-8.81a35.56 35.56 0 0 1 67.9 6.55l-69.84 13.53-34.84 6.75-1.52-7.83a8.83 8.83 0 0 1 6.3-10.19z" fill="#604970"/><path d="m690.08 871a35.56 35.56 0 0 1 38 28.67l7.21-1.4a35.57 35.57 0 0 0 -41.69-28.16 34.94 34.94 0 0 0 -3.52.89z" fill="#836b96"/><path d="m625.11 924.89a5.49 5.49 0 0 0 5.74 4.44 4.45 4.45 0 0 0 .71-.09l104.14-20.17a7.73 7.73 0 0 0 .86-.22 8.35 8.35 0 0 0 -3.16-16.3 10 10 0 0 0 -1.31.22l-4 1-11.3 2.83-5.27 1.32-11.29 2.82-5.23 1.31-11.3 2.82-5.26 1.32-11.29 2.81-5.26 1.32-11.29 2.82-5.26 1.32-11.34 2.83-4.86 1.22a2.64 2.64 0 0 0 -.4.12 5.55 5.55 0 0 0 -2.91 2.26 5.48 5.48 0 0 0 -.72 4z" fill="#3c1c39"/><g fill="#604970"><path d="m728.13 893.76 3.13 16.17 5.31-1-3.17-16.35a10 10 0 0 0 -1.31.22z"/><path d="m711.56 897.91 2.96 15.26 5.32-1.03-3.01-15.55z"/><path d="m695.01 902.05 2.78 14.36 5.32-1.03-2.84-14.65z"/><path d="m678.45 906.19 2.61 13.46 5.31-1.02-2.66-13.76z"/><path d="m661.89 910.33 2.44 12.57 5.31-1.03-2.49-12.86z"/><path d="m645.34 914.47 2.26 11.67 5.31-1.03-2.31-11.96z"/><path d="m628.78 918.63 2.08 10.75 5.32-1-2.18-11.09-4.86 1.22a2.64 2.64 0 0 0 -.36.12z"/></g><path d="m629.9 596.79a36.21 36.21 0 0 1 36.22 36.21v236.89a3.91 3.91 0 0 1 -3.91 3.91h-64.62a3.91 3.91 0 0 1 -3.91-3.91v-236.89a36.21 36.21 0 0 1 36.21-36.21z" fill="#915e8c" transform="matrix(.98176015 -.19012364 .19012364 .98176015 -128.33 133.2)"/><path d="m536.06 309.64h119.51v105.6h-119.51z" fill="#ffd41d" transform="matrix(-1 0 0 -1 1191.62 724.87)"/><path d="m576.46 417.24h9.66a0 0 0 0 1 0 0v464.23a0 0 0 0 1 0 0h-5.76a3.91 3.91 0 0 1 -3.91-3.91v-460.32a0 0 0 0 1 0 0z" fill="#f4dbde" transform="matrix(.98176015 -.19012364 .19012364 .98176015 -112.88 122.39)"/><path d="m503.44 287.61a64 64 0 0 0 16.43 42.81c10.16 11.08 24.18 17.94 39.67 17.94h65.1c31.11 0 57.39-27.79 57.14-61.76a64 64 0 0 0 -16.43-42.82c-10.15-11.08-24.18-17.94-39.67-17.94h-65.1c-31.11 0-57.39 27.79-57.14 61.77z" fill="#ffd41d"/><path d="m574.3 175.66v15a60.94 60.94 0 0 0 33 21.55 59 59 0 0 0 10 1.67v-38.22z" fill="#f29495"/><path d="m600.89 348.91h20.73a61.26 61.26 0 0 0 6.38-122.2c-1.74-.18-3.49-.28-5.27-.32h-21.8a61.09 61.09 0 0 1 21.8 4c1.8.69 3.55 1.45 5.27 2.29a61.79 61.79 0 0 1 16.26 11.67 61.26 61.26 0 0 1 -43.33 104.58z" fill="#f9e27d"/><path d="m563.67 223.08v19.65h64.33v-19.65a10.87 10.87 0 0 0 -10.64-10.86h-43a10.86 10.86 0 0 0 -10.69 10.86z" fill="#ffd41d"/><path d="m612.06 212.22a10.86 10.86 0 0 1 10.63 10.86v7.29c1.8.69 3.55 1.45 5.27 2.29v-9.58a10.87 10.87 0 0 0 -10.64-10.86z" fill="#f9e27d"/><path d="m617.5 203.7a61 61 0 0 1 -64.5-57.29l-1.55-26.62a32.8 32.8 0 0 1 4.33-18.44v-.07a33.22 33.22 0 0 1 16.61-14.28 32.89 32.89 0 0 1 10.26-2.26l27.25-1.59 6.61-.4a30.54 30.54 0 0 1 32.29 28.7l.41 7 .14 2.35.38 6.39.25 4.33 2 33.48a36.65 36.65 0 0 1 -34.48 38.7z" fill="#f5b5a9"/><path d="m650 131.45a19.58 19.58 0 0 1 -2.74-.28l-71.16-11.43a25 25 0 0 1 -20.27-18.46 33.22 33.22 0 0 1 16.56-14.28 32.89 32.89 0 0 1 10.26-2.26l27.25-1.59 6.61-.4a30.54 30.54 0 0 1 32.29 28.7l.41 7 .14 2.35.38 6.39z" fill="#f29495"/><circle cx="601.71" cy="147.45" fill="#3c1c39" r="4.22"/><circle cx="631.55" cy="147.45" fill="#3c1c39" r="4.22"/><path d="m628.4 164.76a12.48 12.48 0 0 1 -4.31 8.57c-.31.26-.62.51-1 .75a12.45 12.45 0 0 1 -8.16 2.26h-.51a12.54 12.54 0 0 1 -11.6-12.39c0-.34 0-.69 0-1a2.44 2.44 0 0 1 .84-1.66 2.38 2.38 0 0 1 1.76-.58l20.66 1.52a2.42 2.42 0 0 1 2.32 2.53z" fill="#962f4a"/><path d="m614.87 174.4a9.9 9.9 0 0 1 -.33 1.91h-.07a12.54 12.54 0 0 1 -11.6-12.39 10 10 0 0 1 12 10.48z" fill="#e1617f"/><path d="m625.7 162.13c-.28 2.45-4.2 4.13-8.85 3.79s-8.29-2.59-8.2-5z" fill="#fff"/><circle cx="541.96" cy="269.27" fill="#ffb41f" r="42.44"/><rect fill="#50274c" height="50.08" rx="25.04" width="122.14" x="541.96" y="69.97"/><rect fill="#50274c" height="50.08" rx="25.04" width="102.29" x="548.42" y="57.62"/><path d="m664.09 95a25.06 25.06 0 0 1 -25.05 25h-14.1a25 25 0 0 0 9.14-48.36 19.29 19.29 0 0 0 -.94-1.73 25 25 0 0 0 -21.58-12.35h14.1a25.05 25.05 0 0 1 22.53 14.09 25 25 0 0 1 15.9 23.35z" fill="#684568"/><path d="m545.8 113.68h21a0 0 0 0 1 0 0v23.4a19.5 19.5 0 0 1 -19.5 19.5h-1.5a0 0 0 0 1 0 0v-42.9a0 0 0 0 1 0 0z" fill="#50274c"/><circle cx="557.61" cy="102.88" fill="#50274c" r="27.14"/><path d="m545.8 121.52a27.19 27.19 0 0 0 7.92 5.83v28.16a19.42 19.42 0 0 1 -6.41 1.08h-1.51v-29.26a27.15 27.15 0 0 1 11.8-51.59 26 26 0 0 1 4 .3 27.13 27.13 0 0 0 -15.77 45.48z" fill="#3f1b3d"/><circle cx="557.47" cy="151.44" fill="#f5b5a9" r="15.51"/><path d="m552.79 149.68a6.69 6.69 0 0 0 3.25 6.66 1.92 1.92 0 0 0 2.81-1.46l1.15-8.64a1.94 1.94 0 0 0 -2.52-2.09 6.69 6.69 0 0 0 -4.69 5.53z" fill="#f29495"/><rect fill="#684568" height="20.66" rx="9.9" width="69.54" x="557.61" y="87.04"/><path d="m542 223.49s84.69 4.32 27.14 127.56l15.3 8.12s68.89-118-22.23-135.68z" fill="#604970"/><g fill="#f5b5a9"><rect height="39.25" rx="19.62" transform="matrix(.86828541 .49606497 -.49606497 .86828541 288.95 -257.57)" width="60.03" x="599.49" y="395.71"/><rect height="31.07" rx="15.53" transform="matrix(.99728885 -.07358632 .07358632 .99728885 -26.39 46.42)" width="60.03" x="587.17" y="366.06"/><rect height="54.92" rx="27.46" transform="matrix(.78961985 .61359636 -.61359636 .78961985 392.58 -296.56)" width="76.64" x="590.42" y="396.73"/><rect height="130.84" rx="32.92" transform="matrix(.96 .26 -.26 .96 98.59 -127.84)" width="65.83" x="494.57" y="239.42"/><rect height="39.25" rx="19.62" transform="matrix(.78961985 .61359636 -.61359636 .78961985 403.2 -280.34)" width="60.03" x="580.38" y="428.17"/><rect height="140.98" rx="32.92" transform="matrix(.96487908 .26269442 -.26269442 .96487908 99.83 -127.32)" width="65.83" x="493.24" y="239.24"/></g><path d="m533.61 240.24a34.08 34.08 0 0 1 34.08 34.08v50.13a0 0 0 0 1 0 0h-68.16a0 0 0 0 1 0 0v-50.13a34.08 34.08 0 0 1 34.08-34.08z" fill="#ffd41d" transform="matrix(.96487908 .26269442 -.26269442 .96487908 92.89 -130.24)"/><path d="m636.64 433.32a41 41 0 0 1 -52.06 18.56c-.38-.16-.75-.32-1.13-.5s-.61-.28-.91-.43-.88-.43-1.31-.66l-89.4-47.47a40.82 40.82 0 0 1 -12.34-10c-.33-.41-.66-.81-1-1.23-.64-.82-1.24-1.66-1.8-2.54-.28-.42-.56-.86-.82-1.3-.53-.89-1-1.79-1.48-2.71a39.41 39.41 0 0 1 -2.33-5.68c-.33-1-.6-2-.85-3s-.46-2-.62-3c-.09-.52-.16-1-.23-1.54-.12-1-.21-2-.28-3.07a40.8 40.8 0 0 1 4.75-21.33c.4-.76.82-1.48 1.26-2.19a40.93 40.93 0 0 1 54.15-14.77l89.4 47.47a41 41 0 0 1 17 55.39z" fill="#f5b5a9"/><ellipse cx="607.46" cy="424.47" fill="#f8cdc5" rx="14.63" ry="19.93" transform="matrix(.30386679 -.95271453 .95271453 .30386679 18.5 874.25)"/></svg>