<svg viewBox="0 0 1000 1000" xmlns="http://www.w3.org/2000/svg"><path d="m972.14 624.35v10.41a132.24 132.24 0 0 1 -9.44 49.24q-1.14 2.84-2.4 5.61-2 4.37-4.27 8.55c-.5.91-1 1.81-1.52 2.7a133 133 0 0 1 -25.46 31.69c-.46.43-.93.85-1.4 1.27l-.14.12-1.61 1.4a131.59 131.59 0 0 1 -24.37 16.59c-2.38 1.26-4.81 2.45-7.27 3.56a128.46 128.46 0 0 1 -15 5.71c-1.21.38-2.43.74-3.65 1.08-2.94.83-5.91 1.56-8.93 2.18a133.15 133.15 0 0 1 -27 2.75h-53.68a27.31 27.31 0 0 0 -27.31 27.32v101.86h-456.69v-101.91a27.24 27.24 0 0 0 -15.2-24.48 23.93 23.93 0 0 0 -2.19-1 27 27 0 0 0 -10-1.89h-90.31c-1.43 0-2.84 0-4.26-.06a137.45 137.45 0 0 1 -23.22-2.69q-4.51-.92-8.91-2.12a136.14 136.14 0 0 1 -23.81-9c-1-.47-1.91-.94-2.86-1.44a137 137 0 0 1 -25-16.59l-.52-.43c-.38-.32-.76-.64-1.13-1l-1.59-1.28c-2.06-1.81-4.06-3.7-6-5.64a138.1 138.1 0 0 1 -20.44-26.05c-2.21-3.64-4.26-7.39-6.12-11.25-.9-1.84-1.76-3.72-2.56-5.61a135.69 135.69 0 0 1 -8.25-26 138.93 138.93 0 0 1 -1.42-48.81c.27-1.89.6-3.76 1-5.62.14-.77.3-1.54.46-2.3.23-1.15.49-2.29.76-3.43q1.07-4.5 2.43-8.9.77-2.46 1.62-4.89a136.31 136.31 0 0 1 13.82-28.38 138.32 138.32 0 0 1 22.52-27c2.09-1.94 4.24-3.82 6.45-5.61 1-.82 2-1.61 3-2.38q4.42-3.43 9.16-6.5a136.79 136.79 0 0 1 38.54-17.32q5.91-1.62 12-2.71 4.53-.83 9.16-1.33c3.48-.38 7-.64 10.57-.75 1.54 0 3.09-.08 4.64-.08h106.01a35.67 35.67 0 0 0 30.87-17.72c.4-.66.77-1.34 1.11-2a36.15 36.15 0 0 0 1.53-3.49 35.64 35.64 0 0 0 2.23-11.3c0-.1 0-.2 0-.3 0-.3 0-.61 0-.92 0-.14 0-.28 0-.41s0-.22 0-.33a35 35 0 0 0 -.9-7.28 32.73 32.73 0 0 0 -1.79-5.61 34.74 34.74 0 0 0 -2.18-4.41 35.76 35.76 0 0 0 -25-17.23c-.3-.05-.59-.1-.89-.13a33.87 33.87 0 0 0 -5-.35h-178.86-2.1a83.19 83.19 0 0 1 -57-24.46c-.93-.93-1.84-1.88-2.72-2.85a83.89 83.89 0 0 1 -15.89-25.4q-1.09-2.76-2-5.61a83.73 83.73 0 0 1 8.73-69.43q1.73-2.79 3.69-5.42 2.13-2.91 4.52-5.61c.31-.36.63-.72 1-1.07.88-1 1.79-1.92 2.72-2.85a83.19 83.19 0 0 1 57-24.46q1 0 2.1 0a69 69 0 0 0 36.44-10.35 69.94 69.94 0 0 0 12-9.42 69.46 69.46 0 0 0 17-26.68c.64-1.83 1.21-3.71 1.69-5.61.41-1.59.77-3.19 1.06-4.82a69.52 69.52 0 0 0 1.11-12.41v-70.6a27.31 27.31 0 0 1 27.26-27.41h636.59a83.43 83.43 0 0 1 67.78 34.69c.82 1.1 1.59 2.23 2.33 3.37.48.74 1 1.48 1.41 2.24a83.7 83.7 0 0 1 5.93 74.85c-.77 1.9-1.62 3.77-2.53 5.61a83.89 83.89 0 0 1 -41.24 39.38 81.56 81.56 0 0 1 -9.16 3.41 83.43 83.43 0 0 1 -24.52 3.66h-68a48.57 48.57 0 0 0 -13.51 1.9c-1.46.43-2.9.92-4.3 1.47a48 48 0 0 0 -5.48 2.56c-1.26.69-2.49 1.44-3.68 2.24a48.92 48.92 0 0 0 -16.58 18.85c-.23.46-.45.92-.66 1.39a45.15 45.15 0 0 0 -2.16 5.61 48.41 48.41 0 0 0 -2.23 14.57 48.54 48.54 0 0 0 21.63 40.42 47.8 47.8 0 0 0 9.16 4.8 48.34 48.34 0 0 0 17.81 3.37c.89 0 1.77 0 2.65.06a62.43 62.43 0 0 1 30.1 9.12c1.08.65 2.13 1.33 3.16 2.05l.63.45a59.47 59.47 0 0 1 5.36 4.28c.49.43 1 .88 1.45 1.33a62.84 62.84 0 0 1 19.66 45.73v43a43.93 43.93 0 0 0 29.51 41.59c.59.21 1.19.4 1.79.58 2.38.71 4.84 1.49 7.37 2.37 5.09 1.73 10.44 3.8 15.91 6.25a156.44 156.44 0 0 1 27.74 15.8c2.34 1.69 4.66 3.47 6.93 5.35l.31.26c3 2.51 6 5.21 8.85 8.08a115.25 115.25 0 0 1 15.22 18.87 112.89 112.89 0 0 1 13.11 28.44q.74 2.4 1.38 4.89c.75 2.88 1.42 5.85 2 8.9q.53 2.82.93 5.73c.26 1.84.49 3.72.66 5.62a149.55 149.55 0 0 1 .75 15.21z" fill="#f0f3f9"/><g fill="#34629b"><path d="m916.19 126.31h-735.42v-5.61h731.68c.82 1.1 1.59 2.23 2.33 3.37.48.74.95 1.48 1.41 2.24z" opacity=".11"/><path d="m922.12 201.16c-.77 1.9-1.62 3.77-2.53 5.61h-742.68c.64-1.83 1.21-3.71 1.69-5.61z" opacity=".11"/><path d="m732.5 281.63a45.15 45.15 0 0 0 -2.16 5.61h-686.17q2.13-2.91 4.52-5.61z" opacity=".11"/><path d="m820.07 367.7h-786.32q-1.09-2.76-2-5.61h781.51a59.47 59.47 0 0 1 5.36 4.28c.49.43.97.88 1.45 1.33z" opacity=".11"/><path d="m839.73 442.56v5.61h-514.54a32.73 32.73 0 0 0 -1.79-5.61z" opacity=".11"/><path d="m929.22 528.63h-838.43c2.09-1.94 4.24-3.82 6.45-5.61h824.76c2.34 1.69 4.66 3.47 6.93 5.35z" opacity=".11"/><path d="m971.38 609.1h-923.16c.27-1.89.6-3.76 1-5.62h921.5c.28 1.84.49 3.72.66 5.62z" opacity=".11"/><path d="m962.7 684q-1.14 2.84-2.4 5.61h-899.85c-.9-1.84-1.76-3.72-2.56-5.61z" opacity=".11"/><path d="m866.7 764.41a133.15 133.15 0 0 1 -27 2.75h-53.7a27.12 27.12 0 0 0 -12.15 2.84h-487a23.93 23.93 0 0 0 -2.19-1 27 27 0 0 0 -10-1.89h-90.36c-1.43 0-2.84 0-4.26-.06a137.45 137.45 0 0 1 -23.22-2.69z" opacity=".11"/><path d="m301.97 844.88h456.76v5.61h-456.76z" opacity=".11"/></g><rect fill="#6e8ec8" height="17.61" rx="8.8" transform="matrix(-1 0 0 -1 221.75 1810.38)" width="74.06" x="73.85" y="896.39"/><rect fill="#6e8ec8" height="17.61" rx="8.8" transform="matrix(-1 0 0 -1 1120.09 1810.38)" width="809.94" x="155.08" y="896.39"/><path d="m439 636.75h280.4v261.11h-280.4z" fill="#547dba"/><path d="m439 704.46h299.75v112.24h-299.75z" fill="#34629b"/><path d="m676.8 392h7.81a237.8 237.8 0 0 1 237.8 237.8v7a0 0 0 0 1 0 0h-483.41a0 0 0 0 1 0 0v-7a237.8 237.8 0 0 1 237.8-237.8z" fill="#547dba"/><path d="m922.41 629.77v7h-117.29v-7c0-112.49-78.12-206.77-183.06-231.46a237.91 237.91 0 0 1 54.74-6.31h7.81c131.39 0 237.8 106.44 237.8 237.77z" fill="#34629b"/><path d="m439 636.75a0 0 0 0 1 0 0v261.11a0 0 0 0 1 0 0h-72.85a13 13 0 0 1 -13-13v-162.29a85.82 85.82 0 0 1 85.85-85.82z" fill="#bbd7ff"/><path d="m381.49 131.75v404a16.36 16.36 0 0 1 -16.36 16.36h-169.13a16.35 16.35 0 0 1 -16.36-16.36v-43.75c1.54 0 3.09-.08 4.64-.08h106.07a35.67 35.67 0 0 0 30.87-17.72c.4-.66.77-1.34 1.11-2a36.15 36.15 0 0 0 1.53-3.49 35.64 35.64 0 0 0 2.23-11.3v-2a35.73 35.73 0 0 0 -29.89-34.53c-.3-.05-.59-.1-.89-.13a33.87 33.87 0 0 0 -5-.35h-110.65v-288.65a16.35 16.35 0 0 1 16.34-16.36h169.13a16.36 16.36 0 0 1 16.36 16.36z" fill="#6e8ec8"/><path d="m361.64 154.91v357.7a16.37 16.37 0 0 1 -16.36 16.39h-129.41a16.36 16.36 0 0 1 -16.36-16.36v-20.64h90.84a35.67 35.67 0 0 0 30.87-17.72c.4-.66.77-1.34 1.11-2a36.15 36.15 0 0 0 1.53-3.49 35.64 35.64 0 0 0 2.23-11.3v-2a35.73 35.73 0 0 0 -29.89-34.53c-.3-.05-.59-.1-.89-.13a33.87 33.87 0 0 0 -5-.35h-90.8v-265.57a16.36 16.36 0 0 1 16.36-16.36h129.41a16.36 16.36 0 0 1 16.36 16.36z" fill="#e9f1ff"/><path d="m361.64 196.06v316.55a16.37 16.37 0 0 1 -16.36 16.39h-96.94v-37h42a35.67 35.67 0 0 0 30.87-17.72c.4-.66.77-1.34 1.11-2a36.15 36.15 0 0 0 1.53-3.49 35.64 35.64 0 0 0 2.23-11.3v-2a35.73 35.73 0 0 0 -29.89-34.53c-.3-.05-.59-.1-.89-.13a33.87 33.87 0 0 0 -5-.35h-42v-50.92a6 6 0 0 1 6-6h31.2a6 6 0 0 0 6-6v-155.5a6 6 0 0 1 6-6z" fill="#cddcf5"/><g fill="#e9f1ff"><path d="m262.23 384.97h7.52v7.52h-7.52z"/><path d="m262.23 418.61h7.52v1.83h-7.52z"/><path d="m262.23 491.95h7.52v1.46h-7.52z"/><path d="m262.23 519.53h7.52v7.52h-7.52z"/><path d="m295.31 417.88v2.91a33.87 33.87 0 0 0 -5-.35h-2.56v-2.56z"/><path d="m304.99 207.95h7.52v7.52h-7.52z"/><path d="m304.99 255.01h7.52v7.52h-7.52z"/><path d="m304.99 302.08h7.52v7.52h-7.52z"/><path d="m304.99 349.14h7.52v7.52h-7.52z"/><path d="m304.99 396.21h7.52v7.52h-7.52z"/><path d="m304.99 490.33h7.52v7.52h-7.52z"/><path d="m322.33 233.39h7.52v7.52h-7.52z"/><path d="m322.33 280.45h7.52v7.52h-7.52z"/><path d="m322.33 327.51h7.52v7.52h-7.52z"/><path d="m322.33 374.58h7.52v7.52h-7.52z"/><path d="m322.33 421.64h7.52v7.52h-7.52z"/><path d="m329.85 468.71v7.52h-7.52v-4a36.15 36.15 0 0 0 1.53-3.49z"/><path d="m322.33 515.77h7.52v7.52h-7.52z"/><path d="m343.64 207.51h7.52v7.52h-7.52z"/><path d="m343.64 254.58h7.52v7.52h-7.52z"/><path d="m343.64 301.64h7.52v7.52h-7.52z"/><path d="m343.64 348.71h7.52v7.52h-7.52z"/><path d="m343.64 395.77h7.52v7.52h-7.52z"/><path d="m343.64 442.83h7.52v7.52h-7.52z"/><path d="m343.64 489.9h7.52v7.52h-7.52z"/></g><g fill="#6e8ec8"><path d="m326.09 457.41v80.26h-4.87v-63.44c.4-.66.77-1.34 1.11-2a36.15 36.15 0 0 0 1.53-3.49 35.64 35.64 0 0 0 2.23-11.33z"/><path d="m326.09 129.85v325.6a35.44 35.44 0 0 0 -4.87-17.3v-308.3z"/><path d="m231.03 129.85h4.87v290.59h-4.87z"/><path d="m231.03 491.95h4.87v45.72h-4.87z"/><path d="m276.96 66.24h4.87v197.84h-4.87z" transform="matrix(0 1 -1 0 444.57 -114.23)"/><path d="m276.96 234.83h4.87v197.84h-4.87z" transform="matrix(0 1 -1 0 613.16 54.36)"/><path d="m187.2 275.1h186.74v22.06h-186.74z"/></g><path d="m763.2 255.12c-1.46.43-2.9.92-4.3 1.47a48 48 0 0 0 -5.48 2.56c-1.26.69-2.49 1.44-3.68 2.24a48.35 48.35 0 0 0 -12 11.35h-230.83a8.81 8.81 0 1 1 0-17.62z" fill="#6285b7"/><g fill="#015d76"><path d="m461.24 852.13 10-181.41a34.59 34.59 0 0 0 -32.53-36.52l-.92-.05a34.58 34.58 0 0 0 -36.51 32.53l-10 181.42a5.25 5.25 0 0 0 5 5.55l59.45 3.44a5.27 5.27 0 0 0 5.51-4.96z"/><path d="m412.55 836.29h25.1v51.19h-25.1z" transform="matrix(-.03158521 .99950106 -.99950106 -.03158521 1300 464.27)"/><path d="m440.41 637.1h127.54a13.93 13.93 0 0 1 13.93 13.9v11.8a48.26 48.26 0 0 1 -48.26 48.26h-93.2a37 37 0 0 1 -37-37 37 37 0 0 1 37-37z" transform="matrix(.99882313 .04850112 -.04850112 .99882313 33.33 -23.14)"/><path d="m428.4 879.73-50.34 2.75a25.21 25.21 0 1 1 50.34-2.75z"/><path d="m373 888.63-.09-7.73a6.35 6.35 0 0 1 5.87-6.39l66.16-4.86a7.91 7.91 0 0 1 8.49 7.8l.16 14.31z"/><path d="m453.51 887.5.05 4.64a5.36 5.36 0 0 1 -5.29 5.41l-71.59.79a8.75 8.75 0 0 1 -8.84-8.65 8.74 8.74 0 0 1 8.65-8.85l20.05-.22a7.51 7.51 0 0 1 7.59 7.42z"/></g><g fill="#f9a0b4"><rect height="139.48" rx="25.27" transform="matrix(.16418685 -.98642926 .98642926 .16418685 -134.45 969.31)" width="50.54" x="479.46" y="494.25"/><ellipse cx="451.51" cy="555.86" rx="32.22" ry="26.08" transform="matrix(.99945022 -.03315518 .03315518 .99945022 -18.22 15.31)"/><path d="m471.06 532.37a7.26 7.26 0 0 1 3 9.81 7.26 7.26 0 0 1 -9.81 3l-19.92-10.64a7.24 7.24 0 0 1 -3-9.8 7.24 7.24 0 0 1 9.8-3"/></g><circle cx="545.49" cy="371.44" fill="#4f182e" r="22.26"/><path d="m543.56 393.61c-.51 0-1-.11-1.55-.19a22.26 22.26 0 0 1 7-44c.52.08 1 .18 1.52.3a22.26 22.26 0 0 0 -6.93 43.86z" fill="#622f2b"/><path d="m570.55 375.4a22.26 22.26 0 0 1 -25.46 18.51q-.78-.12-1.53-.3a22.26 22.26 0 0 1 6.93-43.86c.52 0 1 .11 1.55.19a22.26 22.26 0 0 1 18.51 25.46z" fill="#512522"/><path d="m617.34 473.1-58.38 10.3-7.16-40.56-3.77-21.4 58.38-10.3 2.81 15.93z" fill="#ffb2bf"/><g fill="#fff2ee"><rect height="33.64" rx="5.1" transform="matrix(.96024498 -.2791587 .2791587 .96024498 -105.44 182.45)" width="64.62" x="555.68" y="444.67"/><path d="m550.74 543.22h112.46v125.44h-112.46z" transform="matrix(.99876313 .04972137 -.04972137 .99876313 30.91 -29.46)"/><ellipse cx="594.19" cy="530.07" rx="75.71" ry="73.84" transform="matrix(.04972137 -.99876313 .99876313 .04972137 35.2 1097.14)"/></g><path d="m594.3 605.78c-1.29 0-2.58 0-3.88-.09-40.73-2-72.06-37.53-70-79.29s36.78-74 77.51-71.95c1.24.06 2.47.15 3.69.28-39 .13-71.61 31.61-73.62 72s27.39 75.13 66.3 79.05z" fill="#fff"/><path d="m660.32 670.94a48.9 48.9 0 0 1 -16.08 34.11 45.7 45.7 0 0 1 -30 11.87h-.51c-.79 0-1.57 0-2.37 0l-90.05-4.38a35.08 35.08 0 0 1 -24.74-12 37.31 37.31 0 0 1 -8.57-17.63 38 38 0 0 1 -.66-8.51c.7-20.64 18.26-36.72 38.22-35.74l136 6.61z" fill="#007391"/><path d="m547.62 697-1.19 1.31-13.51 14.78-69 75.54-63.74 69.76a7.65 7.65 0 0 1 -10.81.49l-40.44-37a7.64 7.64 0 0 1 -.49-10.8l24.56-26.9 96.9-106 26-28.42a35 35 0 1 1 51.72 47.24z" fill="#007391"/><path d="m341.94 826.5h32.48v51.71h-32.48z" fill="#ffb2bf" transform="matrix(-.67456012 .73821992 -.73821992 -.67456012 1229.01 1162.91)"/><path d="m360.19 818.45h10.67v51.71h-10.67z" fill="#f9a0b4" transform="matrix(-.67456012 .73821992 -.73821992 -.67456012 1235.39 1144.01)"/><circle cx="619.52" cy="506.31" fill="#f9cabd" r="38.43"/><rect fill="#329da3" height="144.75" rx="28.81" transform="matrix(.99781302 -.06609975 .06609975 .99781302 -35.11 42.5)" width="57.62" x="595.12" y="478.83"/><circle cx="624.88" cy="591.98" fill="#f9cabd" r="32.59"/><g fill="#ffb2bf"><rect height="139.48" rx="25.27" transform="matrix(-.03629488 .99934112 -.99934112 -.03629488 1197.5 34.7)" width="50.54" x="556.75" y="525"/><ellipse cx="528.2" cy="593.49" rx="32.22" ry="26.08" transform="matrix(.9869402 -.16108708 .16108708 .9869402 -88.7 92.83)"/><rect height="37.08" rx="7.25" transform="matrix(.1343321 .99093637 -.99093637 .1343321 1044.9 18.6)" width="14.49" x="504.56" y="588.76"/><rect height="37.08" rx="7.25" transform="matrix(.13415914 .9909598 -.9909598 .13415914 1020.97 22.54)" width="14.49" x="490.34" y="577.03"/><rect height="37.08" rx="7.25" transform="matrix(.1343321 .99093637 -.99093637 .1343321 1013.58 -.88)" width="14.49" x="500.05" y="561.1"/><rect height="37.08" rx="7.25" transform="matrix(-.35396459 .93525882 -.93525882 -.35396459 1253.11 275.37)" width="14.49" x="524.21" y="551.93"/></g><rect fill="#fdc3cd" height="54.01" rx="9.06" transform="matrix(-.03629488 .99934112 -.99934112 -.03629488 1211.85 38.88)" width="18.13" x="578.12" y="576.74"/><path d="m609.22 427.07a43.55 43.55 0 0 1 -36.71 18.29l-10.84-.3a26 26 0 0 1 -9.87-2.22l-3.8-21.4 58.38-10.3z" fill="#f9a0b4"/><path d="m555.52 341.39h35.09a23.72 23.72 0 0 1 23.72 23.72v32.48a43.58 43.58 0 0 1 -43.58 43.58h-10.85a26.21 26.21 0 0 1 -26.21-26.17v-51.78a21.83 21.83 0 0 1 21.83-21.83z" fill="#ffb2bf" transform="matrix(.9996246 .02739824 -.02739824 .9996246 10.93 -15.58)"/><path d="m600.1 343.54a25.87 25.87 0 0 0 -3.55-.36l-35.07-1a21.85 21.85 0 0 0 -22.43 21.22l-1.42 51.72a26.24 26.24 0 0 0 16.59 25.12 26.21 26.21 0 0 1 -21.16-26.44l1.41-51.72a21.84 21.84 0 0 1 22.43-21.18l35.07 1a23.58 23.58 0 0 1 8.13 1.64z" fill="#fdc3cd"/><rect fill="#622f2b" height="74.69" rx="30.67" transform="matrix(.9996246 .02739824 -.02739824 .9996246 12.03 -15.26)" width="62.21" x="531.79" y="394.19"/><rect fill="#622f2b" height="74.69" rx="30.67" transform="matrix(.9996246 .02739824 -.02739824 .9996246 12.03 -15.06)" width="62.21" x="524.42" y="394.19"/><path d="m557.78 468.82c-.94.07-1.89.08-2.84.06h-.87a30.68 30.68 0 0 1 -29.82-31.5l.37-13.34a30.67 30.67 0 0 1 31.5-29.82h.87.7a30.67 30.67 0 0 0 -28.69 29.78l-.36 13.34a30.66 30.66 0 0 0 29.14 31.48z" fill="#774340"/><path d="m598.41 357.24h16.53a7.56 7.56 0 0 1 7.56 7.56v28.2a8.23 8.23 0 0 1 -8.23 8.23h-.06a15.81 15.81 0 0 1 -15.81-15.81v-28.2a0 0 0 0 1 .01.02z" fill="#622f2b" transform="matrix(.9996246 .02739824 -.02739824 .9996246 10.62 -16.58)"/><circle cx="611.73" cy="390.58" fill="#ffb2bf" r="13.73"/><rect fill="#622f2b" height="43.59" rx="21.79" transform="matrix(.9996246 .02739824 -.02739824 .9996246 9.82 -15.6)" width="95.1" x="526.78" y="328.65"/><rect fill="#774340" height="26.35" rx="13.18" transform="matrix(.9996246 .02739824 -.02739824 .9996246 9.82 -15.6)" width="57.51" x="545.58" y="337.27"/><path d="m614.24 334.59a21.83 21.83 0 0 0 -6.41-1.14l-51.49-1.45a21.78 21.78 0 0 0 -22.34 21.23v.61a21.78 21.78 0 0 0 7.6 16.53 21.79 21.79 0 0 1 -14.77-20.62c0-.2 0-.41 0-.61a21.8 21.8 0 0 1 22.35-21.14l51.49 1.41a21.75 21.75 0 0 1 13.57 5.18z" fill="#774340"/><path d="m552.54 402.71a9.13 9.13 0 0 0 2.62 6.45c.21.21.43.4.65.59a9.06 9.06 0 0 0 5.77 2.12h.42a9.09 9.09 0 0 0 9.12-8.29q0-.37 0-.75a1.74 1.74 0 0 0 -.5-1.25 1.81 1.81 0 0 0 -1.25-.53l-15-.09a1.76 1.76 0 0 0 -1.83 1.75z" fill="#962f4a"/><path d="m561.77 410.47a7.15 7.15 0 0 0 .13 1.4h.1a9.11 9.11 0 0 0 9.12-8.29 7.1 7.1 0 0 0 -2-.3 7.24 7.24 0 0 0 -7.35 7.19z" fill="#e1617f"/><path d="m554.65 401c.06 1.78 2.8 3.23 6.19 3.25s6.14-1.39 6.22-3.17z" fill="#fff"/><path d="m565.08 411.33a7.57 7.57 0 0 0 -6.94-.17 9.15 9.15 0 0 0 3.44.71h.42a9 9 0 0 0 3.08-.54z" fill="#fff"/><circle cx="575" cy="389.7" fill="#592702" r="3.12"/><circle cx="545.57" cy="388.93" fill="#592702" r="3.12"/><path d="m348 871.72-39.87-30.87a25.21 25.21 0 0 1 39.87 30.87z" fill="#007391"/><path d="m300.2 842.16 5-5.9a6.35 6.35 0 0 1 8.62-1l53.18 39.63a7.91 7.91 0 0 1 1.32 11.46l-9.24 10.92z" fill="#fff2ee"/><path d="m361.85 894-3 3.52a5.38 5.38 0 0 1 -7.58.63l-54.63-46.23a8.76 8.76 0 0 1 -1-12.33 8.75 8.75 0 0 1 12.33-1l15.3 12.95a7.5 7.5 0 0 1 .88 10.58z" fill="#007391"/><path d="m616.83 390.8a6.51 6.51 0 0 1 -3.87 6.07 1.86 1.86 0 0 1 -2.55-1.72l-.15-8.46a1.88 1.88 0 0 1 2.66-1.74 6.5 6.5 0 0 1 3.91 5.85z" fill="#f9a0b4"/><g fill="#d7e2ff"><path d="m501.66 629.92h13.07a0 0 0 0 1 0 0v2.5a4.29 4.29 0 0 1 -4.29 4.29h-4.44a4.29 4.29 0 0 1 -4.29-4.29v-2.5a0 0 0 0 1 -.05 0z" transform="matrix(-.9999166 -.01291508 .01291508 -.9999166 1008.23 1273.1)"/><path d="m514.73 630.09h13.07a0 0 0 0 1 0 0v2.5a4.29 4.29 0 0 1 -4.29 4.29h-4.51a4.29 4.29 0 0 1 -4.29-4.29v-2.5a0 0 0 0 1 .02 0z" transform="matrix(-.9999166 -.01291508 .01291508 -.9999166 1034.36 1273.6)"/><path d="m527.8 630.26h13.07a0 0 0 0 1 0 0v2.5a4.29 4.29 0 0 1 -4.29 4.29h-4.48a4.29 4.29 0 0 1 -4.29-4.29v-2.5a0 0 0 0 1 -.01 0z" transform="matrix(-.9999166 -.01291508 .01291508 -.9999166 1060.49 1274.11)"/><path d="m540.87 630.42h13.07a0 0 0 0 1 0 0v2.5a4.29 4.29 0 0 1 -4.29 4.29h-4.48a4.29 4.29 0 0 1 -4.29-4.29v-2.5a0 0 0 0 1 -.01 0z" transform="matrix(-.9999166 -.01291508 .01291508 -.9999166 1086.63 1274.61)"/><path d="m553.94 630.59h13.06a0 0 0 0 1 0 0v2.5a4.29 4.29 0 0 1 -4.29 4.29h-4.48a4.29 4.29 0 0 1 -4.29-4.29v-2.5a0 0 0 0 1 0 0z" transform="matrix(-.9999166 -.01291508 .01291508 -.9999166 1112.76 1275.11)"/><path d="m567 630.76h13.07a0 0 0 0 1 0 0v2.5a4.29 4.29 0 0 1 -4.29 4.29h-4.48a4.29 4.29 0 0 1 -4.29-4.29v-2.5a0 0 0 0 1 0 0z" transform="matrix(-.9999166 -.01291508 .01291508 -.9999166 1138.9 1275.62)"/><path d="m580.08 630.93h13.07a0 0 0 0 1 0 0v2.5a4.29 4.29 0 0 1 -4.29 4.29h-4.48a4.29 4.29 0 0 1 -4.29-4.29v-2.5a0 0 0 0 1 -.01 0z" transform="matrix(-.9999166 -.01291508 .01291508 -.9999166 1165.03 1276.12)"/></g><rect fill="#64617f" height="10.65" rx="5.32" transform="matrix(-.9999166 -.01291508 .01291508 -.9999166 1063.49 1284.25)" width="149.18" x="461.28" y="633.39"/><path d="m502.31 643.61-124.46-1.61a11.39 11.39 0 0 1 -10.93-8.75l-23-96.69a11.39 11.39 0 0 1 11.23-14l109.85 1.44a11.39 11.39 0 0 1 10.93 8.75z" fill="#7d7ba3"/><path d="m343.9 536.58 23 96.68a11.39 11.39 0 0 0 10.95 8.74l124.46 1.6-2.54-10.69-98.34-1.26a11.39 11.39 0 0 1 -10.93-8.75l-23-96.68a11.48 11.48 0 0 1 -.28-3.52l-12.07-.16a11.4 11.4 0 0 0 -11.25 14.04z" fill="#64617f"/><circle cx="415.36" cy="586.09" fill="#d7e2ff" r="6.23"/><path d="m406.9 595.31a12.21 12.21 0 1 0 17.1-16.64 12.21 12.21 0 0 1 -17.08 16.64z" fill="#d7e2ff"/><path d="m571.47 185.12a18.46 18.46 0 0 1 18.46 18.46v10.07a0 0 0 0 1 0 0 18.46 18.46 0 0 1 -18.46-18.46v-10.07a0 0 0 0 1 0 0z" fill="#6e8ec8" transform="matrix(.38107038 .92454603 -.92454603 .38107038 543.76 -413.48)"/><path d="m560.51 169.87a18.46 18.46 0 0 1 18.49 18.45v10.07a0 0 0 0 1 0 0 18.46 18.46 0 0 1 -18.46-18.46v-10.06a0 0 0 0 1 -.03 0z" fill="#6285b7" transform="matrix(.92454603 .38107038 -.38107038 .92454603 113.15 -203.21)"/><path d="m570.63 185.12a0 0 0 0 1 0 0v10.07a18.46 18.46 0 0 1 -18.46 18.46 0 0 0 0 1 0 0v-10.07a18.46 18.46 0 0 1 18.46-18.46z" fill="#6e8ec8" transform="matrix(-.38107038 .92454603 -.92454603 -.38107038 959.68 -243.68)"/><path d="m603.32 222.07a33 33 0 1 1 -66.07 0 32 32 0 0 1 .22-3.81 32.56 32.56 0 0 1 .79-4.32h64.06a31 31 0 0 1 .78 4.32 30 30 0 0 1 .22 3.81z" fill="#6e8ec8"/><rect fill="#6285b7" height="8.65" rx="4.32" width="75.73" x="533.19" y="205.3"/><path d="m603.1 218.26h-65.63a32.56 32.56 0 0 1 .79-4.32h64.06a31 31 0 0 1 .78 4.32z" fill="#4575af"/><path d="m733.79 200.36a14.44 14.44 0 0 1 14.44 14.44v7.87a0 0 0 0 1 0 0 14.44 14.44 0 0 1 -14.44-14.44v-7.87a0 0 0 0 1 0 0z" fill="#6e8ec8" transform="matrix(.38107038 .92454603 -.92454603 .38107038 654.2 -554.18)"/><path d="m725.21 188.43a14.44 14.44 0 0 1 14.44 14.44v7.87a0 0 0 0 1 0 0 14.44 14.44 0 0 1 -14.44-14.44v-7.87a0 0 0 0 1 0 0z" fill="#6285b7" transform="matrix(.92454603 .38107038 -.38107038 .92454603 131.32 -264.04)"/><path d="m733.13 200.36a0 0 0 0 1 0 0v7.87a14.44 14.44 0 0 1 -14.44 14.44 0 0 0 0 1 0 0v-7.87a14.44 14.44 0 0 1 14.44-14.44z" fill="#6e8ec8" transform="matrix(-.38107038 .92454603 -.92454603 -.38107038 1198.09 -379.02)"/><path d="m758.71 229.27a25.85 25.85 0 0 1 -51.69 0 24.46 24.46 0 0 1 .17-3 23.69 23.69 0 0 1 .62-3.38h50.11a25.82 25.82 0 0 1 .79 6.36z" fill="#6e8ec8"/><rect fill="#6285b7" height="6.76" rx="3.38" width="59.24" x="703.84" y="216.14"/><path d="m758.54 226.29h-51.35a23.69 23.69 0 0 1 .62-3.38h50.11a26.85 26.85 0 0 1 .62 3.38z" fill="#4575af"/><path d="m637.5 133.58h15.67a8.79 8.79 0 0 1 8.79 8.79v112.74a0 0 0 0 1 0 0h-33.25a0 0 0 0 1 0 0v-112.75a8.79 8.79 0 0 1 8.79-8.78z" fill="#6e8ec8"/><circle cx="645.33" cy="194.34" fill="#4575af" r="10.72"/><path d="m645.33 202.08a6.89 6.89 0 0 1 -1.21.1 7.83 7.83 0 1 1 0-15.66 8 8 0 0 1 1.21.09 7.83 7.83 0 0 0 0 15.47z" fill="#6e8ec8"/><path d="m668.51 164.49h11.69a6.55 6.55 0 0 1 6.55 6.55v84.07a0 0 0 0 1 0 0h-24.75a0 0 0 0 1 0 0v-84.11a6.55 6.55 0 0 1 6.51-6.51z" fill="#6285b7"/><circle cx="674.35" cy="209.8" fill="#6e8ec8" r="8"/><path d="m674.35 215.57a5.41 5.41 0 0 1 -.91.07 5.84 5.84 0 0 1 0-11.68 5.4 5.4 0 0 1 .91.08 5.84 5.84 0 0 0 0 11.53z" fill="#e9f1ff"/><path d="m305.34 887.2h-12v-680.55a71.43 71.43 0 0 1 142.85 0v78.26h-12v-78.26a59.43 59.43 0 0 0 -118.85 0z" fill="#34629b"/><circle cx="431.52" cy="333.76" fill="#bbd7ff" r="36.86"/><path d="m468.38 333.76a36.87 36.87 0 0 1 -44.12 36.14 36.86 36.86 0 0 0 0-72.28 36.87 36.87 0 0 1 44.12 36.14z" fill="#d4e6fc"/><path d="m508.53 333.76h-156.68c0-54 35.09-97.7 78.34-97.7s78.34 43.73 78.34 97.7z" fill="#547dba"/><path d="m508.53 333.76h-156.68c0-54 35.09-97.7 78.34-97.7s78.34 43.73 78.34 97.7z" fill="#547dba"/><path d="m508.52 333.76h-26.37c0-48.35-28.16-88.5-65.15-96.31a62.83 62.83 0 0 1 13.19-1.39c43.27 0 78.33 43.74 78.33 97.7z" fill="#34629b"/><rect fill="#547dba" height="18.36" rx="9.18" width="157.96" x="220.36" y="878.02"/><path d="m378.32 887.21a9.18 9.18 0 0 1 -9.18 9.18h-26.5a9.19 9.19 0 1 0 0-18.37h26.5a9.19 9.19 0 0 1 9.18 9.19z" fill="#34629b"/><path d="m706 636.75a0 0 0 0 1 0 0v261.11a0 0 0 0 1 0 0h-85.81a0 0 0 0 1 0 0v-175.29a85.82 85.82 0 0 1 85.81-85.82z" fill="#bbd7ff"/><path d="m706 636.75h216.4a0 0 0 0 1 0 0v247.34a13.78 13.78 0 0 1 -13.78 13.78h-202.62a0 0 0 0 1 0 0v-261.12a0 0 0 0 1 0 0z" fill="#34629b"/><rect fill="#d4e6fc" height="153.12" rx="10.27" width="20.53" x="650.44" y="708.21"/></svg>