<svg viewBox="0 0 1000 1000" xmlns="http://www.w3.org/2000/svg"><path d="m982.75 483a110.09 110.09 0 0 1 -8.9 43.44q-1.56 3.65-3.38 7.14a110.19 110.19 0 0 1 -79 58q-2.76.48-5.57.82a109.21 109.21 0 0 1 -13.37.81h-89.79a19.48 19.48 0 1 0 0 39h26.83a66.66 66.66 0 0 1 21.76 3.61c2.06.71 4.06 1.5 6 2.39a67 67 0 0 1 19.67 13.54c.24.25.48.48.7.72.71.72 1.4 1.46 2 2.21 1.3 1.44 2.51 2.94 3.67 4.49a66.47 66.47 0 0 1 9.89 19c.25.72.47 1.46.69 2.19a67.13 67.13 0 0 1 2.67 18.82c0 1.58-.05 3.15-.17 4.7 0 .75-.11 1.48-.19 2.21a66.19 66.19 0 0 1 -6.31 22.3c-.2.41-.4.82-.61 1.22-.38.75-.77 1.48-1.18 2.21a67.1 67.1 0 0 1 -14.2 17.65 66.35 66.35 0 0 1 -7.68 5.87c-1.17.77-2.36 1.52-3.58 2.2a66.74 66.74 0 0 1 -33.22 8.79 54.69 54.69 0 0 0 -37.43 14.74c-.47.43-.93.89-1.38 1.33l-.85.87a54.78 54.78 0 0 0 -13.31 23.52c-.2.73-.38 1.47-.55 2.21a55.19 55.19 0 0 0 -1.36 12.21v49.42h-520.25v-76.73a27.45 27.45 0 0 0 -2.11-10.59c-.32-.75-.66-1.49-1-2.2a27.54 27.54 0 0 0 -24.38-14.74 66.6 66.6 0 0 1 -33.21-8.79c-1.22-.68-2.42-1.41-3.59-2.2a67.24 67.24 0 0 1 -10.39-8.4c-.1-.08-.19-.18-.29-.27a67.6 67.6 0 0 1 -11.2-14.85c-.41-.73-.8-1.46-1.18-2.21a66.54 66.54 0 0 1 -7-23.52c-.07-.73-.14-1.46-.18-2.21-.12-1.55-.17-3.12-.17-4.7a67.19 67.19 0 0 1 2.67-18.82c.21-.73.44-1.47.68-2.19a67.75 67.75 0 0 1 5-11.46 66.79 66.79 0 0 1 8.56-12.07c.65-.75 1.33-1.49 2.05-2.21.28-.3.58-.61.88-.91a67.08 67.08 0 0 1 47.29-19.48h69.24a19.46 19.46 0 0 0 19.47-19.66c-.11-10.77-9.21-19.29-20-19.29h-148.06a110.18 110.18 0 0 1 -110.17-109.31c-.47-61.06 50.41-111 111.47-111h121a18 18 0 0 0 18-18.14c-.07-10-8.5-17.9-18.48-17.9h-42.43a67.14 67.14 0 0 1 -57.8-33 65.31 65.31 0 0 1 -3.61-7 67.17 67.17 0 0 1 10.68-71.14c.49-.57 1-1.14 1.52-1.69a66.94 66.94 0 0 1 49.21-21.47h210.43a33.27 33.27 0 0 0 3.88-.21 36 36 0 0 0 10.31-2.64 36.51 36.51 0 0 0 8.49-5.05 35.82 35.82 0 0 0 6.94-7.24 36.3 36.3 0 0 0 6.94-21.07 37.21 37.21 0 0 1 22.46-34.08 35.83 35.83 0 0 1 14.05-2.84h254.92a35.92 35.92 0 0 1 10.32 1.49 33.45 33.45 0 0 1 3.79 1.35 36.45 36.45 0 0 1 21.8 26.81 36.13 36.13 0 0 1 .65 6.87v7.25a29.13 29.13 0 0 0 3.3 13.5 28.75 28.75 0 0 0 3.61 5.38c.53.64 1.09 1.25 1.68 1.84a29.08 29.08 0 0 0 18.9 8.53q.9.06 1.83.06a67.34 67.34 0 0 1 27.23 5.75 65.17 65.17 0 0 1 8.49 4.54 67.16 67.16 0 0 1 20.58 20.28 66.31 66.31 0 0 1 7.35 15.2l.06.16a66.16 66.16 0 0 1 2.89 12.68 67.11 67.11 0 0 1 -24.46 60.81 68.28 68.28 0 0 1 -6.82 4.84 67 67 0 0 1 -35.32 10h-52.93a18 18 0 0 0 -3.65 35.67 17.59 17.59 0 0 0 3.65.37h114.39a110.23 110.23 0 0 1 55.5 15 110.69 110.69 0 0 1 47.25 55.34v.1a110 110 0 0 1 7.42 39.83z" fill="#fffaf4"/><g fill="#faf4ea"><path d="m859.79 654.68h-703.19c.65-.75 1.33-1.49 2.05-2.21h699.09c.71.72 1.4 1.46 2.05 2.21z"/><path d="m874 680.4h-731.65c.21-.73.44-1.47.68-2.19h730.32c.25.72.47 1.46.65 2.19z"/><path d="m876.54 703.92c0 .75-.11 1.48-.19 2.21h-736.35c-.07-.73-.14-1.46-.18-2.21z"/><path d="m869.43 729.65c-.38.75-.77 1.48-1.18 2.21h-720.11c-.41-.73-.8-1.46-1.18-2.21z"/><path d="m846.37 755.38c-1.17.77-2.36 1.52-3.58 2.2h-669.18c-1.22-.68-2.42-1.41-3.59-2.2z"/><path d="m772.14 781.11c-.47.43-.93.89-1.38 1.33l-.85.87h-537.67c-.32-.75-.66-1.49-1-2.2z"/><path d="m756.6 806.83c-.2.73-.38 1.47-.55 2.21h-521.7v-2.21z"/><path d="m234.35 832.56h520.34v2.21h-520.34z"/></g><rect fill="#f2ead7" height="17.61" rx="8.8" width="809.94" x="95.03" y="853.06"/><path d="m874.83 248.38a66.16 66.16 0 0 1 2.89 12.68 63.53 63.53 0 0 0 -3-12.68h-454.25a17.26 17.26 0 0 0 .66-4.73v-41.4a36 36 0 0 0 10.31-2.64 36.51 36.51 0 0 0 8.49-5.05 35.82 35.82 0 0 0 6.94-7.24 36.3 36.3 0 0 0 6.94-21.07 37.21 37.21 0 0 1 22.46-34.08 35.83 35.83 0 0 1 14.05-2.84h254.92a36.06 36.06 0 0 1 14.11 2.84 36.45 36.45 0 0 1 21.8 26.83 36.13 36.13 0 0 1 .65 6.87v7.25a29.12 29.12 0 0 0 6.91 18.88c.53.64 1.09 1.25 1.68 1.84a29.08 29.08 0 0 0 18.9 8.53q.9.06 1.83.06a67.34 67.34 0 0 1 27.23 5.75 65.17 65.17 0 0 1 8.49 4.54 67.27 67.27 0 0 1 28 35.63z" fill="#f9f2de"/><path d="m982.75 483a110.13 110.13 0 0 1 -110.17 110.13h-89.84a19.48 19.48 0 1 0 0 39h-506.68a19.46 19.46 0 0 0 19.47-19.66c-.11-10.77-9.21-19.29-20-19.29h-102.66v-220.39h76.82a18 18 0 0 0 18-18.14c-.07-10-8.5-17.9-18.48-17.9h-42.39a67 67 0 0 1 -20.3-3.13h118.38a20.91 20.91 0 0 0 20.59-20.94 51.62 51.62 0 0 1 51.61-51.61h500.62a67.11 67.11 0 0 1 -66.6 75.69h-52.93a18 18 0 0 0 0 36h114.39a110.23 110.23 0 0 1 55.5 15 110 110 0 0 1 54.67 95.24z" fill="#f9f2de"/><path d="m403.43 438v194.08h-127.37a19.46 19.46 0 0 0 19.47-19.66c-.11-10.77-9.21-19.29-20-19.29h-102.66v-155.13z" fill="#fff5dc"/><path d="m403.42 437.98v194.1h-6.24v-188.52h-224.31v-5.58z" fill="#f2ead7"/><g fill="#fffdf8"><path d="m172.87 488.95h230.56v2.26h-230.56z"/><path d="m219.75 533.9h194.11v2.26h-194.11z" transform="matrix(0 1 -1 0 851.84 218.22)"/><path d="m225.99 437.97h2.26v155.16h-2.26z"/></g><path d="m942.9 398.15h-770v-10.38h755.18a110.91 110.91 0 0 1 14.82 10.38z" fill="#f2ead7"/><path d="m905 377.65v10.12h-453.33a78.7 78.7 0 0 1 78.7-78.7h335.07a67 67 0 0 1 -54.32 27.68h-52.93a18 18 0 0 0 0 36h114.39a110.1 110.1 0 0 1 32.42 4.9z" fill="#fff6de"/><g fill="#f2ead7"><path d="m877.72 261.06h-474a17.4 17.4 0 0 0 16.76-12.68h454.21a63.53 63.53 0 0 1 3.03 12.68z"/><path d="m439.93 194.56v53.82h-8.49v-48.77a36.51 36.51 0 0 0 8.49-5.05z"/><path d="m460.5 159.04h8.49v89.35h-8.49z"/><path d="m489.56 159.04h8.49v89.35h-8.49z"/><path d="m518.63 159.04h8.49v89.35h-8.49z"/><path d="m547.69 159.04h8.49v89.35h-8.49z"/><path d="m576.76 159.04h8.49v89.35h-8.49z"/><path d="m605.82 159.04h8.49v89.35h-8.49z"/><path d="m634.89 159.04h8.49v89.35h-8.49z"/><path d="m663.96 159.04h8.49v89.35h-8.49z"/><path d="m693.02 159.04h8.49v89.35h-8.49z"/><path d="m722.09 159.04h8.49v89.35h-8.49z"/><path d="m751.15 159.04h8.49v89.35h-8.49z"/><path d="m788.71 192v56.35h-8.49v-89.35h.93a36.13 36.13 0 0 1 .65 6.87v7.25a29.12 29.12 0 0 0 6.91 18.88z"/><path d="m817.78 202.79v45.59h-8.49v-46q.9.06 1.83.06a66.59 66.59 0 0 1 6.66.35z"/><path d="m846.84 212.75v35.63h-8.49v-40.17a65.17 65.17 0 0 1 8.49 4.54z"/><path d="m874.83 248.38h-7.41v-15.38a66.82 66.82 0 0 1 7.41 15.38z"/><path d="m313.21 202.46v129.29a20.79 20.79 0 0 1 -8.31 1.86h-1.24v-131.15z"/><path d="m269 306.21v27.4h-10.19v-24.29a5.55 5.55 0 0 0 -5.55-5.55h-104.26a65.31 65.31 0 0 1 -3.61-7h114.19a9.46 9.46 0 0 1 9.42 9.44z"/></g><path d="m982.75 483q0 1.13 0 2.25v.38a3.61 3.61 0 0 1 0 .47v.12c0 .72 0 1.41-.08 2.11v.13c0 .36 0 .73-.06 1.1s0 .9-.09 1.35 0 .71-.07 1.06a.31.31 0 0 0 0 .09c0 .54-.09 1.08-.14 1.63v.31c0 .25-.05.5-.08.75-.07.64-.15 1.29-.23 1.94s-.14 1.13-.22 1.69v.22a109.25 109.25 0 0 1 -7.8 27.84q-1.56 3.65-3.38 7.14a110.19 110.19 0 0 1 -79 58q-2.76.48-5.57.82a109.21 109.21 0 0 1 -13.37.81h-84.66c-4.07-1.09-8.1-2.29-12.07-3.63a207.51 207.51 0 0 1 -30.39-12.87 211 211 0 0 1 -113.73-187.21 210.8 210.8 0 0 1 153.29-202.85 28.75 28.75 0 0 0 3.61 5.38c.53.64 1.09 1.25 1.68 1.84a29.08 29.08 0 0 0 18.9 8.53q.9.06 1.83.06a67.34 67.34 0 0 1 27.23 5.75 65.17 65.17 0 0 1 8.49 4.54 67.16 67.16 0 0 1 20.58 20.25 66.31 66.31 0 0 1 7.35 15.2l.06.16a66.16 66.16 0 0 1 2.89 12.68 67.11 67.11 0 0 1 -24.46 60.81 68.28 68.28 0 0 1 -6.82 4.84 67 67 0 0 1 -35.32 10h-52.93a18 18 0 0 0 -3.65 35.67 17.59 17.59 0 0 0 3.65.37h114.39a110.23 110.23 0 0 1 55.5 15 110.69 110.69 0 0 1 47.25 55.34v.1a110 110 0 0 1 7.42 39.83z" fill="#f0efed"/><path d="m982.75 483v2.63a3.61 3.61 0 0 1 0 .47c0 .79 0 1.57-.09 2.36-.05 1.2-.13 2.4-.23 3.6 0 .54-.09 1.08-.14 1.63 0 .35-.07.71-.11 1.06-.14 1.29-.3 2.58-.48 3.85a109.25 109.25 0 0 1 -7.8 27.84q-1.56 3.65-3.38 7.14a110.19 110.19 0 0 1 -79 58q-2.76.48-5.57.82a109.21 109.21 0 0 1 -13.37.81h-84.58c-4.07-1.09-8.1-2.29-12.07-3.63a207.51 207.51 0 0 1 -30.39-12.87 211.3 211.3 0 0 1 -46.93-33.21 208 208 0 0 1 -14-137.25c21.12-87.32 97.55-153 190.13-158l.06.16a66.16 66.16 0 0 1 2.89 12.68 67.11 67.11 0 0 1 -24.46 60.81 68.28 68.28 0 0 1 -6.82 4.84 67 67 0 0 1 -35.32 10h-52.9a18 18 0 0 0 -3.65 35.67 17.59 17.59 0 0 0 3.65.37h114.39a110.23 110.23 0 0 1 55.5 15 110.69 110.69 0 0 1 47.25 55.34v.1a110 110 0 0 1 7.42 39.78z" fill="#e2e1de"/><g fill="#adadad"><path d="m811.12 336.75h-1.89a164.91 164.91 0 0 1 37.21-10 67 67 0 0 1 -35.32 10z"/><path d="m982.75 483a109.67 109.67 0 0 1 -8.9 43.44q-1.56 3.65-3.38 7.14a110.19 110.19 0 0 1 -79 58q-2.76.48-5.57.82a109.21 109.21 0 0 1 -13.37.81h-84.53c-4.07-1.09-8.1-2.29-12.07-3.63a207.51 207.51 0 0 1 -30.39-12.87 210.27 210.27 0 0 1 -22.54-13.62c-1.27-.87-2.54-1.77-3.79-2.67-.37-.81-.73-1.62-1.08-2.44-1.56-3.56-3-7.21-4.3-10.91-.81-2.31-1.58-4.65-2.29-7a166.48 166.48 0 0 1 -7.16-48.47c0-1.83 0-3.64.1-5.47.1-3.46.32-6.9.64-10.3a164.84 164.84 0 0 1 2.72-18.18c.83-4 1.81-8 2.93-11.94a166.65 166.65 0 0 1 43.75-73.29 17.59 17.59 0 0 0 3.65.37h114.41a110.45 110.45 0 0 1 51.16 12.57c1.47.79 2.91 1.58 4.34 2.41.78.46 1.55.92 2.32 1.4a109 109 0 0 1 9.86 6.86c.89.69 1.77 1.4 2.64 2.12s2 1.64 2.9 2.5a110.41 110.41 0 0 1 29.53 42.46v.1a110 110 0 0 1 7.42 39.79z"/><path d="m886 470.75v86.86l-47.11 35.52h-56.1a19.48 19.48 0 1 0 0 39h4.43l-247.22 186.34v-77a19.66 19.66 0 0 1 7.82-15.71l197.7-149.13z"/><path d="m488.19 633.82a34.51 34.51 0 0 0 4.41 15.66 49.53 49.53 0 0 0 73.91 14.58 57.54 57.54 0 0 1 86.75 18.62l21.92 42.2a4 4 0 0 1 -1.71 5.4 4.06 4.06 0 0 1 -1.84.45 4 4 0 0 1 -3.55-2.16l-21.92-42.21a49.54 49.54 0 0 0 -74.69-16 57.5 57.5 0 0 1 -83.29-12.82q-1.37-2-2.56-4.12a42.92 42.92 0 0 1 -3.4-7.78 42.39 42.39 0 0 1 15.71-47.56l212.86-152.37 101.89-72.92h13.75l-118.57 84.86-205.27 146.91a34.37 34.37 0 0 0 -14.4 29.26z"/></g><g fill="#33313f"><path d="m544.31 253.84h49.8a10.63 10.63 0 0 1 10.63 10.63v114.71a35.85 35.85 0 0 1 -35.85 35.82 35.85 35.85 0 0 1 -35.89-35.82v-114.06a11.27 11.27 0 0 1 11.27-11.27z"/><ellipse cx="569.1" cy="266.82" rx="35.65" ry="42.05"/><path d="m544.31 253.84h49.8a10.63 10.63 0 0 1 10.63 10.63v114.71a35.85 35.85 0 0 1 -35.85 35.82 35.85 35.85 0 0 1 -35.89-35.82v-114.06a11.27 11.27 0 0 1 11.27-11.27z"/><ellipse cx="569.1" cy="266.82" rx="35.65" ry="42.05"/></g><g fill="#535267"><path d="m597.74 264.47v2.34c0-1.42-.06-2.85-.17-4.23a10.63 10.63 0 0 1 .17 1.89z"/><path d="m604.74 264.47v2.34c0-1.42-.07-2.85-.18-4.23a10.62 10.62 0 0 1 .18 1.89z"/><path d="m597.74 264.47v2.34c0-1.42-.06-2.85-.17-4.23a10.63 10.63 0 0 1 .17 1.89z"/><path d="m604.74 266.81v112.37a35.85 35.85 0 0 1 -35.85 35.82 31.19 31.19 0 0 1 -3.5-.18 35.83 35.83 0 0 0 32.35-35.67v-114.68a10.63 10.63 0 0 0 -.17-1.89v-.07a49.7 49.7 0 0 0 -1.5-8.49c-4.25-15.7-16.12-27.4-30.47-29a28.81 28.81 0 0 1 3.49-.21c18.46 0 33.64 16.55 35.47 37.74v.07c.11 1.38.18 2.77.18 4.19z"/><path d="m597.74 264.47v2.34c0-1.42-.06-2.85-.17-4.23a10.63 10.63 0 0 1 .17 1.89z"/></g><path d="m669.6 439.51h-35.06a5.26 5.26 0 0 0 -5.26 5.26v11.28h3.41v-9.51a4.19 4.19 0 0 1 4.19-4.2h30.38a4.2 4.2 0 0 1 4.2 4.2v9.51h3.4v-11.28a5.26 5.26 0 0 0 -5.26-5.26z" fill="#37639b"/><rect fill="#ffb2bf" height="24.2" rx="5.76" transform="matrix(-.99997313 -.00733032 .00733032 -.99997313 927.6 598.57)" width="11.52" x="459.13" y="285.49"/><rect fill="#ffb2bf" height="30.1" rx="5.76" transform="matrix(-.5 .8660254 -.8660254 -.5 913.05 44.78)" width="11.52" x="437.84" y="270.92"/><circle cx="564.38" cy="235.98" fill="#ffab00" r="21.48"/><path d="m555.21 255.4c.62.29 1.25.55 1.91.79a21.48 21.48 0 0 0 14.53-40.42 17.81 17.81 0 0 0 -2-.6 21.48 21.48 0 0 1 -14.47 40.23z" fill="#ea9600"/><path d="m545.6 219.16h5.49a22.7 22.7 0 0 1 22.7 22.7v27.64a29.77 29.77 0 0 1 -29.79 29.78h-.45a29.77 29.77 0 0 1 -29.75-29.78v-18.5a31.8 31.8 0 0 1 31.8-31.84z" fill="#33313f" transform="matrix(.99647824 .08385176 -.08385176 .99647824 23.66 -44.71)"/><path d="m558.87 614.15 56.25 111.45-31.5 12.64-56.25-111.45z" fill="#f9a0b4"/><path d="m558.87 614.15 16.12 31.95-31.5 12.63-16.12-31.94z" fill="#f490aa"/><path d="m558.17 727.53h39.69a0 0 0 0 1 0 0 14.09 14.09 0 0 1 -14.09 14.09h-25.6a0 0 0 0 1 0 0v-14.09a0 0 0 0 1 0 0z" fill="#f9a0b4" transform="matrix(-.92816139 .37217795 -.37217795 -.92816139 1387.94 1201.19)"/><g fill="#37639b"><path d="m555.52 751.78a6.93 6.93 0 0 0 9 3.81l16.26-6.59 36.91-15a4.72 4.72 0 0 0 2.9-3.74 4.8 4.8 0 0 0 -.31-2.41 4.72 4.72 0 0 0 -5.8-2.72l-37.33 11.9-17.31 5.52a6.91 6.91 0 0 0 -4.32 9.23z"/><rect height="17.68" rx="3.11" transform="matrix(-.93 .37 -.37 -.93 1380.35 1203.1)" width="6.21" x="570.93" y="725.96"/><path d="m603.14 733.46 13.36-5.36-13.19-26.1-.71.29a11.67 11.67 0 0 0 -6.34 15.54z"/><rect height="8.23" rx="4.11" transform="matrix(-.92816139 .37217795 -.37217795 -.92816139 1399.86 1162.5)" width="35.17" x="570.12" y="712.27"/></g><path d="m599.98 618.44 19.37 128.65h-33.94l-19.38-128.65z" fill="#ffb2bf"/><path d="m599.98 618.44 6.01 39.93h-33.94l-6.02-39.93z" fill="#f9a0b4"/><path d="m561.6 734.56h39.69a0 0 0 0 1 0 0 14.09 14.09 0 0 1 -14.09 14.09h-25.6a0 0 0 0 1 0 0v-14.09a0 0 0 0 1 0 0z" fill="#ffb2bf" transform="matrix(-1 0 0 -1 1162.88 1483.22)"/><g fill="#62a9fa"><path d="m554.16 749.2a6.94 6.94 0 0 0 7 6.9l17.52-.08 39.83-.17a4.72 4.72 0 0 0 4.09-2.39 4.81 4.81 0 0 0 .61-2.35 4.73 4.73 0 0 0 -4.38-4.69l-39.07-2.85-18.12-1.32a6.92 6.92 0 0 0 -7.48 6.95z"/><rect height="17.68" rx="3.11" transform="matrix(-1 0 0 -1 1155.33 1480.67)" width="6.21" x="574.56" y="731.5"/><path d="m605.18 749.92h14.39l-4.14-29.09a10.86 10.86 0 0 0 -10.86 11.23z"/><rect height="8.23" rx="4.11" transform="matrix(-1 0 0 -1 1194.43 1456.66)" width="35.17" x="579.63" y="724.22"/><path d="m570.31 636.8h-53.37l-.87-16.21c-4.76-77.54-12.12-178-10.69-200.82h53.37l10.69 200.82z"/></g><g fill="#ffb2bf"><rect height="32.95" rx="6.03" transform="matrix(-.98166047 .19063767 -.19063767 -.98166047 1354.74 732.14)" width="12.05" x="636.11" y="414.78"/><path d="m543.21 332a16.68 16.68 0 0 0 5.09 11.41l21.5 20.76 4.75 4.59 61.19 59.09a16.76 16.76 0 0 0 23.26-24.07l-77.77-75.09-9.67-9.34a16.75 16.75 0 0 0 -28.35 12.65z"/><ellipse cx="654.61" cy="422.39" rx="18.95" ry="22.49" transform="matrix(.62578735 -.77999372 .77999372 .62578735 -84.5 668.64)"/></g><path d="m456 360.88a16.82 16.82 0 0 0 26.23 13.31l14.11-9.58 1.23-.84 31-21a16.78 16.78 0 0 0 4.47-23.33 16.81 16.81 0 0 0 -23.31-4.44l-4.11 2.78-24.27 16.46-1.88 1.28-16.09 10.91a16.79 16.79 0 0 0 -7.38 14.45z" fill="#f9a0b4"/><path d="m566.25 356.86v44.35a30.47 30.47 0 0 1 -51.89 21.25 29.8 29.8 0 0 1 -8.91-21.25v-44.35z" fill="#fdd55f"/><path d="m566.25 346.42v37.74l-60.8-6.38v-31.36z" fill="#ffb460"/><path d="m456 359.62a16.78 16.78 0 0 0 22.73 3.65l10.81-7.27a6.89 6.89 0 0 0 3-5.75v-1.59a42.72 42.72 0 0 1 13.11-30.89l4.11-2.78a16.78 16.78 0 0 1 22.72 3.66c.21.27.41.54.6.82a16.78 16.78 0 0 1 -4.47 23.33l-31 21-1.23.84-14.11 9.58a16.82 16.82 0 0 1 -26.27-13.34c0-.42 0-.88 0-1.26z" fill="#f490aa"/><path d="m543.31 333.37a16.52 16.52 0 0 1 -.09-2.9.81.81 0 0 0 0-.16c0-.51.09-1 .17-1.52 0-.05 0-.09 0-.14.08-.49.18-1 .31-1.47 0 0 0-.06 0-.09.13-.48.29-1 .46-1.44l.09-.25q.27-.7.6-1.38s.05-.09.07-.13a13.89 13.89 0 0 1 .73-1.3l.09-.16c.27-.43.57-.84.88-1.25a1.84 1.84 0 0 0 .17-.22 14.91 14.91 0 0 1 1.06-1.2l.14-.15c.12-.12.23-.22.35-.32a16.74 16.74 0 0 1 23.2.06l9.67 9.34a42.57 42.57 0 0 1 4.92 19.93v1.71a41.3 41.3 0 0 0 12.41 30.2l35.46 34.16 12.5 12.07c.88 9.35 17.36 15.77 25.48 4.33a18.37 18.37 0 0 0 3.54-8.81 17.45 17.45 0 0 1 -3.33 14.18 16.51 16.51 0 0 1 -7.39 5.21h-.13a18.57 18.57 0 0 1 -2.35.66l-.29.05c-.34.07-.67.13-1 .17h-.24c-.41.05-.83.09-1.24.12h-.22c-.35 0-.71 0-1.06 0h-.32a22.18 22.18 0 0 1 -2.56-.18h-.31l-1.08-.09h-.24c-.44-.09-.87-.18-1.3-.3l-.21-.05-1.11-.33-.29-.09a23.5 23.5 0 0 1 -2.58-1c-.09 0-.17-.08-.26-.12-.37-.18-.75-.36-1.12-.56a.8.8 0 0 0 -.16-.08c-.43-.24-.85-.49-1.28-.75l-.11-.07c-.38-.24-.76-.49-1.14-.76l-.18-.13c-.41-.29-.82-.59-1.22-.92a25.77 25.77 0 0 1 -6.14-7 .43.43 0 0 1 0-.07l-.05-.07a23.21 23.21 0 0 1 -1.3-2.59l-87.01-84.06c-.24-.23-.46-.47-.69-.71l-.08-.09-.23-.27-.23-.26-.07-.12-.11-.15c-.17-.2-.32-.41-.48-.62l-.1-.15v-.07l-.18-.26-.23-.34-.07-.11-.23-.4c-.11-.2-.23-.39-.34-.6s-.27-.52-.39-.79-.18-.37-.26-.55l-.08-.17s0-.08 0-.11c-.1-.25-.2-.5-.28-.75l-.06-.16a.24.24 0 0 1 0-.08l-.06-.17-.15-.49s0-.09 0-.14c-.07-.25-.13-.5-.19-.74s0 0 0-.06c-.1-.44-.17-.89-.23-1.33-.22-.17-.23-.28-.25-.39z" fill="#f9a0b4"/><path d="m494.82 344.91-.13 1.55a20.74 20.74 0 0 0 18.89 22.43l44.33 3.81a20.74 20.74 0 0 0 22.44-18.89l.13-1.55a42.74 42.74 0 0 0 -5.6-25.14 41.2 41.2 0 0 0 -4.35-6.21c-.61-.74-1.27-1.46-1.95-2.17a41.29 41.29 0 0 0 -4.57-4.1c-.09-.07-.18-.15-.27-.21s-.41-.3-.61-.45a41.5 41.5 0 0 0 -6.69-4.05 42.92 42.92 0 0 0 -37.41-.08l-.6.3c-.74.37-1.47.76-2.18 1.18a43.92 43.92 0 0 0 -4 2.59 42.84 42.84 0 0 0 -17.44 31z" fill="#fdd55f"/><path d="m519 309.85a22.48 22.48 0 0 0 44.71 4.58c-.2-.16-.41-.3-.61-.45a41.5 41.5 0 0 0 -6.69-4.05 42.92 42.92 0 0 0 -37.41-.08z" fill="#ffb2bf"/><path d="m494.82 344.91-.13 1.55a20.73 20.73 0 0 0 18.89 22.43l13.79 1.19a46.29 46.29 0 0 1 -10.37-59.18l-.76.43a40 40 0 0 0 -4 2.59 42.82 42.82 0 0 0 -17.44 31z" fill="#ffb460"/><path d="m536 438 31.82 184.71 2.79 16.21h53.36l-2.78-16.21-31.44-184.71z" fill="#62a9fa"/><path d="m505.38 397.32a61.14 61.14 0 0 1 61.14 61.14v26.23a0 0 0 0 1 0 0h-61.14a0 0 0 0 1 0 0v-87.37a0 0 0 0 1 0 0z" fill="#62a9fa" transform="matrix(-1 0 0 -1 1071.9 882.02)"/><path d="m505.38 397.32h61.14v9.8h-61.14z" fill="#37639b" transform="matrix(-1 0 0 -1 1071.9 804.44)"/><path d="m553.39 292.05-.55 5.42-1.2 11.7a9.47 9.47 0 0 1 -18.84-1.93l.12-1.23 1.64-15.89a9.46 9.46 0 1 1 18.83 1.93z" fill="#ffb2bf"/><circle cx="554.96" cy="445.28" fill="#62a9fa" r="35.54"/><path d="m553.39 292.05-.55 5.42a31.72 31.72 0 0 1 -19.92 8.53l1.64-15.89a9.46 9.46 0 1 1 18.83 1.93z" fill="#f9a0b4"/><path d="m573.15 251.12-2.8 20.51a31.85 31.85 0 0 1 -35.85 27.25 24.57 24.57 0 0 1 -21-27.67l2.32-17.21a2.87 2.87 0 0 0 0-.31c.07-.47.15-.94.24-1.4a33 33 0 0 1 36.41-26.57l.45.06 1 .14a21.71 21.71 0 0 1 4.14 1 22.38 22.38 0 0 1 15.09 24.2z" fill="#ffb2bf"/><path d="m576.39 266.16-5-13.24a12.14 12.14 0 0 0 -2.06-3.49l.72-.1c.26-.05 1.18-3.41 1.21-3.66a.55.55 0 0 0 0-.18 29 29 0 0 0 -13.08-18.6 21.71 21.71 0 0 0 -4.14-1l-1-.14-.45-.06a33 33 0 0 0 -36.41 26.57 28.92 28.92 0 0 0 17.78 1.81l9.79-1.3a14.79 14.79 0 0 1 15.75 9.41 12.08 12.08 0 0 0 15.58 7 2.38 2.38 0 0 0 1.31-3.02z" fill="#f9a0b4"/><path d="m559.18 239.86h3.39a17.32 17.32 0 0 1 17.32 17.32v9.82a3.39 3.39 0 0 1 -3.39 3.39 17.32 17.32 0 0 1 -17.32-17.39v-13.14a0 0 0 0 1 0 0z" fill="#33313f" transform="matrix(.99647824 .08385176 -.08385176 .99647824 23.41 -46.88)"/><circle cx="569.98" cy="265.53" fill="#ffb2bf" r="9.97"/><path d="m573.38 265.3a4.27 4.27 0 0 0 -2.94-3.68 1.23 1.23 0 0 0 -1.55 1.3l.5 5.52a1.23 1.23 0 0 0 1.85.94 4.25 4.25 0 0 0 2.14-4.08z" fill="#f9a0b4"/><g fill="#62a9fa"><path d="m516.67 397.32h3.6v9.8h-3.6z"/><path d="m531.9 397.32h3.6v9.8h-3.6z"/><path d="m547.12 397.32h3.6v9.8h-3.6z"/></g><circle cx="526.85" cy="260.16" fill="#33313f" r="2.37"/><circle cx="548.4" cy="261.97" fill="#33313f" r="2.37"/><path d="m516.17 622.72h104.96l2.79 16.21h-106.87z" fill="#37639b"/><g fill="#af437c"><ellipse cx="533.52" cy="272.69" rx="2.68" ry="3.21" transform="matrix(.09115401 -.99583681 .99583681 .09115401 213.31 779.12)"/><ellipse cx="538.39" cy="273.14" rx="2.68" ry="3.21" transform="matrix(.09115401 -.99583681 .99583681 .09115401 217.29 784.38)"/><path d="m530.32 272.4 11.27 1c-.22 2.4-2.92 4.11-6 3.83s-5.49-2.44-5.27-4.83z"/></g><path d="m533.21 273.34c-.08.83 1 1.6 2.42 1.73s2.62-.43 2.7-1.26z" fill="#c16b9c"/><path d="m564.76 411.12a35.51 35.51 0 0 1 14 21.51l.45 2.61v.14c.11.87.19 1.74.23 2.63h.22l4.65 27.35 29.49 173.57h10.12l-33.72-198.35c-.12-.87-.27-1.73-.44-2.57a35.55 35.55 0 0 0 -25-26.89z" fill="#85c2ff"/><path d="m623.92 638.93h-10.12l-2.78-16.21h10.11z" fill="#62a9fa"/><path d="m488.92 364.34a16.81 16.81 0 0 1 -27.18 8.48l-.49-.44c-.16-.15-.31-.29-.45-.45a.77.77 0 0 1 -.18-.18l-.3-.31c-.23-.26-.47-.52-.68-.79s-.31-.39-.46-.58a16.83 16.83 0 0 1 -1.24-1.94c-.1-.18-.2-.37-.29-.56s-.19-.39-.28-.59a11.88 11.88 0 0 1 -.53-1.33l-16.78-47.49-1.88-5.3c-.21-.63-.39-1.25-.54-1.88a16.81 16.81 0 0 1 10.79-19.56 17 17 0 0 1 5-.95 16.82 16.82 0 0 1 16.42 11.19l18.66 52.8a16.73 16.73 0 0 1 .41 9.88z" fill="#ffb2bf"/><ellipse cx="448.06" cy="302.33" fill="#ffb2bf" rx="17.77" ry="22.54" transform="matrix(.35086122 -.93642747 .93642747 .35086122 7.75 615.85)"/><path d="m464 372.1c-.17-.14-.33-.28-.49-.44s-.31-.29-.46-.44l-.18-.18-.3-.31c-.23-.26-.46-.52-.68-.79l-.45-.59a15.89 15.89 0 0 1 -1.24-1.93 5.93 5.93 0 0 1 -.29-.56 6.45 6.45 0 0 1 -.29-.59c-.19-.43-.37-.88-.53-1.33l-16.09-45.57-.65-1.82a28.93 28.93 0 0 1 -3-1.59c-8.62-5.23-13.06-14.4-10.12-22.25a15.78 15.78 0 0 1 9.48-9c-5.47 1.42-9.84 4.83-11.69 9.77-3.27 8.72 2.56 19.07 13.14 23.83l16.75 47.4a12.53 12.53 0 0 0 .53 1.32c.09.2.18.4.28.59s.19.38.29.57a17.61 17.61 0 0 0 1.24 1.93c.15.2.3.39.46.58s.45.54.68.79l.3.32.18.18c.14.15.29.29.45.44l.49.44a16.83 16.83 0 0 0 16.54 3.08l.62-.24a16.82 16.82 0 0 1 -14.97-3.61z" fill="#f9a0b4"/><rect fill="#37639b" height="56.65" rx="8.37" width="89.77" x="607.84" y="451.55"/><rect fill="#37639b" height="56.65" rx="8.37" width="89.77" x="607.84" y="451.55"/><path d="m697.62 459.92v39.91a8.37 8.37 0 0 1 -8.37 8.37h-8.06a8.37 8.37 0 0 0 8.36-8.37v-39.91a8.37 8.37 0 0 0 -8.36-8.37h8.06a8.37 8.37 0 0 1 8.37 8.37z" fill="#2a5787"/><g fill="#245489"><path d="m622.94 476.22h5.89a0 0 0 0 1 0 0v5.25a2.95 2.95 0 0 1 -2.95 2.95 2.95 2.95 0 0 1 -2.95-2.95v-5.25a0 0 0 0 1 .01 0z"/><path d="m675.67 476.22h5.89a0 0 0 0 1 0 0v5.25a2.95 2.95 0 0 1 -2.95 2.95 2.95 2.95 0 0 1 -2.95-2.95v-5.25a0 0 0 0 1 .01 0z"/><path d="m607.84 465.43h89.77v2.26h-89.77z"/><path d="m641.59 465.43h22.27a0 0 0 0 1 0 0v7.23a5 5 0 0 1 -5 5h-12.2a5 5 0 0 1 -5-5v-7.23a0 0 0 0 1 -.07 0z"/></g><circle cx="523.59" cy="225.47" fill="#33313f" r="24.98"/><circle cx="554.63" cy="232.66" fill="#33313f" r="21.41"/><g fill="#535267"><path d="m576 232.66a21.07 21.07 0 0 1 -1.21 7.09 21.41 21.41 0 0 0 -21.22-18.68 21.78 21.78 0 0 0 -5.32.66 20.63 20.63 0 0 0 -3.9 1.43 25 25 0 0 0 -21.82-12.85 25 25 0 0 0 -23.85 17.49c-.07-.76-.11-1.54-.11-2.33a25 25 0 0 1 46.81-12.13 21.4 21.4 0 0 1 30.62 19.32z"/><rect height="55.25" rx="4.31" width="8.62" x="585.07" y="271.55"/><circle cx="524.92" cy="230.39" r="10.57"/></g><rect fill="#62a9fa" height="8.2" rx="1.65" width="10.5" x="620.64" y="469.88"/><rect fill="#62a9fa" height="8.2" rx="1.65" width="10.5" x="673.37" y="469.88"/><path d="m982.75 483a109.67 109.67 0 0 1 -8.9 43.44q-1.56 3.65-3.38 7.14l-79 58q-2.76.48-5.57.82a109.21 109.21 0 0 1 -13.37.81h-89.79a19.48 19.48 0 1 0 0 39h26.83a66.66 66.66 0 0 1 21.76 3.61l-295.76 217.01a7.73 7.73 0 0 1 -12.31-6.24v-65.28a12.46 12.46 0 0 1 5.07-10l11.67-8.6 236-173.21 110-80.78 89.38-65.61v.1a110 110 0 0 1 7.37 39.79z" fill="#e2e1de"/><path d="m681.72 487.58h7v138.18h-7z" fill="#adadad" transform="matrix(.81522889 -.5791389 .5791389 .81522889 -195.78 499.7)"/><path d="m930.4 389.17-216.55 157.9-20.52 15-2.79 2-4.13-5.65 2.86-2.1 22.29-16.25 212.18-154.71c1.47.79 2.91 1.58 4.34 2.41.78.46 1.55.92 2.32 1.4z" fill="#adadad"/><g fill="#e2e1de"><path d="m490.73 645.61a34.39 34.39 0 0 0 1.87 29.94 49.55 49.55 0 0 0 73.91 14.6 57.52 57.52 0 0 1 86.75 18.6l18.49 35.61a4 4 0 0 1 -1.7 5.4 4.06 4.06 0 0 1 -1.84.45 4 4 0 0 1 -3.56-2.16l-18.49-35.62a49.53 49.53 0 0 0 -74.69-16 57.54 57.54 0 0 1 -85.85-17 42.42 42.42 0 0 1 12.31-55.33l207.21-148.3 144-103h13.74l-158.38 113.33-201.91 144.5a34.34 34.34 0 0 0 -11.86 14.98z"/><path d="m642.34 539h7v138.18h-7z" transform="matrix(.81522889 -.5791389 .5791389 .81522889 -232.84 486.39)"/><path d="m945.8 400.65-222.8 162.44-19 13.91-5.66 4.12-44.34 32.34-2.79 2-4.21-5.62 2.87-2.09 44.34-32.33 5.66-4.13 18.28-13.29 222.11-162c.89.69 1.77 1.4 2.64 2.12s1.95 1.67 2.9 2.53z"/></g><path d="m982.75 483q0 1.13 0 2.25v.38a3.61 3.61 0 0 1 0 .47v.12c0 .72 0 1.41-.08 2.11v.13c0 .36 0 .73-.06 1.1s0 .9-.09 1.35 0 .71-.07 1.06a.31.31 0 0 0 0 .09c0 .54-.09 1.08-.14 1.63v.31c0 .25-.05.5-.08.75-.07.64-.15 1.29-.23 1.94s-.14 1.13-.22 1.69v.22a216 216 0 0 1 -320-189.49 215.8 215.8 0 0 1 93.92-178.25 33.45 33.45 0 0 1 3.79 1.35 36.45 36.45 0 0 1 21.66 26.79 36.13 36.13 0 0 1 .65 6.87v7.25a29.13 29.13 0 0 0 3.3 13.5 28.75 28.75 0 0 0 3.61 5.38c.53.64 1.09 1.25 1.68 1.84a29.08 29.08 0 0 0 18.9 8.53q.9.06 1.83.06a67.34 67.34 0 0 1 27.23 5.75 65.17 65.17 0 0 1 8.49 4.54 67.16 67.16 0 0 1 20.58 20.28 66.31 66.31 0 0 1 7.35 15.2l.06.16a66.16 66.16 0 0 1 2.89 12.68 67.11 67.11 0 0 1 -24.46 60.81 68.28 68.28 0 0 1 -6.82 4.84 67 67 0 0 1 -35.32 10h-52.93a18 18 0 0 0 -3.65 35.67 17.59 17.59 0 0 0 3.65.37h114.39a110.23 110.23 0 0 1 55.5 15 110.69 110.69 0 0 1 47.25 55.34v.1a110 110 0 0 1 7.42 39.83z" fill="#898989"/><path d="m215.36 250.71a1.19 1.19 0 0 0 -.58 1.57l2.68 5.76a1.25 1.25 0 0 0 .67.63 1.41 1.41 0 0 0 .41.07 1.25 1.25 0 0 0 .5-.11l20.3-9.48-1.84 19.22a1.24 1.24 0 0 0 .39 1 5.27 5.27 0 0 0 3.16 1.19 3.73 3.73 0 0 0 .94-.12c1.65-.43 2.93-1.9 3.8-4.41l8-23.65 15.81-7.38c4.66-2.17 7-6.58 5.44-10a6 6 0 0 0 -4.67-3.26 11.21 11.21 0 0 0 -6.52 1l-18.25 8.56-19.6-7.68c-2.48-.93-4.43-.91-5.81.08a4.88 4.88 0 0 0 -1.78 3.86 1.18 1.18 0 0 0 .52.94l13.21 9.09-7.57 3.58-12.72-3.17a1.18 1.18 0 0 0 -1.32.57l-3.17 5.7a1.19 1.19 0 0 0 .62 1.68l9.4 3.88z" fill="#f9f2de"/></svg>