<svg viewBox="0 0 1000 1000" xmlns="http://www.w3.org/2000/svg"><path d="m27.86 639.21v10.41a132.39 132.39 0 0 0 132.41 132.38h53.73a27.32 27.32 0 0 1 27.31 27.32v101.93h456.69v-101.91a27.29 27.29 0 0 1 17.36-25.43 27 27 0 0 1 10-1.89h90.34q2.13 0 4.26-.06a137.22 137.22 0 0 0 84.32-32.24q4.53-3.81 8.71-8a137.6 137.6 0 0 0 -97.29-234.91h-106.05a35.76 35.76 0 1 1 0-71.51h178.88a83.61 83.61 0 0 0 0-167.22 69.3 69.3 0 0 1 -69.3-69.29v-70.6a27.31 27.31 0 0 0 -27.31-27.32h-636.59a83.61 83.61 0 1 0 0 167.21h68a48.6 48.6 0 0 1 48.6 48.59 48.6 48.6 0 0 1 -48.6 48.59c-.89 0-1.77 0-2.65.06a63 63 0 0 0 -60.36 63v43a43.92 43.92 0 0 1 -31.32 42.08c-25.56 7.65-60.88 23.78-82.31 57a112.89 112.89 0 0 0 -13.13 28.38 137.49 137.49 0 0 0 -5.7 40.43z" fill="#f3f4fe"/><rect fill="#d2d6fa" height="489.69" rx="17.7" width="855.91" x="62.31" y="71.14"/><rect fill="#f3f4fe" height="358.56" rx="28.4" width="406.67" x="458.39" y="155.67"/><path d="m562.13 293.41 72.44-15.16a74.31 74.31 0 0 1 1.57 15.16c0 40.6-33.41 74-74 74s-74-33.41-74-74 33.41-74 74-74z" fill="#bcbff6"/><g fill="#d2d6fa"><path d="m562.13 293.41-15.13-72.41a74.33 74.33 0 0 1 15.17-1.57c40.6 0 74 33.41 74 74s-33.41 74-74 74-74-33.41-74-74z"/><rect height="23.75" rx="11.88" width="41.89" x="656.79" y="252.92"/><rect height="23.75" rx="11.88" width="130.92" x="708.86" y="252.92"/><rect height="23.75" rx="11.88" width="75.95" x="710.65" y="286.05"/><rect height="23.75" rx="11.88" width="130.92" x="708.86" y="317.55"/><rect height="23.75" rx="11.88" width="351.66" x="488.12" y="407.06"/><rect height="37.76" rx="18.88" width="351.66" x="488.12" y="440.79"/><rect height="23.75" rx="11.88" width="41.89" x="656.79" y="317.55"/></g><rect fill="#bcbff6" height="94.57" rx="11.38" width="247.78" x="124.17" y="149.75"/><rect fill="#f3f4fe" height="68.9" rx="5.7" width="85.34" x="134.05" y="162.58"/><g fill="#d2d6fa"><rect height="27.17" rx="4.09" width="8.19" x="149.19" y="200.38"/><rect height="37.61" rx="4.09" width="8.19" x="163.07" y="189.93"/><rect height="49.24" rx="4.09" width="8.19" x="177.08" y="178.3"/><rect height="58.09" rx="4.09" width="8.19" x="195" y="169.45"/></g><rect fill="#f3f4fe" height="9.25" rx="4.63" width="125.69" x="233.84" y="174.38"/><rect fill="#f3f4fe" height="9.25" rx="3.79" width="84.48" x="233.84" y="194.15"/><path d="m80 71.14h820.52a17.7 17.7 0 0 1 17.7 17.7v24.16a0 0 0 0 1 0 0h-855.91a0 0 0 0 1 0 0v-24.16a17.7 17.7 0 0 1 17.69-17.7z" fill="#bcbff6"/><g fill="#fff"><circle cx="175.6" cy="92.09" r="10.1"/><circle cx="137.88" cy="92.09" r="10.1"/><circle cx="213.31" cy="92.09" r="10.1"/></g><g fill="#bcbff6"><rect height="181.27" rx="27.69" width="104.48" x="124.17" y="333.29"/><rect height="103.79" rx="20.95" width="104.48" x="246.82" y="410.77"/><rect height="65.09" rx="13.54" width="69.59" x="369.95" y="449.47"/></g><rect fill="#d2d6fa" height="17.61" rx="8.8" transform="matrix(-1 0 0 -1 201.46 1840.11)" width="74.06" x="63.7" y="911.25"/><rect fill="#d2d6fa" height="17.61" rx="8.8" transform="matrix(-1 0 0 -1 1099.8 1840.11)" width="809.94" x="144.93" y="911.25"/><rect fill="#f9a0b4" height="47.83" rx="9.35" transform="matrix(-.94876577 .31598024 -.31598024 -.94876577 539.25 358.01)" width="18.71" x="231.25" y="198.79"/><circle cx="238.17" cy="241.02" fill="#f9a0b4" r="18.43"/><path d="m540.17 911.23h-79.06a39.53 39.53 0 0 1 79.06 0z" fill="#33557a"/><path d="m426.83 911.23h-79.06a39.53 39.53 0 1 1 79.06 0z" fill="#33557a"/><path d="m415.45 536.76v374.46h-56.31v-347c0-15.18 8.08-27.5 18-27.5z" fill="#ffb2bf"/><path d="m359.14 822.61h56.31v88.62h-56.31z" fill="#d5e6bc"/><path d="m359.14 822.61h14.08v88.62h-14.08z" fill="#c3d3a7"/><path d="m387.3 822.61h14.08v88.62h-14.08z" fill="#c3d3a7"/><path d="m359.14 810.32h56.31v12.28h-56.31z" fill="#f9a0b4"/><path d="m531.26 896.92h-57.26l-15.4-81.74-33.6-178.6-9.57-50.94-2.52-13.43c-1.58-8.39-.48-16.36 2.52-22.06 2.34-4.43 5.83-7.49 10.11-8.29l37.62-7.07 19.14 101.79 31.62 168.2z" fill="#ffb2bf"/><path d="m531.26 896.92h-57.28l-15.38-81.74 55.34-10.4z" fill="#d5e6bc"/><path d="m466.73 813.09h14.08v88.62h-14.08z" fill="#c3d3a7" transform="matrix(.98251545 -.18618108 .18618108 .98251545 -151.35 103.2)"/><path d="m494.39 807.85h14.08v88.62h-14.08z" fill="#c3d3a7" transform="matrix(.98251545 -.18618108 .18618108 .98251545 -149.89 108.26)"/><path d="m512.03 795.04-55.22 10.74 1.79 9.4 55.34-10.4z" fill="#f9a0b4"/><path d="m482.32 636.58h-57.32l-9.57-50.94v50.94h-56.29v-72.32c0-15.18 8.08-27.5 18-27.5h38.29v13.39c2.34-4.43 5.83-7.49 10.11-8.29l37.62-7.07z" fill="#f9a0b4"/><path d="m347.18 895.41 78.88-8.73a12.3 12.3 0 0 1 13.66 12.23 12.31 12.31 0 0 1 -12.31 12.31h-79.36a7.93 7.93 0 0 1 -7.93-7.93 7.93 7.93 0 0 1 7.06-7.88z" fill="#55a4ab"/><path d="m439.71 898.92a12.29 12.29 0 0 1 -12.3 12.3h-19.65a12.3 12.3 0 0 0 5.82-23.15l12.48-1.39a12.3 12.3 0 0 1 13.65 12.24z" fill="#33557a"/><path d="m460.52 895.41 78.88-8.73a12.3 12.3 0 0 1 13.66 12.23 12.31 12.31 0 0 1 -12.31 12.31h-79.36a7.93 7.93 0 0 1 -7.93-7.93 7.93 7.93 0 0 1 7.06-7.88z" fill="#55a4ab"/><path d="m553.06 898.92a12.31 12.31 0 0 1 -12.31 12.3h-19.64a12.3 12.3 0 0 0 5.81-23.15l12.48-1.39a12.31 12.31 0 0 1 13.66 12.24z" fill="#33557a"/><path d="m379.58 422.35a26 26 0 0 1 -35.26-.63c-.51-.48-1-1-1.48-1.52l-15.2-17.08-111.22-125a26 26 0 1 1 38.87-34.59l85.06 95.6 22.11 24.87 19.25 21.64a26 26 0 0 1 -2.13 36.71z" fill="#ffb2bf"/><path d="m381.71 385.62-19.25-21.62-22.11-24.84c0 .24-.06.47-.09.71 0 0 5.41 19.61-12.62 63.27l15.2 17.08c.47.53 1 1 1.48 1.52a26 26 0 0 0 37.39-36.1z" fill="#f9a0b4"/><g fill="#ffb2bf"><path d="m507.86 484.67a26 26 0 0 1 -35.36-10.21l-12.4-22.46-7.43-13.46-22.06-40a26 26 0 0 1 9.8-35.12l.41-.23a26 26 0 0 1 35.34 10.21l3.23 5.84 38.67 70.09a26 26 0 0 1 -10.2 35.34z"/><rect height="138.76" rx="26.02" transform="matrix(.00471237 .9999889 -.9999889 .00471237 998.42 -79.32)" width="52.03" x="513.04" y="392.56"/><ellipse cx="592.81" cy="455.56" rx="34.91" ry="27.53" transform="matrix(.63917059 -.76906499 .76906499 .63917059 -136.44 620.34)"/></g><path d="m615.12 428.7c-11.08-9.21-29.17-6-41.52 7.06l-62.86.3-34.58-62.67a26 26 0 0 0 -48.54 8.92 26 26 0 0 1 46.24-1.31l30.42 55.11 4.16 7.56h6.47l52.88-.24h3.51a42.53 42.53 0 0 1 9.65-7.63c10.93-6.23 23.43-6.44 31.86.57 7.19 6 9.77 15.81 7.8 25.95 5.27-12.65 3.5-26.14-5.49-33.62z" fill="#f9e0e5" opacity=".38"/><rect fill="#55a4ab" height="7.8" rx="3.9" transform="matrix(.00471237 .9999889 -.9999889 .00471237 1018.5 -99.68)" width="69.07" x="524.8" y="457.94"/><rect fill="#55a4ab" height="7.8" rx="3.9" transform="matrix(.00471237 .9999889 -.9999889 .00471237 1009.25 -89.65)" width="60.63" x="519.35" y="458.31"/><path d="m371.45 431.64v59.93a40.59 40.59 0 0 0 81.18 0v-59.93z" fill="#fda541"/><path d="m396.72 312.28v62a14.35 14.35 0 0 0 14.34 14.34h1.94a14.35 14.35 0 0 0 14.35-14.34v-62a14.35 14.35 0 0 0 -14.35-14.36h-1.95a14.35 14.35 0 0 0 -14.33 14.36z" fill="#ffb2bf"/><path d="m472.29 421.33v2.22a29.63 29.63 0 0 1 -29.62 29.62h-63.57a29.62 29.62 0 0 1 -29.61-29.62v-2.22a61.4 61.4 0 1 1 122.8 0z" fill="#fda541"/><path d="m462.22 387.63a61.76 61.76 0 0 0 -34.45-25.34 61.74 61.74 0 0 1 12.78 7.82 61.27 61.27 0 0 1 23.29 48.11v2.22a29.58 29.58 0 0 1 -11.2 23.19 29.11 29.11 0 0 1 -8.46 4.71v40.12a40.62 40.62 0 0 1 -50.3 39.42 40.6 40.6 0 0 0 58.76-36.31v-40.12a29.64 29.64 0 0 0 19.65-27.9v-2.22a61 61 0 0 0 -10.07-33.7z" fill="#ffba76"/><path d="m449 373.22a70.15 70.15 0 0 1 -34.32 10.35c-.88.05-1.76.06-2.65.06-1.46 0-2.92-.05-4.35-.14a70.15 70.15 0 0 1 -33.89-11.08 61.37 61.37 0 0 1 75.21.81z" fill="#ffb2bf"/><circle cx="455.07" cy="282.74" fill="#f9a0b4" r="15.18"/><circle cx="373.8" cy="282.74" fill="#f9a0b4" r="15.18"/><path d="m483.65 616.56h-136a15.25 15.25 0 0 1 -15.1-17.45c6.08-40.78 8.74-112.32 82.89-112.32 73.28 0 78.58 73.27 83.34 112.69a15.25 15.25 0 0 1 -15.13 17.08z" fill="#55a4ab"/><path d="m483.66 616.55h-25.74a15.24 15.24 0 0 0 15.14-17.07c-4.48-37-9.41-103.83-70.62-111.88a102.7 102.7 0 0 1 13-.8c73.29 0 78.58 73.26 83.34 112.68a15.24 15.24 0 0 1 -15.12 17.07z" fill="#6fbfc1"/><rect fill="#652138" height="227.36" rx="48.86" width="97.72" x="364.36" y="218.04"/><rect fill="#652138" height="151.99" rx="52.79" width="114.08" x="356.17" y="293.41"/><path d="m462.08 318v-51.1a48.87 48.87 0 0 0 -48.86-48.9 47.88 47.88 0 0 0 -5.39.3 48.87 48.87 0 0 1 43.47 48.6v51.1a52.59 52.59 0 0 1 8.17 28.23v46.41a52.78 52.78 0 0 1 -49.47 52.66c-.72-.05-1.44-.12-2.15-.2-.71.08-1.43.15-2.16.2-1.07.07-2.14.1-3.23.1h15a52.79 52.79 0 0 0 52.8-52.79v-46.41a52.52 52.52 0 0 0 -8.18-28.2z" fill="#7a314d"/><rect fill="#7a314d" height="65.33" rx="17.01" width="34.03" x="410.35" y="336.74"/><circle cx="415.45" cy="237.17" fill="#fda541" r="26.47"/><circle cx="415.45" cy="222.8" fill="#7a314d" r="33.55"/><path d="m449 222.8a33.56 33.56 0 0 1 -33.56 33.55 30.17 30.17 0 0 1 -4.05-.26 33.54 33.54 0 0 0 0-66.59 30.17 30.17 0 0 1 4.05-.26 33.57 33.57 0 0 1 33.56 33.56z" fill="#8e4463"/><ellipse cx="228.65" cy="246.7" fill="#ffb2bf" rx="29.42" ry="34.91" transform="matrix(.8064446 -.59130965 .59130965 .8064446 -101.62 182.95)"/><rect fill="#ffb2bf" height="84.64" rx="9.35" transform="matrix(-.78811819 .61552393 -.61552393 -.78811819 534.71 248.11)" width="18.71" x="215.29" y="173.77"/><ellipse cx="592.81" cy="461.68" fill="#f9e0e5" opacity=".38" rx="15.05" ry="10.32" transform="matrix(.63917059 -.76906499 .76906499 .63917059 -141.15 622.55)"/><path d="m713.69 756.32a40.74 40.74 0 0 1 40.74 40.74v22.22a0 0 0 0 1 0 0 40.74 40.74 0 0 1 -40.74-40.74v-22.22a0 0 0 0 1 0 0z" fill="#969ecc" transform="matrix(.38107038 .92454603 -.92454603 .38107038 1182.69 -191.07)"/><path d="m689.48 722.64a40.74 40.74 0 0 1 40.74 40.74v22.22a0 0 0 0 1 0 0 40.74 40.74 0 0 1 -40.74-40.74v-22.22a0 0 0 0 1 0 0z" fill="#7986bf" transform="matrix(.92454603 .38107038 -.38107038 .92454603 340.93 -213.6)"/><path d="m711.83 756.32a0 0 0 0 1 0 0v22.22a40.74 40.74 0 0 1 -40.74 40.74 0 0 0 0 1 0 0v-22.22a40.74 40.74 0 0 1 40.74-40.74z" fill="#969ecc" transform="matrix(-.38107038 .92454603 -.92454603 -.38107038 1683.31 448.71)"/><path d="m784 837.88a72.94 72.94 0 0 1 -145.87 0 70.74 70.74 0 0 1 .49-8.41 72.19 72.19 0 0 1 1.74-9.54h141.41a70.59 70.59 0 0 1 1.74 9.54 68.7 68.7 0 0 1 .49 8.41z" fill="#969ecc"/><g fill="#7986bf"><rect height="19.09" rx="9.54" width="167.18" x="629.17" y="800.84"/><path d="m783.51 829.47h-144.89a72.19 72.19 0 0 1 1.74-9.54h141.41a70.59 70.59 0 0 1 1.74 9.54z"/></g></svg>