<svg width="128" height="128" viewBox="0 0 128 128" fill="none" xmlns="http://www.w3.org/2000/svg">
<g filter="url(#filter0_d_1004_854)">
<g clip-path="url(#clip0_1004_854)">
<rect width="128" height="128" rx="22" fill="white"/>
<g filter="url(#filter1_d_1004_854)">
<rect width="128" height="128" fill="white"/>
</g>
<path fill-rule="evenodd" clip-rule="evenodd" d="M71.7591 93.4554L74.8544 97.6207H82.0004L76.6886 91.2389C78.179 90.0926 79.3637 88.6786 80.2043 86.9591C81.0451 85.2394 81.4654 83.3287 81.4654 81.2652C81.4654 78.8959 80.9304 76.756 79.8222 74.8835C78.7522 72.9728 77.2619 71.5207 75.3512 70.4507C73.4405 69.3807 71.3769 68.8457 69.0841 68.8457C66.7913 68.8457 64.7278 69.3807 62.8171 70.4507C60.9446 71.5207 59.4161 73.011 58.3079 74.8835C57.1997 76.756 56.6265 78.8959 56.6265 81.2652C56.6265 83.6344 57.1997 85.7744 58.3079 87.6851C59.4161 89.5958 60.9064 91.0479 62.8171 92.1179C64.7278 93.1879 66.7913 93.7229 69.0841 93.7229C69.9249 93.7229 70.842 93.6465 71.7591 93.4554ZM69.046 88.3348C67.097 88.3348 65.5303 87.6851 64.3838 86.424C63.2375 85.1248 62.6642 83.4434 62.6261 81.3034C62.6261 79.1252 63.2375 77.4056 64.3838 76.1446C65.5303 74.8835 67.097 74.2339 69.046 74.2339C70.9949 74.2339 72.5616 74.8835 73.708 76.1446C74.8926 77.4056 75.4658 79.1252 75.4658 81.2652C75.4658 83.4052 74.8544 85.0866 73.708 86.3858C72.5234 87.6851 70.9949 88.3348 69.046 88.3348ZM54.4103 69.228V93.4555H48.5254V69.228H54.4103ZM82.3447 90.666C82.9944 90.666 83.4911 91.1628 83.4911 91.8125C83.4911 92.4621 82.9944 92.9588 82.3447 92.9588C81.695 92.9588 81.1982 92.4621 81.1982 91.8125C81.1982 91.1628 81.695 90.666 82.3447 90.666ZM82.3447 90.8571C81.8097 90.8571 81.3893 91.2774 81.3893 91.8125C81.3893 92.3474 81.8097 92.7678 82.3447 92.7678C82.8797 92.7678 83.3001 92.3474 83.3001 91.8125C83.3001 91.2774 82.9179 90.8571 82.3447 90.8571ZM82.5739 92.4621L82.1536 91.9271V92.4621H81.9625V91.201H82.1918C82.3065 91.201 82.6886 91.2011 82.6886 91.545C82.6886 91.736 82.5358 91.8889 82.3447 91.8889L82.765 92.4239L82.5739 92.4621ZM82.1918 91.7742H82.2682C82.3829 91.7742 82.5358 91.7742 82.5358 91.5831C82.5358 91.3921 82.3829 91.3921 82.2682 91.3921H82.1918V91.7742Z" fill="url(#paint0_linear_1004_854)"/>
<path d="M20.0419 40.93V59H17.0779V40.93H20.0419ZM22.9454 51.772C22.9454 50.3333 23.2401 49.0593 23.8294 47.95C24.4361 46.8407 25.2507 45.9827 26.2734 45.376C27.3134 44.752 28.4661 44.44 29.7314 44.44C30.6674 44.44 31.5861 44.648 32.4874 45.064C33.4061 45.4627 34.1341 46 34.6714 46.676V39.76H37.6614V59H34.6714V56.842C34.1861 57.5353 33.5101 58.1073 32.6434 58.558C31.7941 59.0087 30.8147 59.234 29.7054 59.234C28.4574 59.234 27.3134 58.922 26.2734 58.298C25.2507 57.6567 24.4361 56.7727 23.8294 55.646C23.2401 54.502 22.9454 53.2107 22.9454 51.772ZM34.6714 51.824C34.6714 50.836 34.4634 49.978 34.0474 49.25C33.6487 48.522 33.1201 47.9673 32.4614 47.586C31.8027 47.2047 31.0921 47.014 30.3294 47.014C29.5667 47.014 28.8561 47.2047 28.1974 47.586C27.5387 47.95 27.0014 48.496 26.5854 49.224C26.1867 49.9347 25.9874 50.784 25.9874 51.772C25.9874 52.76 26.1867 53.6267 26.5854 54.372C27.0014 55.1173 27.5387 55.6893 28.1974 56.088C28.8734 56.4693 29.5841 56.66 30.3294 56.66C31.0921 56.66 31.8027 56.4693 32.4614 56.088C33.1201 55.7067 33.6487 55.152 34.0474 54.424C34.4634 53.6787 34.6714 52.812 34.6714 51.824ZM54.6845 51.486C54.6845 52.0233 54.6498 52.5087 54.5805 52.942H43.6345C43.7212 54.086 44.1458 55.0047 44.9085 55.698C45.6712 56.3913 46.6072 56.738 47.7165 56.738C49.3112 56.738 50.4378 56.0707 51.0965 54.736H54.2945C53.8612 56.0533 53.0725 57.1367 51.9285 57.986C50.8018 58.818 49.3978 59.234 47.7165 59.234C46.3472 59.234 45.1165 58.9307 44.0245 58.324C42.9498 57.7 42.1005 56.8333 41.4765 55.724C40.8698 54.5973 40.5665 53.2973 40.5665 51.824C40.5665 50.3507 40.8612 49.0593 41.4505 47.95C42.0572 46.8233 42.8978 45.9567 43.9725 45.35C45.0645 44.7433 46.3125 44.44 47.7165 44.44C49.0685 44.44 50.2732 44.7347 51.3305 45.324C52.3878 45.9133 53.2112 46.7453 53.8005 47.82C54.3898 48.8773 54.6845 50.0993 54.6845 51.486ZM51.5905 50.55C51.5732 49.458 51.1832 48.5827 50.4205 47.924C49.6578 47.2653 48.7132 46.936 47.5865 46.936C46.5638 46.936 45.6885 47.2653 44.9605 47.924C44.2325 48.5653 43.7992 49.4407 43.6605 50.55H51.5905ZM64.8294 44.44C65.956 44.44 66.9614 44.674 67.8454 45.142C68.7467 45.61 69.4487 46.3033 69.9514 47.222C70.454 48.1407 70.7054 49.25 70.7054 50.55V59H67.7674V50.992C67.7674 49.7093 67.4467 48.73 66.8054 48.054C66.164 47.3607 65.2887 47.014 64.1794 47.014C63.07 47.014 62.186 47.3607 61.5274 48.054C60.886 48.73 60.5654 49.7093 60.5654 50.992V59H57.6014V44.674H60.5654V46.312C61.0507 45.7227 61.666 45.2633 62.4114 44.934C63.174 44.6047 63.98 44.44 64.8294 44.44ZM77.9441 47.092V55.022C77.9441 55.5593 78.0655 55.9493 78.3081 56.192C78.5681 56.4173 79.0015 56.53 79.6081 56.53H81.4281V59H79.0881C77.7535 59 76.7308 58.688 76.0201 58.064C75.3095 57.44 74.9541 56.426 74.9541 55.022V47.092H73.2641V44.674H74.9541V41.112H77.9441V44.674H81.4281V47.092H77.9441ZM85.668 42.776C85.1306 42.776 84.68 42.594 84.316 42.23C83.952 41.866 83.77 41.4153 83.77 40.878C83.77 40.3407 83.952 39.89 84.316 39.526C84.68 39.162 85.1306 38.98 85.668 38.98C86.188 38.98 86.63 39.162 86.994 39.526C87.358 39.89 87.54 40.3407 87.54 40.878C87.54 41.4153 87.358 41.866 86.994 42.23C86.63 42.594 86.188 42.776 85.668 42.776ZM87.124 44.674V59H84.16V44.674H87.124ZM94.4734 47.092V55.022C94.4734 55.5593 94.5948 55.9493 94.8374 56.192C95.0974 56.4173 95.5308 56.53 96.1374 56.53H97.9574V59H95.6174C94.2828 59 93.2601 58.688 92.5494 58.064C91.8388 57.44 91.4834 56.426 91.4834 55.022V47.092H89.7934V44.674H91.4834V41.112H94.4734V44.674H97.9574V47.092H94.4734ZM113.585 44.674L104.797 65.734H101.729L104.641 58.766L98.9993 44.674H102.301L106.331 55.594L110.517 44.674H113.585Z" fill="#0033A1"/>
</g>
</g>
<defs>
<filter id="filter0_d_1004_854" x="-16" y="-12" width="160" height="160" filterUnits="userSpaceOnUse" color-interpolation-filters="sRGB">
<feFlood flood-opacity="0" result="BackgroundImageFix"/>
<feColorMatrix in="SourceAlpha" type="matrix" values="0 0 0 0 0 0 0 0 0 0 0 0 0 0 0 0 0 0 127 0" result="hardAlpha"/>
<feOffset dy="4"/>
<feGaussianBlur stdDeviation="8"/>
<feComposite in2="hardAlpha" operator="out"/>
<feColorMatrix type="matrix" values="0 0 0 0 0.254902 0 0 0 0 0.32549 0 0 0 0 0.392157 0 0 0 0.08 0"/>
<feBlend mode="normal" in2="BackgroundImageFix" result="effect1_dropShadow_1004_854"/>
<feBlend mode="normal" in="SourceGraphic" in2="effect1_dropShadow_1004_854" result="shape"/>
</filter>
<filter id="filter1_d_1004_854" x="-16" y="-12" width="160" height="160" filterUnits="userSpaceOnUse" color-interpolation-filters="sRGB">
<feFlood flood-opacity="0" result="BackgroundImageFix"/>
<feColorMatrix in="SourceAlpha" type="matrix" values="0 0 0 0 0 0 0 0 0 0 0 0 0 0 0 0 0 0 127 0" result="hardAlpha"/>
<feOffset dy="4"/>
<feGaussianBlur stdDeviation="8"/>
<feComposite in2="hardAlpha" operator="out"/>
<feColorMatrix type="matrix" values="0 0 0 0 0.254902 0 0 0 0 0.32549 0 0 0 0 0.392157 0 0 0 0.08 0"/>
<feBlend mode="normal" in2="BackgroundImageFix" result="effect1_dropShadow_1004_854"/>
<feBlend mode="normal" in="SourceGraphic" in2="effect1_dropShadow_1004_854" result="shape"/>
</filter>
<linearGradient id="paint0_linear_1004_854" x1="48.9995" y1="69" x2="91.9995" y2="104" gradientUnits="userSpaceOnUse">
<stop stop-color="#E17FD2"/>
<stop offset="0.833508" stop-color="#CC27B0"/>
</linearGradient>
<clipPath id="clip0_1004_854">
<rect width="128" height="128" rx="22" fill="white"/>
</clipPath>
</defs>
</svg>
