<svg width="116" height="116" viewBox="0 0 116 116" fill="none" xmlns="http://www.w3.org/2000/svg">
<path d="M46 80L46 50" stroke="#0033a1" stroke-width="4" stroke-linecap="round" stroke-linejoin="round"/>
<path d="M70 90L70 80M58 90L58 84" stroke="#0033a1" stroke-width="4" stroke-linecap="round" stroke-linejoin="round"/>
<path d="M45.25 50H34L52 30L70 50H58.75" stroke="#0033a1" stroke-width="4" stroke-linecap="round" stroke-linejoin="round"/>
<path d="M70.75 90L82 90L64 110L46 90L57.25 90" stroke="#0033a1" stroke-width="4" stroke-linecap="round" stroke-linejoin="round"/>
<path d="M58 78L58 74" stroke="#0033a1" stroke-width="4" stroke-linecap="round" stroke-linejoin="round"/>
<path d="M58 66L58 62" stroke="#0033a1" stroke-width="4" stroke-linecap="round" stroke-linejoin="round"/>
<path d="M58 54L58 50" stroke="#0033a1" stroke-width="4" stroke-linecap="round" stroke-linejoin="round"/>
<path d="M46 80H28.2705C22.6846 79.9941 17.3044 77.9089 13.1948 74.157C9.08506 70.4051 6.54532 65.26 6.07815 59.7397C5.61098 54.2195 7.25042 48.7265 10.672 44.3477C14.0936 39.969 19.0481 37.0236 24.5549 36.0945C24.5549 35.9839 24.5549 35.8826 24.5549 35.7812C24.5581 29.4718 26.893 23.3824 31.1179 18.6651C35.3428 13.9477 41.1646 10.9297 47.4819 10.1819C53.7992 9.43408 60.1737 11.0084 65.3995 14.607C70.6253 18.2057 74.3399 23.579 75.8405 29.7104C79.4151 28.5407 83.203 28.1544 86.9428 28.5782C90.6825 29.0019 94.285 30.2256 97.5014 32.1647C100.718 34.1038 103.471 36.7122 105.572 39.8096C107.673 42.907 109.071 46.4198 109.669 50.1052C110.268 53.7906 110.052 57.561 109.038 61.1558C108.024 64.7507 106.235 68.0844 103.795 70.9267C101.355 73.7691 98.3218 76.0524 94.9052 77.6189C91.4886 79.1854 87.7698 79.9978 84.0057 80H70" stroke="#0033a1" stroke-width="4" stroke-linecap="round" stroke-linejoin="round"/>
</svg>
