<svg width="116" height="116" viewBox="0 0 116 116" fill="none" xmlns="http://www.w3.org/2000/svg">
<path d="M60.4718 2.39369C64.6724 3.75812 66.971 8.27028 65.6067 12.4718C64.2413 16.6724 59.7293 18.971 55.5286 17.6067C51.328 16.2413 49.0283 11.7292 50.3938 7.52856C51.7582 3.32792 56.2701 1.02846 60.4718 2.39369Z" stroke="#54C0E8" stroke-width="4" stroke-miterlimit="10" stroke-linecap="round" stroke-linejoin="round"/>
<line x1="58" y1="20" x2="58" y2="26" stroke="#54C0E8" stroke-width="4" stroke-linecap="round"/>
<path d="M55.5282 113.606C51.3276 112.242 49.029 107.73 50.3933 103.528C51.7587 99.3276 56.2707 97.029 60.4714 98.3933C64.672 99.7587 66.9717 104.271 65.6063 108.471C64.2418 112.672 59.7299 114.972 55.5282 113.606Z" stroke="#54C0E8" stroke-width="4" stroke-miterlimit="10" stroke-linecap="round" stroke-linejoin="round"/>
<line x1="58" y1="96" x2="58" y2="90" stroke="#54C0E8" stroke-width="4" stroke-linecap="round"/>
<path d="M11.0793 28.0562C14.3612 25.1006 19.4181 25.3661 22.3746 28.6484C25.3297 31.9311 25.0644 36.9879 21.7825 39.9436C18.4997 42.8988 13.4423 42.6343 10.4872 39.3515C7.53155 36.0696 7.79609 31.0124 11.0793 28.0562Z" stroke="#54C0E8" stroke-width="4" stroke-miterlimit="10" stroke-linecap="round" stroke-linejoin="round"/>
<line x1="25.0909" y1="39.0001" x2="30.2871" y2="42.0001" stroke="#54C0E8" stroke-width="4" stroke-linecap="round"/>
<path d="M104.92 87.9438C101.638 90.8994 96.5814 90.6339 93.6249 87.3516C90.6698 84.0689 90.9351 79.0121 94.217 76.0564C97.4998 73.1012 102.557 73.3657 105.512 76.6485C108.468 79.9304 108.203 84.9876 104.92 87.9438Z" stroke="#54C0E8" stroke-width="4" stroke-miterlimit="10" stroke-linecap="round" stroke-linejoin="round"/>
<line x1="90.9086" y1="76.9999" x2="85.7124" y2="73.9999" stroke="#54C0E8" stroke-width="4" stroke-linecap="round"/>
<path d="M8.60748 83.6625C7.68881 79.3425 10.4472 75.0958 14.7679 74.1766C19.0885 73.2587 23.3351 76.017 24.2539 80.337C25.1717 84.6575 22.414 88.9051 18.0934 89.8229C13.7734 90.7416 9.52603 87.984 8.60748 83.6625Z" stroke="#54C0E8" stroke-width="4" stroke-miterlimit="10" stroke-linecap="round" stroke-linejoin="round"/>
<line x1="25.0909" y1="77.0001" x2="30.2871" y2="74.0001" stroke="#54C0E8" stroke-width="4" stroke-linecap="round"/>
<path d="M107.392 32.3375C108.311 36.6575 105.552 40.9042 101.232 41.8234C96.911 42.7413 92.6644 39.983 91.7456 35.663C90.8278 31.3425 93.5855 27.0949 97.9061 26.1771C102.226 25.2584 106.473 28.016 107.392 32.3375Z" stroke="#54C0E8" stroke-width="4" stroke-miterlimit="10" stroke-linecap="round" stroke-linejoin="round"/>
<line x1="90.9086" y1="38.9999" x2="85.7124" y2="41.9999" stroke="#54C0E8" stroke-width="4" stroke-linecap="round"/>
<path d="M58 78C69.0457 78 78 69.0457 78 58C78 46.9543 69.0457 38 58 38C46.9543 38 38 46.9543 38 58C38 69.0457 46.9543 78 58 78Z" stroke="#54C0E8" stroke-width="4" stroke-linecap="round" stroke-linejoin="round"/>
</svg>
