<svg width="116" height="116" viewBox="0 0 116 116" fill="none" xmlns="http://www.w3.org/2000/svg">
<path d="M58 82C61.866 82 65 78.866 65 75C65 71.134 61.866 68 58 68C54.134 68 51 71.134 51 75C51 78.866 54.134 82 58 82Z" stroke="#0033a1" stroke-width="4" stroke-linecap="round" stroke-linejoin="round"/>
<path d="M17.168 80L24.168 72" stroke="#0033a1" stroke-width="4" stroke-linecap="round" stroke-linejoin="round"/>
<path d="M17.168 80.0001L10.168 72" stroke="#0033a1" stroke-width="4" stroke-linecap="round" stroke-linejoin="round"/>
<path d="M80 99.1667L72.082 92" stroke="#0033a1" stroke-width="4" stroke-linecap="round" stroke-linejoin="round"/>
<path d="M80.0001 99.1667L72.082 106.333" stroke="#0033a1" stroke-width="4" stroke-linecap="round" stroke-linejoin="round"/>
<path d="M58 36L58 68" stroke="#0033a1" stroke-width="4" stroke-linecap="round" stroke-linejoin="round"/>
<path d="M78 99H36" stroke="#0033a1" stroke-width="4" stroke-linecap="round" stroke-linejoin="round"/>
<path d="M99 80.4396L106 72" stroke="#0033a1" stroke-width="4" stroke-linecap="round" stroke-linejoin="round"/>
<path d="M99 80.4396L92 72" stroke="#0033a1" stroke-width="4" stroke-linecap="round" stroke-linejoin="round"/>
<rect x="36" y="6" width="44" height="22" stroke="#0033a1" stroke-width="4" stroke-linejoin="round"/>
<path d="M99 80V48H17V80" stroke="#0033a1" stroke-width="4" stroke-linecap="round" stroke-linejoin="round"/>
<rect x="6" y="88" width="22" height="22" stroke="#0033a1" stroke-width="4" stroke-linejoin="round"/>
<rect x="88" y="88" width="22" height="22" stroke="#0033a1" stroke-width="4" stroke-linejoin="round"/>
</svg>
