<svg width="116" height="116" viewBox="0 0 116 116" fill="none" xmlns="http://www.w3.org/2000/svg">
<path d="M10 106L38 106L38 97.6L38 86.4L38 78L10 78L10 106Z" stroke="#0033a1" stroke-width="4" stroke-linejoin="round"/>
<path d="M78 106L106 106L106 97.6L106 86.4L106 78L78 78L78 106Z" stroke="#0033a1" stroke-width="4" stroke-linejoin="round"/>
<path d="M10 38L38 38L38 29.6L38 18.4L38 10L10 10L10 38Z" stroke="#0033a1" stroke-width="4" stroke-linejoin="round"/>
<path d="M78 38L106 38L106 29.6L106 18.4L106 10L78 10L78 38Z" stroke="#0033a1" stroke-width="4" stroke-linejoin="round"/>
<path d="M62 32L68.7836 25.2558L69.9933 24.007C69.997 24.0031 69.997 23.9969 69.9933 23.993L68.7836 22.7442L62 16" stroke="#0033a1" stroke-width="4" stroke-linecap="round"/>
<path d="M68 24L46 24" stroke="#0033a1" stroke-width="4" stroke-linecap="round"/>
<path d="M84 62L90.7442 68.7836L91.993 69.9933C91.9969 69.997 92.0031 69.997 92.007 69.9933L93.2558 68.7836L100 62" stroke="#0033a1" stroke-width="4" stroke-linecap="round"/>
<path d="M92 68L92 46" stroke="#0033a1" stroke-width="4" stroke-linecap="round"/>
<path d="M54 84L47.2164 90.7442L46.0067 91.993C46.003 91.9969 46.003 92.0031 46.0067 92.007L47.2164 93.2558L54 100" stroke="#0033a1" stroke-width="4" stroke-linecap="round"/>
<path d="M48 92L70 92" stroke="#0033a1" stroke-width="4" stroke-linecap="round"/>
</svg>
