<svg width="116" height="116" viewBox="0 0 116 116" fill="none" xmlns="http://www.w3.org/2000/svg">
<path d="M109.493 40.4956L97.9376 28.9412C99.3758 28.5817 100.76 27.9165 101.875 26.802C105.236 23.4406 105.236 17.9759 101.893 14.6324C98.5309 11.2709 93.0659 11.2709 89.7043 14.6324C88.5897 15.7469 87.9605 17.167 87.583 18.5871L74.9953 6L40.4959 40.4976M40.4959 40.4976L41.7642 41.7659M40.4959 40.4976L53.0845 53.0845C51.6643 53.462 50.2442 54.0911 49.1296 55.2056C45.7679 58.5671 45.7679 64.0318 49.1296 67.3933C52.4733 70.7368 57.9382 70.7368 61.2999 67.3753C62.4144 66.2608 63.0796 64.8766 63.4391 63.4386L74.7425 74.7414M72.9659 72.966L75.5026 75.5026L87.583 63.4228C87.9605 64.8429 88.5897 66.263 89.7042 67.3775C93.0659 70.739 98.5308 70.739 101.892 67.3775C105.236 64.034 105.236 58.5693 101.875 55.2078C100.76 54.0933 99.3757 53.4282 97.9376 53.0687L110 41.0069L108.478 39.485M6.50729 75.5044L18.5697 87.5661C17.1316 87.9257 15.7473 88.5908 14.6328 89.7053C11.2711 93.0668 11.2711 98.5314 14.6148 101.875C17.9765 105.236 23.4414 105.236 26.8031 101.875C27.9176 100.76 28.5468 99.3403 28.9243 97.9202L41.0047 110L75.5041 75.5024M75.5041 75.5024L74.2358 74.2341M75.5041 75.5024L63.4234 63.4223C63.0459 64.8424 62.4167 66.2625 61.3021 67.377C57.9405 70.7384 52.4756 70.7384 49.1139 67.377C45.7702 64.0335 45.7702 58.5688 49.1319 55.2073C50.2464 54.0928 51.6307 53.4277 53.0688 53.0682L41.2581 41.2581M43.0341 43.034L40.4974 40.4974L28.417 52.5772C28.0395 51.1571 27.4103 49.737 26.2958 48.6225C22.9341 45.261 17.4692 45.261 14.1075 48.6225C10.7638 51.966 10.7638 57.4307 14.1255 60.7922C15.2401 61.9067 16.6243 62.5718 18.0624 62.9313L6 74.9931L7.52203 76.515" stroke="#54C0E8" stroke-width="4" stroke-linejoin="round"/>
</svg>
